<svg width="367" height="314" viewBox="0 0 367 314" fill="none" xmlns="http://www.w3.org/2000/svg">
<circle cx="181" cy="157" r="157" fill="url(#paint0_linear)"/>
<g clip-path="url(#clip0)">
<path d="M301.815 237.137L272.815 201.582C272.077 200.678 271.196 199.974 270.249 199.411C264.341 192.631 255.679 188.329 246 188.329C236.319 188.329 227.659 192.631 221.753 199.411C220.805 199.974 219.924 200.678 219.186 201.582L190.186 237.137C186.804 241.283 187.413 247.392 191.546 250.784C193.342 252.258 195.509 252.974 197.662 252.974C200.462 252.974 203.239 251.762 205.149 249.417L213.778 238.836V265.905C213.778 273.045 219.549 278.834 226.667 278.834H265.333C272.451 278.834 278.222 273.045 278.222 265.905V238.837L286.851 249.418C288.762 251.763 291.538 252.976 294.338 252.976C296.491 252.976 298.657 252.26 300.454 250.786C304.586 247.392 305.195 241.284 301.815 237.137Z" fill="url(#paint1_linear)"/>
<path d="M256.567 162.108L267.729 168.573L291.251 137.426C295.382 131.952 293.784 124.106 287.857 120.673L287.834 120.713C281.907 117.281 274.369 119.755 271.709 126.081L256.567 162.108Z" fill="url(#paint2_linear)"/>
<path d="M260.967 160.926L266.548 164.158L286.583 134.819C288.547 131.942 287.642 128.016 284.631 126.272L284.608 126.313C281.597 124.569 277.792 125.684 276.288 128.829L260.967 160.926Z" fill="url(#paint3_linear)"/>
<path d="M287.889 278.836C287.889 269.91 280.676 262.674 271.778 262.674C262.88 262.674 255.667 269.91 255.667 278.836H287.889Z" fill="url(#paint4_linear)"/>
<path d="M236.333 278.836C236.333 269.91 229.12 262.674 220.221 262.674C211.323 262.674 204.11 269.91 204.11 278.836H236.333Z" fill="url(#paint5_linear)"/>
<path d="M238.775 162.108L227.614 168.573L204.091 137.426C199.96 131.952 201.559 124.106 207.486 120.673L207.509 120.713C213.436 117.281 220.974 119.755 223.634 126.081L238.775 162.108Z" fill="url(#paint6_linear)"/>
<path d="M234.374 160.926L228.793 164.158L208.757 134.819C206.793 131.942 207.698 128.016 210.71 126.272L210.732 126.313C213.743 124.569 217.549 125.684 219.052 128.829L234.374 160.926Z" fill="url(#paint7_linear)"/>
<path opacity="0.05" d="M219.055 128.813C217.555 125.689 213.748 124.57 210.735 126.316L210.703 126.259C207.688 128.005 206.783 131.925 208.747 134.82L209.54 136.003C208.705 133.388 209.738 130.401 212.25 128.947C214.761 127.492 217.858 128.089 219.696 130.12L219.055 128.813Z" fill="black"/>
<path d="M278.222 185.095C278.222 202.947 263.796 214.186 246 214.186C228.203 214.186 213.777 202.947 213.777 185.095C213.777 167.243 228.203 152.771 246 152.771C263.796 152.771 278.222 167.243 278.222 185.095Z" fill="url(#paint8_linear)"/>
<path d="M258.889 191.561C262.448 191.561 265.333 188.666 265.333 185.096C265.333 181.526 262.448 178.631 258.889 178.631C255.33 178.631 252.444 181.526 252.444 185.096C252.444 188.666 255.33 191.561 258.889 191.561Z" fill="white"/>
<path d="M233.111 191.561C236.671 191.561 239.556 188.666 239.556 185.096C239.556 181.526 236.671 178.631 233.111 178.631C229.552 178.631 226.667 181.526 226.667 185.096C226.667 188.666 229.552 191.561 233.111 191.561Z" fill="white"/>
<path opacity="0.05" d="M276.283 128.813C277.783 125.689 281.59 124.57 284.603 126.316L284.635 126.259C287.649 128.005 288.555 131.925 286.591 134.82L285.798 136.003C286.633 133.388 285.6 130.401 283.088 128.947C280.576 127.492 277.48 128.089 275.642 130.12L276.283 128.813Z" fill="black"/>
<path d="M258.889 188.33C260.669 188.33 262.111 186.883 262.111 185.098C262.111 183.312 260.669 181.865 258.889 181.865C257.11 181.865 255.667 183.312 255.667 185.098C255.667 186.883 257.11 188.33 258.889 188.33Z" fill="url(#paint9_linear)"/>
<path d="M233.112 188.33C234.891 188.33 236.334 186.883 236.334 185.098C236.334 183.312 234.891 181.865 233.112 181.865C231.332 181.865 229.89 183.312 229.89 185.098C229.89 186.883 231.332 188.33 233.112 188.33Z" fill="url(#paint10_linear)"/>
<path d="M246 201.257C248.67 201.257 250.834 199.087 250.834 196.409C250.834 193.731 248.67 191.561 246 191.561C243.331 191.561 241.167 193.731 241.167 196.409C241.167 199.087 243.331 201.257 246 201.257Z" fill="url(#paint11_linear)"/>
<path d="M287.889 278.836C287.889 269.91 280.676 262.674 271.778 262.674C262.88 262.674 255.667 269.91 255.667 278.836H287.889Z" fill="url(#paint12_linear)"/>
<path d="M275.227 204.555C275.033 204.975 274.808 205.363 274.582 205.751C271.553 211.084 266.784 215.157 260.952 217.678C256.473 219.618 251.382 220.652 246.001 220.652C240.62 220.652 235.529 219.618 231.05 217.678C225.218 215.157 220.449 211.084 217.42 205.751C218 204.588 218.709 203.424 219.45 202.357C223.22 207.238 228.633 210.761 234.981 212.668C238.429 213.67 242.134 214.188 246.001 214.188C249.868 214.188 253.573 213.67 257.021 212.668C263.369 210.761 268.782 207.238 272.552 202.357C272.681 202.163 272.842 201.969 272.971 201.775L275.227 204.555Z" fill="url(#paint13_linear)"/>
<path opacity="0.05" d="M258.888 249.745V252.977C258.888 260.12 253.12 265.906 245.999 265.906C242.455 265.906 239.233 264.452 236.88 262.124C234.56 259.765 233.11 256.533 233.11 252.977V249.745C233.11 253.3 234.56 256.533 236.88 258.892C239.233 261.219 242.455 262.674 245.999 262.674C253.12 262.674 258.888 256.888 258.888 249.745Z" fill="black"/>
<path opacity="0.5" d="M258.888 240.046V249.742C258.888 256.886 253.12 262.672 245.999 262.672C242.455 262.672 239.233 261.217 236.88 258.89C234.56 256.53 233.11 253.298 233.11 249.742V240.046C233.11 232.902 238.878 227.116 245.999 227.116C253.12 227.116 258.888 232.902 258.888 240.046Z" fill="white"/>
<path d="M287.888 278.836H281.444C281.444 271.014 275.901 264.517 268.587 262.998C269.618 262.771 270.681 262.674 271.777 262.674C280.67 262.674 287.888 269.915 287.888 278.836Z" fill="url(#paint14_linear)"/>
<path d="M236.333 278.836H229.889C229.889 271.014 224.347 264.517 217.032 262.998C218.063 262.771 219.127 262.674 220.222 262.674C229.116 262.674 236.333 269.915 236.333 278.836Z" fill="url(#paint15_linear)"/>
</g>
<path d="M281.667 293.999H239V173.423C239 163.374 248.6 155.153 260.333 155.153C272.067 155.153 281.667 163.374 281.667 173.423V293.999Z" fill="url(#paint16_linear)"/>
<path d="M307.266 104C321.346 104 332.866 113.865 332.866 125.923V294H281.666V125.923C281.666 113.865 293.186 104 307.266 104Z" fill="url(#paint17_linear)"/>
<path d="M341.4 202.653C355.48 202.653 367 212.519 367 224.576V293.999H315.8V224.576C315.8 212.519 327.32 202.653 341.4 202.653Z" fill="url(#paint18_linear)"/>
<path d="M332.867 202.653V203.932C324.333 206.855 315.8 215.076 315.8 224.576V293.999H307.267V224.576C307.267 212.519 320.067 202.653 332.867 202.653Z" fill="url(#paint19_linear)"/>
<g clip-path="url(#clip1)">
<path d="M30.3333 261H0V161.366C0 153.063 6.825 146.27 15.1667 146.27C23.5083 146.27 30.3333 153.063 30.3333 161.366V261Z" fill="url(#paint20_linear)"/>
<path d="M48.534 104C58.544 104 66.734 112.152 66.734 122.115V261H30.334V122.115C30.334 112.152 38.524 104 48.534 104Z" fill="url(#paint21_linear)"/>
<path d="M72.7996 185.52C82.8096 185.52 90.9996 193.671 90.9996 203.635V261H54.5996V203.635C54.5996 193.671 62.7896 185.52 72.7996 185.52Z" fill="url(#paint22_linear)"/>
<path d="M66.7332 185.52V186.576C60.6665 188.992 54.5999 195.785 54.5999 203.635V261H48.5332V203.635C48.5332 193.671 57.6332 185.52 66.7332 185.52Z" fill="url(#paint23_linear)"/>
</g>
<g clip-path="url(#clip2)">
<path d="M156.333 125H139V67.8848C139 63.1252 142.9 59.231 147.667 59.231C152.433 59.231 156.333 63.1252 156.333 67.8848V125Z" fill="url(#paint24_linear)"/>
<path d="M166.733 35C172.453 35 177.133 39.6731 177.133 45.3846V125H156.333V45.3846C156.333 39.6731 161.013 35 166.733 35Z" fill="url(#paint25_linear)"/>
<path d="M180.6 81.731C186.32 81.731 191 86.404 191 92.1156V125H170.2V92.1156C170.2 86.404 174.88 81.731 180.6 81.731Z" fill="url(#paint26_linear)"/>
<path d="M177.133 81.731V82.3367C173.667 83.7213 170.2 87.6156 170.2 92.1156V125H166.733V92.1156C166.733 86.404 171.933 81.731 177.133 81.731Z" fill="url(#paint27_linear)"/>
</g>
<circle cx="73" cy="47" r="39" fill="url(#paint28_linear)"/>
<path d="M270.5 16L273.531 25.3283H283.339L275.404 31.0935L278.435 40.4217L270.5 34.6565L262.565 40.4217L265.596 31.0935L257.661 25.3283H267.469L270.5 16Z" fill="#FFF5C0"/>
<path d="M94.5 103L97.5309 112.328H107.339L99.4042 118.093L102.435 127.422L94.5 121.657L86.5649 127.422L89.5958 118.093L81.6607 112.328H91.4691L94.5 103Z" fill="#FFF5C0"/>
<path d="M138.5 160L140.633 166.564H147.535L141.951 170.621L144.084 177.186L138.5 173.129L132.916 177.186L135.049 170.621L129.465 166.564H136.367L138.5 160Z" fill="#FFF5C0"/>
<path d="M233.5 76L236.531 85.3283H246.339L238.404 91.0935L241.435 100.422L233.5 94.6565L225.565 100.422L228.596 91.0935L220.661 85.3283H230.469L233.5 76Z" fill="#FFF5C0"/>
<path d="M211 30L213.021 36.2188H219.56L214.269 40.0623L216.29 46.2812L211 42.4377L205.71 46.2812L207.731 40.0623L202.44 36.2188H208.979L211 30Z" fill="#FFF5C0"/>
<path d="M148 8L149.796 13.5279H155.608L150.906 16.9443L152.702 22.4721L148 19.0557L143.298 22.4721L145.094 16.9443L140.392 13.5279H146.204L148 8Z" fill="#FFF5C0"/>
<defs>
<linearGradient id="paint0_linear" x1="74.4841" y1="34.3958" x2="279.194" y2="303.459" gradientUnits="userSpaceOnUse">
<stop offset="0.180956" stop-color="#0F45C3"/>
<stop offset="0.712228" stop-color="#4F83FF"/>
<stop offset="1" stop-color="#4F83FF" stop-opacity="0.31"/>
</linearGradient>
<linearGradient id="paint1_linear" x1="187.597" y1="233.581" x2="306.016" y2="233.581" gradientUnits="userSpaceOnUse">
<stop stop-color="#BBE2FF"/>
<stop offset="0.5013" stop-color="#ADDDFF"/>
<stop offset="1" stop-color="#A4DAFF"/>
</linearGradient>
<linearGradient id="paint2_linear" x1="288.483" y1="119.66" x2="261.579" y2="165.792" gradientUnits="userSpaceOnUse">
<stop stop-color="#E1F3FF"/>
<stop offset="0.2432" stop-color="#D8EFFF"/>
<stop offset="0.6383" stop-color="#C0E5FF"/>
<stop offset="1" stop-color="#A4DAFF"/>
</linearGradient>
<linearGradient id="paint3_linear" x1="262.25" y1="162.13" x2="284.704" y2="126.84" gradientUnits="userSpaceOnUse">
<stop stop-color="#3061E5" stop-opacity="0"/>
<stop offset="1" stop-color="#005FE0" stop-opacity="0.15"/>
</linearGradient>
<linearGradient id="paint4_linear" x1="255.667" y1="270.754" x2="287.889" y2="270.754" gradientUnits="userSpaceOnUse">
<stop stop-color="#E1F3FF"/>
<stop offset="0.0953" stop-color="#DCF1FF"/>
<stop offset="0.6555" stop-color="#C4E6FF"/>
<stop offset="1" stop-color="#BBE2FF"/>
</linearGradient>
<linearGradient id="paint5_linear" x1="204.11" y1="270.754" x2="236.332" y2="270.754" gradientUnits="userSpaceOnUse">
<stop stop-color="#E1F3FF"/>
<stop offset="0.1244" stop-color="#D4EDFF"/>
<stop offset="0.3309" stop-color="#C6E7FF"/>
<stop offset="0.5822" stop-color="#BEE3FF"/>
<stop offset="1" stop-color="#BBE2FF"/>
</linearGradient>
<linearGradient id="paint6_linear" x1="206.859" y1="119.66" x2="233.764" y2="165.792" gradientUnits="userSpaceOnUse">
<stop stop-color="#E1F3FF"/>
<stop offset="0.2432" stop-color="#D8EFFF"/>
<stop offset="0.6383" stop-color="#C0E5FF"/>
<stop offset="1" stop-color="#A4DAFF"/>
</linearGradient>
<linearGradient id="paint7_linear" x1="233.09" y1="162.13" x2="210.636" y2="126.84" gradientUnits="userSpaceOnUse">
<stop stop-color="#3061E5" stop-opacity="0"/>
<stop offset="1" stop-color="#005FE0" stop-opacity="0.15"/>
</linearGradient>
<linearGradient id="paint8_linear" x1="213.777" y1="183.478" x2="278.222" y2="183.478" gradientUnits="userSpaceOnUse">
<stop stop-color="#E1F3FF"/>
<stop offset="0.0953" stop-color="#DCF1FF"/>
<stop offset="0.6555" stop-color="#C4E6FF"/>
<stop offset="1" stop-color="#BBE2FF"/>
</linearGradient>
<linearGradient id="paint9_linear" x1="258.889" y1="181.73" x2="258.889" y2="188.61" gradientUnits="userSpaceOnUse">
<stop stop-color="#4C4B4B"/>
<stop offset="1" stop-color="#3A3838"/>
</linearGradient>
<linearGradient id="paint10_linear" x1="233.112" y1="181.73" x2="233.112" y2="188.61" gradientUnits="userSpaceOnUse">
<stop stop-color="#4C4B4B"/>
<stop offset="1" stop-color="#3A3838"/>
</linearGradient>
<linearGradient id="paint11_linear" x1="241.167" y1="196.408" x2="250.833" y2="196.408" gradientUnits="userSpaceOnUse">
<stop stop-color="#9AC6E8"/>
<stop offset="0.1952" stop-color="#9AC3E8"/>
<stop offset="1" stop-color="#9ABAE8"/>
</linearGradient>
<linearGradient id="paint12_linear" x1="255.667" y1="270.754" x2="287.889" y2="270.754" gradientUnits="userSpaceOnUse">
<stop stop-color="#E1F3FF"/>
<stop offset="0.1244" stop-color="#D4EDFF"/>
<stop offset="0.3309" stop-color="#C6E7FF"/>
<stop offset="0.5822" stop-color="#BEE3FF"/>
<stop offset="1" stop-color="#BBE2FF"/>
</linearGradient>
<linearGradient id="paint13_linear" x1="217.42" y1="211.213" x2="275.227" y2="211.213" gradientUnits="userSpaceOnUse">
<stop stop-color="#3061E5" stop-opacity="0"/>
<stop offset="1" stop-color="#005FE0" stop-opacity="0.1"/>
</linearGradient>
<linearGradient id="paint14_linear" x1="278.237" y1="262.067" x2="278.237" y2="279.381" gradientUnits="userSpaceOnUse">
<stop stop-color="#3061E5" stop-opacity="0"/>
<stop offset="0.29" stop-color="#2761E4" stop-opacity="0.0377"/>
<stop offset="0.7616" stop-color="#0F60E2" stop-opacity="0.099"/>
<stop offset="1" stop-color="#005FE0" stop-opacity="0.13"/>
</linearGradient>
<linearGradient id="paint15_linear" x1="226.683" y1="262.067" x2="226.683" y2="279.381" gradientUnits="userSpaceOnUse">
<stop stop-color="#3061E5" stop-opacity="0"/>
<stop offset="0.29" stop-color="#2761E4" stop-opacity="0.0377"/>
<stop offset="0.7616" stop-color="#0F60E2" stop-opacity="0.099"/>
<stop offset="1" stop-color="#005FE0" stop-opacity="0.13"/>
</linearGradient>
<linearGradient id="paint16_linear" x1="260.333" y1="155.609" x2="260.333" y2="294.455" gradientUnits="userSpaceOnUse">
<stop stop-color="#00E35E"/>
<stop offset="1" stop-color="#00B248"/>
</linearGradient>
<linearGradient id="paint17_linear" x1="307.266" y1="103.208" x2="307.266" y2="294.236" gradientUnits="userSpaceOnUse">
<stop stop-color="#00E35E"/>
<stop offset="1" stop-color="#00A332"/>
</linearGradient>
<linearGradient id="paint18_linear" x1="341.4" y1="202.195" x2="341.4" y2="295.38" gradientUnits="userSpaceOnUse">
<stop stop-color="#00E35E"/>
<stop offset="1" stop-color="#00B248"/>
</linearGradient>
<linearGradient id="paint19_linear" x1="320.067" y1="202.651" x2="320.067" y2="293.999" gradientUnits="userSpaceOnUse">
<stop stop-color="#304F26" stop-opacity="0"/>
<stop offset="0.2844" stop-color="#2C4D23" stop-opacity="0.0569"/>
<stop offset="0.579" stop-color="#1F4719" stop-opacity="0.1158"/>
<stop offset="0.8773" stop-color="#0B3E09" stop-opacity="0.1755"/>
<stop offset="1" stop-color="#003900" stop-opacity="0.2"/>
</linearGradient>
<linearGradient id="paint20_linear" x1="15.1667" y1="146.646" x2="15.1667" y2="261.377" gradientUnits="userSpaceOnUse">
<stop stop-color="#00E35E"/>
<stop offset="1" stop-color="#00B248"/>
</linearGradient>
<linearGradient id="paint21_linear" x1="48.534" y1="103.345" x2="48.534" y2="261.195" gradientUnits="userSpaceOnUse">
<stop stop-color="#00E35E"/>
<stop offset="1" stop-color="#00A332"/>
</linearGradient>
<linearGradient id="paint22_linear" x1="72.7996" y1="185.141" x2="72.7996" y2="262.141" gradientUnits="userSpaceOnUse">
<stop stop-color="#00E35E"/>
<stop offset="1" stop-color="#00B248"/>
</linearGradient>
<linearGradient id="paint23_linear" x1="57.6332" y1="185.518" x2="57.6332" y2="261" gradientUnits="userSpaceOnUse">
<stop stop-color="#304F26" stop-opacity="0"/>
<stop offset="0.2844" stop-color="#2C4D23" stop-opacity="0.0569"/>
<stop offset="0.579" stop-color="#1F4719" stop-opacity="0.1158"/>
<stop offset="0.8773" stop-color="#0B3E09" stop-opacity="0.1755"/>
<stop offset="1" stop-color="#003900" stop-opacity="0.2"/>
</linearGradient>
<linearGradient id="paint24_linear" x1="147.667" y1="59.4467" x2="147.667" y2="125.216" gradientUnits="userSpaceOnUse">
<stop stop-color="#00E35E"/>
<stop offset="1" stop-color="#00B248"/>
</linearGradient>
<linearGradient id="paint25_linear" x1="166.733" y1="34.6248" x2="166.733" y2="125.112" gradientUnits="userSpaceOnUse">
<stop stop-color="#00E35E"/>
<stop offset="1" stop-color="#00A332"/>
</linearGradient>
<linearGradient id="paint26_linear" x1="180.6" y1="81.514" x2="180.6" y2="125.654" gradientUnits="userSpaceOnUse">
<stop stop-color="#00E35E"/>
<stop offset="1" stop-color="#00B248"/>
</linearGradient>
<linearGradient id="paint27_linear" x1="171.933" y1="81.7301" x2="171.933" y2="125" gradientUnits="userSpaceOnUse">
<stop stop-color="#304F26" stop-opacity="0"/>
<stop offset="0.2844" stop-color="#2C4D23" stop-opacity="0.0569"/>
<stop offset="0.579" stop-color="#1F4719" stop-opacity="0.1158"/>
<stop offset="0.8773" stop-color="#0B3E09" stop-opacity="0.1755"/>
<stop offset="1" stop-color="#003900" stop-opacity="0.2"/>
</linearGradient>
<linearGradient id="paint28_linear" x1="41" y1="13" x2="112" y2="79.5" gradientUnits="userSpaceOnUse">
<stop offset="0.52472" stop-color="#FFF5C0"/>
<stop offset="1" stop-color="#FFF1A9" stop-opacity="0.52"/>
</linearGradient>
<clipPath id="clip0">
<rect width="116" height="160" fill="white" transform="translate(188 119)"/>
</clipPath>
<clipPath id="clip1">
<rect width="91" height="157" fill="white" transform="translate(0 104)"/>
</clipPath>
<clipPath id="clip2">
<rect width="52" height="90" fill="white" transform="translate(139 35)"/>
</clipPath>
</defs>
</svg>
