<svg width="646" height="324" viewBox="0 0 646 324" fill="none" xmlns="http://www.w3.org/2000/svg">
<g clip-path="url(#clip0)">
<path d="M495.721 245.569L465.471 208.68C464.701 207.743 463.782 207.012 462.794 206.428C456.631 199.394 447.597 194.931 437.5 194.931C427.401 194.931 418.369 199.394 412.208 206.428C411.219 207.012 410.3 207.743 409.53 208.68L379.28 245.569C375.753 249.87 376.388 256.208 380.699 259.728C382.573 261.257 384.833 262 387.078 262C389.999 262 392.896 260.742 394.888 258.309L403.889 247.331V275.416C403.889 282.823 409.909 288.83 417.333 288.83H457.667C465.091 288.83 471.111 282.823 471.111 275.416V247.333L480.112 258.311C482.105 260.744 485.001 262.001 487.922 262.001C490.167 262.001 492.427 261.259 494.301 259.729C498.612 256.208 499.247 249.872 495.721 245.569Z" fill="url(#paint0_linear)"/>
<path d="M448.522 167.726L460.165 174.434L484.701 142.119C489.01 136.44 487.343 128.299 481.16 124.737L481.137 124.779C474.954 121.218 467.091 123.785 464.316 130.348L448.522 167.726Z" fill="url(#paint1_linear)"/>
<path d="M453.112 166.5L458.933 169.853L479.833 139.413C481.881 136.428 480.937 132.356 477.796 130.546L477.772 130.588C474.631 128.779 470.662 129.936 469.094 133.199L453.112 166.5Z" fill="url(#paint2_linear)"/>
<path d="M481.195 288.83C481.195 279.569 473.671 272.062 464.389 272.062C455.108 272.062 447.584 279.569 447.584 288.83H481.195Z" fill="url(#paint3_linear)"/>
<path d="M427.416 288.83C427.416 279.569 419.893 272.062 410.611 272.062C401.329 272.062 393.805 279.569 393.805 288.83H427.416Z" fill="url(#paint4_linear)"/>
<path d="M429.963 167.726L418.321 174.434L393.784 142.119C389.476 136.44 391.143 128.299 397.325 124.737L397.349 124.779C403.532 121.218 411.395 123.785 414.17 130.348L429.963 167.726Z" fill="url(#paint5_linear)"/>
<path d="M425.372 166.5L419.551 169.853L398.652 139.413C396.603 136.428 397.547 132.356 400.688 130.546L400.712 130.588C403.853 128.779 407.822 129.936 409.39 133.199L425.372 166.5Z" fill="url(#paint6_linear)"/>
<path opacity="0.05" d="M409.393 133.184C407.829 129.943 403.858 128.783 400.715 130.594L400.681 130.535C397.537 132.346 396.593 136.414 398.641 139.417L399.468 140.644C398.598 137.931 399.675 134.833 402.295 133.323C404.915 131.814 408.145 132.433 410.062 134.541L409.393 133.184Z" fill="black"/>
<path d="M471.111 191.576C471.111 210.098 456.064 221.758 437.5 221.758C418.937 221.758 403.889 210.098 403.889 191.576C403.889 173.055 418.937 158.041 437.5 158.041C456.064 158.041 471.111 173.055 471.111 191.576Z" fill="url(#paint7_linear)"/>
<path d="M450.944 198.283C454.657 198.283 457.666 195.28 457.666 191.576C457.666 187.872 454.657 184.869 450.944 184.869C447.232 184.869 444.222 187.872 444.222 191.576C444.222 195.28 447.232 198.283 450.944 198.283Z" fill="white"/>
<path d="M424.056 198.283C427.769 198.283 430.778 195.28 430.778 191.576C430.778 187.872 427.769 184.869 424.056 184.869C420.343 184.869 417.334 187.872 417.334 191.576C417.334 195.28 420.343 198.283 424.056 198.283Z" fill="white"/>
<path opacity="0.05" d="M469.089 133.184C470.653 129.943 474.625 128.783 477.767 130.594L477.801 130.535C480.945 132.346 481.89 136.414 479.841 139.417L479.014 140.644C479.885 137.931 478.807 134.833 476.188 133.323C473.568 131.814 470.337 132.433 468.42 134.541L469.089 133.184Z" fill="black"/>
<path d="M450.945 194.931C452.801 194.931 454.306 193.429 454.306 191.577C454.306 189.725 452.801 188.224 450.945 188.224C449.089 188.224 447.584 189.725 447.584 191.577C447.584 193.429 449.089 194.931 450.945 194.931Z" fill="url(#paint8_linear)"/>
<path d="M424.056 194.931C425.912 194.931 427.417 193.429 427.417 191.577C427.417 189.725 425.912 188.224 424.056 188.224C422.199 188.224 420.695 189.725 420.695 191.577C420.695 193.429 422.199 194.931 424.056 194.931Z" fill="url(#paint9_linear)"/>
<path d="M437.5 208.344C440.285 208.344 442.542 206.092 442.542 203.314C442.542 200.536 440.285 198.284 437.5 198.284C434.716 198.284 432.459 200.536 432.459 203.314C432.459 206.092 434.716 208.344 437.5 208.344Z" fill="url(#paint10_linear)"/>
<path d="M481.195 288.83C481.195 279.569 473.671 272.062 464.389 272.062C455.108 272.062 447.584 279.569 447.584 288.83H481.195Z" fill="url(#paint11_linear)"/>
<path d="M467.987 211.765C467.785 212.201 467.55 212.604 467.314 213.006C464.155 218.54 459.18 222.765 453.097 225.381C448.425 227.393 443.114 228.466 437.501 228.466C431.888 228.466 426.578 227.393 421.906 225.381C415.822 222.765 410.848 218.54 407.688 213.006C408.293 211.799 409.033 210.592 409.806 209.485C413.738 214.549 419.385 218.204 426.006 220.183C429.603 221.222 433.468 221.759 437.501 221.759C441.535 221.759 445.4 221.222 448.996 220.183C455.618 218.204 461.264 214.549 465.197 209.485C465.331 209.284 465.499 209.083 465.634 208.881L467.987 211.765Z" fill="url(#paint12_linear)"/>
<path opacity="0.05" d="M450.944 258.648V262.001C450.944 269.413 444.928 275.416 437.5 275.416C433.803 275.416 430.441 273.907 427.988 271.492C425.568 269.044 424.055 265.69 424.055 262.001V258.648C424.055 262.337 425.568 265.69 427.988 268.138C430.441 270.553 433.803 272.062 437.5 272.062C444.928 272.062 450.944 266.059 450.944 258.648Z" fill="black"/>
<path opacity="0.5" d="M450.944 248.587V258.648C450.944 266.059 444.928 272.062 437.5 272.062C433.803 272.062 430.441 270.553 427.988 268.139C425.568 265.691 424.055 262.337 424.055 258.648V248.587C424.055 241.176 430.072 235.173 437.5 235.173C444.928 235.173 450.944 241.176 450.944 248.587Z" fill="white"/>
<path d="M481.194 288.83H474.472C474.472 280.715 468.691 273.974 461.061 272.398C462.136 272.163 463.246 272.062 464.388 272.062C473.665 272.062 481.194 279.574 481.194 288.83Z" fill="url(#paint13_linear)"/>
<path d="M427.417 288.83H420.694C420.694 280.715 414.913 273.974 407.284 272.398C408.359 272.163 409.468 272.062 410.611 272.062C419.888 272.062 427.417 279.574 427.417 288.83Z" fill="url(#paint14_linear)"/>
</g>
<path d="M85.7636 119.939L69.6088 168.389L32.499 158.962C21.4202 156.148 9.65506 162.218 6.21984 172.52C2.78462 182.823 8.98056 193.455 20.0593 196.269L56.1661 205.441L76.2255 210.537C87.3043 213.351 100.056 207.586 103.491 197.284L125.882 130.13C129.317 119.828 123.122 109.195 112.043 106.381C100.964 103.567 89.1988 109.637 85.7636 119.939Z" fill="url(#paint15_linear)"/>
<path opacity="0.1" d="M85.4891 119.46L70.8305 168.474L32.8235 159.197C21.7055 156.531 9.23783 162.5 5.95806 172.849C2.67829 183.198 9.82875 194.006 20.9468 196.673L57.1815 205.365L77.3119 210.193C88.4299 212.86 101.092 206.923 104.372 196.574L125.75 129.117C129.03 118.768 122.676 108.218 111.558 105.551C100.44 102.884 88.7689 109.111 85.4891 119.46Z" fill="#020202"/>
<path d="M245.595 291.565H241.521C239.27 291.565 237.391 288.786 237.391 286.589V259.721H237.446V71.6473C237.446 61.551 235.167 51.9781 231.107 43.3705C237.375 39.0478 241.517 31.9487 241.517 23.8824C241.517 10.6934 230.567 0 217.067 0C208.798 0 201.501 4.02419 197.078 10.162C189.151 6.59951 180.424 4.46004 171.23 4.06798C170.974 4.05603 170.715 4.04409 170.458 4.03414C170.13 4.02419 169.809 3.99832 169.481 3.99235C169.036 3.98439 168.598 4.00628 168.156 4.00827C167.714 4.00827 167.276 3.98439 166.832 3.99235C166.504 3.99832 166.18 4.02419 165.854 4.03414C165.596 4.04409 165.339 4.05404 165.082 4.06798C155.887 4.46004 147.159 6.59951 139.235 10.162C134.808 4.02419 127.511 0 119.242 0C105.742 0 94.7922 10.6934 94.7922 23.8824C94.7922 31.9487 98.9337 39.0498 105.202 43.3705C101.142 51.9761 98.8624 61.551 98.8624 71.6473V259.721H98.9174V286.589C98.9174 288.786 97.0392 291.565 94.7881 291.565H90.7138C77.2135 291.565 66.2679 302.258 66.2679 315.447C66.2679 319.844 69.9164 323.408 74.4165 323.408H135.878C140.186 323.408 143.735 319 143.735 314.79V262.707C143.735 260.508 145.505 259.721 147.754 259.721H188.555C190.804 259.721 192.574 260.508 192.574 262.707V314.79C192.574 319 196.123 323.408 200.431 323.408H261.892C266.392 323.408 270.041 319.844 270.041 315.447C270.041 302.258 259.095 291.565 245.595 291.565Z" fill="url(#paint16_linear)"/>
<path opacity="0.3" d="M144.298 69.8943C148.798 69.8943 152.447 66.3301 152.447 61.9335C152.447 57.5368 148.798 53.9727 144.298 53.9727C139.798 53.9727 136.149 57.5368 136.149 61.9335C136.149 66.3301 139.798 69.8943 144.298 69.8943Z" fill="black"/>
<path opacity="0.3" d="M156.577 43.0307C156.577 45.2299 154.754 47.0111 152.503 47.0111H136.205C133.954 47.0111 132.131 45.2299 132.131 43.0307C132.131 40.8315 133.954 39.0503 136.205 39.0503H152.503C154.754 39.0503 156.577 40.8315 156.577 43.0307Z" fill="black"/>
<path opacity="0.3" d="M193.309 69.8943C197.81 69.8943 201.458 66.3301 201.458 61.9335C201.458 57.5368 197.81 53.9727 193.309 53.9727C188.809 53.9727 185.161 57.5368 185.161 61.9335C185.161 66.3301 188.809 69.8943 193.309 69.8943Z" fill="black"/>
<path opacity="0.3" d="M181.024 43.0307C181.024 40.8315 182.847 39.0503 185.098 39.0503H201.395C203.646 39.0503 205.47 40.8315 205.47 43.0307C205.47 45.2299 203.646 47.0111 201.395 47.0111H185.098C182.847 47.0111 181.024 45.2299 181.024 43.0307Z" fill="black"/>
<path opacity="0.3" d="M179.817 79.8516L168.808 79.8695L157.799 79.8516C155.976 79.8496 154.503 81.5054 154.945 83.2309C156.494 89.2891 162.697 93.777 168.808 93.777C174.92 93.777 181.123 89.2891 182.671 83.2309C183.113 81.5054 181.64 79.8496 179.817 79.8516Z" fill="black"/>
<path d="M129.43 14.7718C122.87 19.3493 117.126 25.0811 112.44 31.6089C109.507 29.4595 107.632 25.9966 107.632 22.1356C107.632 15.5281 113.092 10.1943 119.855 10.1943C123.767 10.1943 127.23 11.9855 129.43 14.7718Z" fill="url(#paint17_linear)"/>
<path d="M217.034 10.1943C223.798 10.1943 229.257 15.5281 229.257 22.1356C229.257 25.9966 227.383 29.4595 224.45 31.6089C219.764 25.0811 214.019 19.3493 207.46 14.7718C209.66 11.9855 213.123 10.1943 217.034 10.1943Z" fill="url(#paint18_linear)"/>
<path d="M288.628 158.393H247.94V121.574C247.94 110.582 238.819 101.672 227.568 101.672C216.317 101.672 207.197 110.582 207.197 121.574V157.398V177.3C207.197 188.291 216.262 198.197 227.513 198.197H288.628C299.879 198.197 309 189.287 309 178.295C309 167.303 299.879 158.393 288.628 158.393Z" fill="url(#paint19_linear)"/>
<path opacity="0.1" d="M288.622 158.393H247.932V121.574C247.932 110.582 238.812 101.672 227.56 101.672C216.309 101.672 207.189 110.582 207.189 121.574V157.398V177.3C207.189 188.291 216.256 198.197 227.507 198.197H288.622C299.873 198.197 308.994 189.287 308.994 178.295C308.994 167.303 299.873 158.393 288.622 158.393Z" fill="#020202"/>
<path d="M460.616 116.419C458.651 114.755 455.764 112.089 452.677 108.52C452.095 107.838 451.514 107.137 450.932 106.395C450.01 105.232 449.088 103.989 448.186 102.686C447.885 102.265 447.584 101.804 447.303 101.363C446.702 100.46 446.141 99.518 445.579 98.5557C445.299 98.0745 445.018 97.5933 444.757 97.0921C444.476 96.5909 444.216 96.0896 443.955 95.5684C443.434 94.5258 442.933 93.4632 442.472 92.3605C442.171 91.6989 441.91 91.0172 441.65 90.3155C441.429 89.7341 441.229 89.1527 441.048 88.5712C440.868 88.07 440.707 87.5688 440.567 87.0475C440.407 86.5663 440.266 86.0851 440.146 85.5839C439.925 84.7218 439.705 83.8396 439.544 82.9575C439.444 82.4964 439.344 82.0352 439.264 81.5741C439.123 80.6117 438.983 79.6293 438.883 78.6469C438.823 78.2459 438.803 77.845 438.783 77.4239C438.742 77.0631 438.722 76.7022 438.702 76.3413C438.582 73.7349 438.682 71.0483 439.043 68.2815C443.053 38.2079 461.097 32.1932 483.151 36.203C483.933 36.3433 484.675 36.5238 485.417 36.7644C490.108 38.3081 493.797 41.7566 496.684 46.1874C506.127 60.5827 507.21 85.3634 507.21 88.3306C507.21 92.3405 508.213 98.6158 515.23 100.36C523.249 102.365 527.259 92.3405 527.259 82.3159C527.259 66.2766 533.324 55.9263 547.308 58.257C559.338 60.2619 559.338 78.3061 559.338 78.3061L557.333 170.532C557.333 170.532 547.308 214.641 531.269 234.69C515.23 254.739 523.249 268.775 523.249 268.775H485.157C479.255 253.738 463.215 249.728 449.069 236.696C435.034 224.667 424.136 202.613 422.131 190.583C417.756 174.544 426.141 156.5 446.19 156.5C457.424 156.5 472.237 161.512 476.247 153.492C477.216 151.049 476.469 145.491 475.99 142.756C473.128 126.425 462.14 117.724 460.616 116.419Z" fill="url(#paint20_linear)"/>
<path d="M460.616 116.419C458.651 114.755 455.764 112.089 452.677 108.52C452.095 107.838 451.514 107.137 450.932 106.395C450.01 105.232 449.088 103.989 448.186 102.686C447.885 102.265 447.584 101.804 447.303 101.363C446.702 100.46 446.141 99.518 445.579 98.5557C445.299 98.0745 445.018 97.5933 444.757 97.0921C444.476 96.5909 444.216 96.0896 443.955 95.5684C443.434 94.5258 442.933 93.4632 442.472 92.3605C442.171 91.6989 441.91 91.0172 441.65 90.3155C441.429 89.7341 441.229 89.1527 441.048 88.5712C440.868 88.07 440.707 87.5688 440.567 87.0475C440.407 86.5663 440.266 86.0851 440.146 85.5839C439.925 84.7218 439.705 83.8396 439.544 82.9575C439.444 82.4964 439.344 82.0352 439.264 81.5741C439.123 80.6117 438.983 79.6293 438.883 78.6469C438.823 78.2459 438.803 77.845 438.783 77.4239C438.742 77.0631 438.722 76.7022 438.702 76.3413C438.582 73.7349 438.682 71.0483 439.043 68.2815C443.053 38.2079 461.097 32.1932 483.151 36.203C483.933 36.3433 484.675 36.5238 485.417 36.7644C490.108 38.3081 493.797 41.7566 496.684 46.1874C506.127 60.5827 507.21 85.3634 507.21 88.3306C507.21 92.3405 508.213 98.6158 515.23 100.36C523.249 102.365 527.259 92.3405 527.259 82.3159C527.259 66.2766 533.324 55.9263 547.308 58.257C559.338 60.2619 559.338 78.3061 559.338 78.3061L557.333 170.532C557.333 170.532 547.308 214.641 531.269 234.69C515.23 254.739 523.249 268.775 523.249 268.775H485.157C479.255 253.738 463.215 249.728 449.069 236.696C435.034 224.667 424.136 202.613 422.131 190.583C417.756 174.544 426.141 156.5 446.19 156.5C457.424 156.5 472.237 161.512 476.247 153.492C477.216 151.049 476.469 145.491 475.99 142.756C473.128 126.425 462.14 117.724 460.616 116.419Z" fill="url(#paint21_linear)"/>
<path d="M513.338 146.473C513.338 146.473 481.321 168.258 497.242 258.748C497.242 266.768 494.604 267.253 491.406 267.906C489.191 268.358 487.161 268.774 487.161 268.774H513.338V146.473Z" fill="url(#paint22_linear)"/>
<path d="M535.597 107.429C535.074 107.257 534.506 107.538 534.328 108.064C525.587 134.29 510.973 146.579 507.236 150.936C504.817 146.492 502.296 141.943 499.674 137.225C485.88 112.404 471.619 86.7405 470.115 70.198C470.066 69.6437 469.528 69.2547 469.027 69.2898C468.474 69.3409 468.069 69.8281 468.118 70.3785C469.661 87.344 484.028 113.198 497.921 138.199C502.358 146.183 506.547 153.723 510.331 160.973C525.528 190.101 516.231 226.919 507.645 249.528C505.824 240.854 498.766 215.535 475.783 195.836C475.368 195.476 474.734 195.526 474.37 195.945C474.01 196.364 474.058 196.999 474.479 197.358C501.907 220.869 506.176 252.543 506.215 252.859C506.223 252.925 506.254 252.983 506.274 253.044V253.045C502.102 263.439 498.432 270.085 498.316 270.287C498.045 270.768 498.216 271.382 498.698 271.651C498.853 271.74 499.023 271.781 499.189 271.781C499.54 271.781 499.879 271.596 500.063 271.269C500.427 270.623 536.139 206.106 512.108 160.044C510.87 157.671 509.576 155.255 508.257 152.817C510.806 149.908 526.919 136.623 536.229 108.698C536.406 108.173 536.121 107.606 535.597 107.429Z" fill="#1B8C44"/>
<path d="M531.582 268.775C528.775 264.765 530.726 261.83 535.278 260.754C555.095 256.074 584.255 244.973 585.401 234.69C585.554 233.309 586.043 228.919 583.396 226.671C580.074 223.849 574.109 226.351 573.371 226.671C570.662 228.026 567.405 227.797 564.957 226.012C564.363 225.579 563.803 225.123 563.347 224.666C561.342 222.661 561.342 216.646 569.361 212.636C577.381 208.626 601.44 206.621 619.484 194.592C637.528 182.563 637.528 170.533 623.494 170.533C616.869 171.638 612.068 173.35 609.091 174.665C606.865 175.649 604.242 174.755 603.071 172.622C603.042 172.568 603.012 172.514 602.983 172.461C601.848 170.371 602.452 167.768 604.378 166.372C607.742 163.932 613.796 159.623 621.489 154.494C621.489 154.494 641.538 142.464 645.548 116.401C648.631 96.3564 635.114 88.1694 628.707 85.4567C626.677 84.5976 624.506 84.1726 622.303 84.1465C614.086 84.0503 592.641 86.1595 589.411 110.385C585.402 140.458 573.372 138.454 569.362 130.434C565.353 122.414 557.333 106.375 557.333 106.375C557.333 106.375 551.318 94.3455 537.284 102.365C527.134 108.165 539.289 142.463 539.289 142.463C539.289 142.463 547.308 168.527 535.279 172.537C523.249 176.547 525.254 156.498 525.254 156.498C525.254 156.498 527.259 140.458 513.225 146.473C499.191 152.488 487.161 192.587 497.186 240.705C505.205 268.774 497.186 268.775 497.186 268.775H529.264H531.582Z" fill="url(#paint23_linear)"/>
<path d="M645.549 116.4C643.364 130.554 636.467 140.579 630.592 146.774C634.362 141.02 637.69 133.662 639.093 124.6C643.103 98.5358 619.044 92.521 619.044 92.521C619.044 92.521 603.406 90.5562 592.599 99.6385C599.855 85.1901 616.186 84.0112 622.72 84.1526C624.65 84.1947 626.549 84.5716 628.336 85.3014C634.575 87.8506 648.694 95.9595 645.549 116.4Z" fill="url(#paint24_linear)"/>
<path d="M614.435 120.687C614.587 120.155 614.28 119.598 613.747 119.448C613.209 119.284 612.658 119.604 612.508 120.136C609.195 131.729 591.972 155.852 564.25 183.295C563.764 175.301 561.377 142.775 554.158 131.948C553.848 131.485 553.224 131.426 552.768 131.732C552.308 132.04 552.182 132.788 552.49 133.248C560.265 144.909 562.326 184.722 562.348 185.121C562.348 185.121 562.355 185.147 562.356 185.159C557.427 189.982 552.189 194.897 546.642 199.861C537.78 207.789 530.982 215.853 525.737 223.57C523.879 220.64 516.233 207.32 516.233 186.574C516.233 186.02 515.785 185.572 515.231 185.572C514.676 185.572 514.228 186.02 514.228 186.574C514.228 206.634 521.685 220.858 524.476 225.442C508.464 249.987 508.214 270.506 508.214 270.781C508.214 271.335 508.662 271.783 509.216 271.783C509.768 271.783 510.219 271.335 510.219 270.781C510.219 270.549 510.431 255.355 520.831 235.585C520.908 235.62 520.979 235.664 521.065 235.679C521.244 235.71 535.481 238.255 552.394 238.255C556.636 238.255 561.046 238.095 565.444 237.695C565.996 237.643 566.403 237.156 566.352 236.606C566.303 236.054 565.761 235.653 565.263 235.698C545.163 237.531 524.807 234.281 521.813 233.772C527.406 223.61 535.68 212.359 547.977 201.356C551.712 198.014 555.307 194.693 558.766 191.404C558.877 191.481 559.002 191.539 559.142 191.567C559.243 191.587 564.333 192.565 573.104 192.565C581.989 192.565 594.647 191.561 609.719 187.543C610.253 187.399 610.573 186.85 610.43 186.315C610.287 185.782 609.742 185.465 609.202 185.604C583.35 192.499 564.785 190.402 560.485 189.757C591.488 159.989 610.85 133.231 614.435 120.687Z" fill="#1B8C44"/>
<path d="M496.684 46.1874C495 45.2451 493.176 44.5835 491.171 44.2226C469.117 40.2128 451.073 46.2275 447.063 76.3012C444.757 93.6637 453.118 107.678 460.616 116.419C458.651 114.755 455.764 112.089 452.677 108.52C452.115 107.838 451.514 107.137 450.932 106.395C450.01 105.232 449.088 103.989 448.186 102.686C447.885 102.265 447.584 101.804 447.303 101.363C446.702 100.46 446.141 99.518 445.579 98.5557C445.299 98.0745 445.018 97.5933 444.757 97.0921C444.476 96.5909 444.216 96.0896 443.955 95.5684C443.434 94.5258 442.933 93.4632 442.472 92.3605C442.171 91.6989 441.91 91.0172 441.65 90.3155C441.429 89.7341 441.229 89.1527 441.048 88.5712C440.868 88.07 440.707 87.5688 440.567 87.0475C440.407 86.5663 440.266 86.0851 440.146 85.5839C439.925 84.7218 439.705 83.8396 439.544 82.9575C439.444 82.4964 439.344 82.0352 439.264 81.5741C439.123 80.6117 438.983 79.6293 438.883 78.6469C438.823 78.2459 438.803 77.845 438.783 77.4239C438.742 77.0631 438.722 76.7022 438.702 76.3413C438.582 73.7349 438.682 71.0483 439.043 68.2815C443.053 38.2079 461.097 32.1932 483.151 36.203C483.933 36.3433 484.675 36.5238 485.417 36.7644C490.108 38.3081 493.797 41.7566 496.684 46.1874Z" fill="url(#paint25_linear)"/>
<path d="M536.803 171.855C542.757 163.895 536.843 144.648 536.843 144.648C536.843 144.648 524.673 110.344 534.838 104.55C534.978 104.47 535.118 104.39 535.239 104.33C529.044 113.552 539.289 142.463 539.289 142.463C539.289 142.463 546.587 166.181 536.803 171.855Z" fill="url(#paint26_linear)"/>
<path d="M531.381 322.907H491.284C484.641 322.907 479.255 317.521 479.255 310.877V276.794H543.412V310.876C543.412 317.521 538.026 322.907 531.381 322.907Z" fill="url(#paint27_linear)"/>
<path d="M543.411 280.804H479.255C477.04 280.804 475.245 279.008 475.245 276.794V272.784C475.245 270.57 477.04 268.774 479.255 268.774H543.299C545.567 268.774 547.422 270.629 547.422 272.897V276.793C547.422 279.007 545.625 280.804 543.411 280.804Z" fill="url(#paint28_linear)"/>
<path d="M543.412 280.804H479.255V284.814H543.412V280.804Z" fill="url(#paint29_linear)"/>
<path d="M543.412 280.804V310.877C543.412 317.513 537.906 322.907 531.27 322.907H523.25C529.887 322.907 535.392 317.513 535.392 310.877V280.804H543.412Z" fill="url(#paint30_linear)"/>
<path d="M461.085 157.878C458.901 156.43 432.139 150.485 423.242 171.286C415.005 190.544 433.518 217.775 433.518 217.775C433.518 217.775 426.125 189.581 434.144 173.541C442.164 157.502 461.085 157.878 461.085 157.878Z" fill="url(#paint31_linear)"/>
<defs>
<linearGradient id="paint0_linear" x1="376.58" y1="241.879" x2="500.103" y2="241.879" gradientUnits="userSpaceOnUse">
<stop stop-color="#BBE2FF"/>
<stop offset="0.5013" stop-color="#ADDDFF"/>
<stop offset="1" stop-color="#A4DAFF"/>
</linearGradient>
<linearGradient id="paint1_linear" x1="481.814" y1="123.687" x2="453.974" y2="171.679" gradientUnits="userSpaceOnUse">
<stop stop-color="#E1F3FF"/>
<stop offset="0.2432" stop-color="#D8EFFF"/>
<stop offset="0.6383" stop-color="#C0E5FF"/>
<stop offset="1" stop-color="#A4DAFF"/>
</linearGradient>
<linearGradient id="paint2_linear" x1="454.45" y1="167.748" x2="477.693" y2="131.021" gradientUnits="userSpaceOnUse">
<stop stop-color="#3061E5" stop-opacity="0"/>
<stop offset="1" stop-color="#005FE0" stop-opacity="0.15"/>
</linearGradient>
<linearGradient id="paint3_linear" x1="447.584" y1="280.446" x2="481.195" y2="280.446" gradientUnits="userSpaceOnUse">
<stop stop-color="#E1F3FF"/>
<stop offset="0.0953" stop-color="#DCF1FF"/>
<stop offset="0.6555" stop-color="#C4E6FF"/>
<stop offset="1" stop-color="#BBE2FF"/>
</linearGradient>
<linearGradient id="paint4_linear" x1="393.805" y1="280.446" x2="427.416" y2="280.446" gradientUnits="userSpaceOnUse">
<stop stop-color="#E1F3FF"/>
<stop offset="0.1244" stop-color="#D4EDFF"/>
<stop offset="0.3309" stop-color="#C6E7FF"/>
<stop offset="0.5822" stop-color="#BEE3FF"/>
<stop offset="1" stop-color="#BBE2FF"/>
</linearGradient>
<linearGradient id="paint5_linear" x1="396.672" y1="123.687" x2="424.511" y2="171.679" gradientUnits="userSpaceOnUse">
<stop stop-color="#E1F3FF"/>
<stop offset="0.2432" stop-color="#D8EFFF"/>
<stop offset="0.6383" stop-color="#C0E5FF"/>
<stop offset="1" stop-color="#A4DAFF"/>
</linearGradient>
<linearGradient id="paint6_linear" x1="424.034" y1="167.748" x2="400.791" y2="131.021" gradientUnits="userSpaceOnUse">
<stop stop-color="#3061E5" stop-opacity="0"/>
<stop offset="1" stop-color="#005FE0" stop-opacity="0.15"/>
</linearGradient>
<linearGradient id="paint7_linear" x1="403.889" y1="189.899" x2="471.111" y2="189.899" gradientUnits="userSpaceOnUse">
<stop stop-color="#E1F3FF"/>
<stop offset="0.0953" stop-color="#DCF1FF"/>
<stop offset="0.6555" stop-color="#C4E6FF"/>
<stop offset="1" stop-color="#BBE2FF"/>
</linearGradient>
<linearGradient id="paint8_linear" x1="450.945" y1="188.083" x2="450.945" y2="195.222" gradientUnits="userSpaceOnUse">
<stop stop-color="#4C4B4B"/>
<stop offset="1" stop-color="#3A3838"/>
</linearGradient>
<linearGradient id="paint9_linear" x1="424.056" y1="188.083" x2="424.056" y2="195.222" gradientUnits="userSpaceOnUse">
<stop stop-color="#4C4B4B"/>
<stop offset="1" stop-color="#3A3838"/>
</linearGradient>
<linearGradient id="paint10_linear" x1="432.459" y1="203.313" x2="442.542" y2="203.313" gradientUnits="userSpaceOnUse">
<stop stop-color="#9AC6E8"/>
<stop offset="0.1952" stop-color="#9AC3E8"/>
<stop offset="1" stop-color="#9ABAE8"/>
</linearGradient>
<linearGradient id="paint11_linear" x1="447.584" y1="280.446" x2="481.195" y2="280.446" gradientUnits="userSpaceOnUse">
<stop stop-color="#E1F3FF"/>
<stop offset="0.1244" stop-color="#D4EDFF"/>
<stop offset="0.3309" stop-color="#C6E7FF"/>
<stop offset="0.5822" stop-color="#BEE3FF"/>
<stop offset="1" stop-color="#BBE2FF"/>
</linearGradient>
<linearGradient id="paint12_linear" x1="407.688" y1="218.673" x2="467.987" y2="218.673" gradientUnits="userSpaceOnUse">
<stop stop-color="#3061E5" stop-opacity="0"/>
<stop offset="1" stop-color="#005FE0" stop-opacity="0.1"/>
</linearGradient>
<linearGradient id="paint13_linear" x1="471.127" y1="271.433" x2="471.127" y2="289.396" gradientUnits="userSpaceOnUse">
<stop stop-color="#3061E5" stop-opacity="0"/>
<stop offset="0.29" stop-color="#2761E4" stop-opacity="0.0377"/>
<stop offset="0.7616" stop-color="#0F60E2" stop-opacity="0.099"/>
<stop offset="1" stop-color="#005FE0" stop-opacity="0.13"/>
</linearGradient>
<linearGradient id="paint14_linear" x1="417.35" y1="271.433" x2="417.35" y2="289.396" gradientUnits="userSpaceOnUse">
<stop stop-color="#3061E5" stop-opacity="0"/>
<stop offset="0.29" stop-color="#2761E4" stop-opacity="0.0377"/>
<stop offset="0.7616" stop-color="#0F60E2" stop-opacity="0.099"/>
<stop offset="1" stop-color="#005FE0" stop-opacity="0.13"/>
</linearGradient>
<linearGradient id="paint15_linear" x1="17.4072" y1="138.969" x2="107.778" y2="169.102" gradientUnits="userSpaceOnUse">
<stop stop-color="#DE784F"/>
<stop offset="1" stop-color="#D16B4D"/>
</linearGradient>
<linearGradient id="paint16_linear" x1="168.154" y1="324.757" x2="168.154" y2="0" gradientUnits="userSpaceOnUse">
<stop stop-color="#B95F4B"/>
<stop offset="1" stop-color="#DB8A4D"/>
</linearGradient>
<linearGradient id="paint17_linear" x1="110.075" y1="12.5939" x2="122.75" y2="25.5685" gradientUnits="userSpaceOnUse">
<stop stop-opacity="0.12"/>
<stop offset="1" stop-color="#302926" stop-opacity="0.02"/>
</linearGradient>
<linearGradient id="paint18_linear" x1="226.815" y1="12.5939" x2="214.14" y2="25.5685" gradientUnits="userSpaceOnUse">
<stop stop-opacity="0.12"/>
<stop offset="1" stop-color="#302926" stop-opacity="0.02"/>
</linearGradient>
<linearGradient id="paint19_linear" x1="258.098" y1="101.672" x2="258.098" y2="193.523" gradientUnits="userSpaceOnUse">
<stop stop-color="#DE784F"/>
<stop offset="1" stop-color="#D16B4D"/>
</linearGradient>
<linearGradient id="paint20_linear" x1="421" y1="151.934" x2="559.338" y2="151.934" gradientUnits="userSpaceOnUse">
<stop stop-color="#B6DD54"/>
<stop offset="0.1433" stop-color="#B2DC54"/>
<stop offset="0.2918" stop-color="#A5D753"/>
<stop offset="0.4428" stop-color="#91D051"/>
<stop offset="0.5954" stop-color="#74C64F"/>
<stop offset="0.7494" stop-color="#4EB94D"/>
<stop offset="0.9024" stop-color="#21A949"/>
<stop offset="1" stop-color="#009E47"/>
</linearGradient>
<linearGradient id="paint21_linear" x1="421" y1="151.934" x2="559.338" y2="151.934" gradientUnits="userSpaceOnUse">
<stop stop-color="#B6DD54"/>
<stop offset="0.1433" stop-color="#B2DC54"/>
<stop offset="0.2918" stop-color="#A5D753"/>
<stop offset="0.4428" stop-color="#91D051"/>
<stop offset="0.5954" stop-color="#74C64F"/>
<stop offset="0.7494" stop-color="#4EB94D"/>
<stop offset="0.9024" stop-color="#21A949"/>
<stop offset="1" stop-color="#009E47"/>
</linearGradient>
<linearGradient id="paint22_linear" x1="500.249" y1="141.962" x2="500.249" y2="270.095" gradientUnits="userSpaceOnUse">
<stop stop-color="#302926" stop-opacity="0.05"/>
<stop offset="0.2844" stop-color="#2C2523" stop-opacity="0.0784"/>
<stop offset="0.579" stop-color="#1F1B19" stop-opacity="0.1079"/>
<stop offset="0.8773" stop-color="#0B0909" stop-opacity="0.1377"/>
<stop offset="1" stop-opacity="0.15"/>
</linearGradient>
<linearGradient id="paint23_linear" x1="493.486" y1="176.459" x2="645.998" y2="176.459" gradientUnits="userSpaceOnUse">
<stop stop-color="#00E35E"/>
<stop offset="1" stop-color="#00B248"/>
</linearGradient>
<linearGradient id="paint24_linear" x1="663.593" y1="115.458" x2="589.411" y2="115.458" gradientUnits="userSpaceOnUse">
<stop stop-color="#FFFFED" stop-opacity="0"/>
<stop offset="0.4031" stop-color="#FFFFF6" stop-opacity="0.0806"/>
<stop offset="1" stop-color="white" stop-opacity="0.2"/>
</linearGradient>
<linearGradient id="paint25_linear" x1="507.004" y1="75.7561" x2="435.713" y2="75.7561" gradientUnits="userSpaceOnUse">
<stop stop-color="#FFFFED" stop-opacity="0"/>
<stop offset="0.366" stop-color="#FFFFF5" stop-opacity="0.0732"/>
<stop offset="1" stop-color="white" stop-opacity="0.2"/>
</linearGradient>
<linearGradient id="paint26_linear" x1="536.345" y1="101.195" x2="536.345" y2="171.406" gradientUnits="userSpaceOnUse">
<stop stop-color="#302926" stop-opacity="0.05"/>
<stop offset="0.2844" stop-color="#2C2523" stop-opacity="0.0784"/>
<stop offset="0.579" stop-color="#1F1B19" stop-opacity="0.1079"/>
<stop offset="0.8773" stop-color="#0B0909" stop-opacity="0.1377"/>
<stop offset="1" stop-opacity="0.15"/>
</linearGradient>
<linearGradient id="paint27_linear" x1="545.283" y1="299.85" x2="478.72" y2="299.85" gradientUnits="userSpaceOnUse">
<stop stop-color="#7C483E"/>
<stop offset="1" stop-color="#896257"/>
</linearGradient>
<linearGradient id="paint28_linear" x1="549.527" y1="274.789" x2="474.643" y2="274.789" gradientUnits="userSpaceOnUse">
<stop stop-color="#B16464"/>
<stop offset="0.59" stop-color="#9C6764"/>
<stop offset="1" stop-color="#936864"/>
</linearGradient>
<linearGradient id="paint29_linear" x1="511.333" y1="280.971" x2="511.333" y2="284.817" gradientUnits="userSpaceOnUse">
<stop stop-opacity="0.07"/>
<stop offset="1" stop-color="#302926" stop-opacity="0"/>
</linearGradient>
<linearGradient id="paint30_linear" x1="533.331" y1="323.659" x2="533.331" y2="280.026" gradientUnits="userSpaceOnUse">
<stop stop-opacity="0.15"/>
<stop offset="0.1227" stop-color="#0B0909" stop-opacity="0.1316"/>
<stop offset="0.421" stop-color="#1F1B19" stop-opacity="0.0868"/>
<stop offset="0.7156" stop-color="#2C2523" stop-opacity="0.0427"/>
<stop offset="1" stop-color="#302926" stop-opacity="0"/>
</linearGradient>
<linearGradient id="paint31_linear" x1="460.465" y1="193.957" x2="424.256" y2="177.065" gradientUnits="userSpaceOnUse">
<stop stop-color="#FFFFED" stop-opacity="0"/>
<stop offset="0.366" stop-color="#FFFFF5" stop-opacity="0.0732"/>
<stop offset="1" stop-color="white" stop-opacity="0.2"/>
</linearGradient>
<clipPath id="clip0">
<rect width="121" height="166" fill="white" transform="translate(377 123)"/>
</clipPath>
</defs>
</svg>
