<svg width="331" height="259" viewBox="0 0 331 259" fill="none" xmlns="http://www.w3.org/2000/svg">
<g clip-path="url(#clip0)">
<path d="M243.815 163.137L214.815 127.582C214.077 126.678 213.196 125.974 212.249 125.411C206.341 118.631 197.679 114.329 188 114.329C178.319 114.329 169.659 118.631 163.753 125.411C162.805 125.974 161.924 126.678 161.186 127.582L132.186 163.137C128.804 167.283 129.413 173.392 133.546 176.784C135.342 178.258 137.509 178.974 139.662 178.974C142.462 178.974 145.239 177.762 147.149 175.417L155.778 164.836V191.905C155.778 199.045 161.549 204.834 168.667 204.834H207.333C214.451 204.834 220.222 199.045 220.222 191.905V164.837L228.851 175.418C230.762 177.763 233.538 178.976 236.338 178.976C238.491 178.976 240.657 178.26 242.454 176.786C246.586 173.392 247.195 167.284 243.815 163.137Z" fill="url(#paint0_linear)"/>
<path d="M198.567 88.1082L209.729 94.5728L233.251 63.4261C237.382 57.9522 235.784 50.1057 229.857 46.673L229.834 46.7134C223.907 43.2807 216.369 45.755 213.709 52.0807L198.567 88.1082Z" fill="url(#paint1_linear)"/>
<path d="M202.967 86.926L208.548 90.1584L228.583 60.8186C230.547 57.9418 229.642 54.0162 226.631 52.2723L226.608 52.3127C223.597 50.5689 219.792 51.684 218.288 54.8291L202.967 86.926Z" fill="url(#paint2_linear)"/>
<path d="M229.889 204.836C229.889 195.91 222.676 188.674 213.778 188.674C204.88 188.674 197.667 195.91 197.667 204.836H229.889Z" fill="url(#paint3_linear)"/>
<path d="M178.333 204.836C178.333 195.91 171.12 188.674 162.221 188.674C153.323 188.674 146.11 195.91 146.11 204.836H178.333Z" fill="url(#paint4_linear)"/>
<path d="M180.775 88.1082L169.614 94.5728L146.091 63.4261C141.96 57.9522 143.559 50.1057 149.486 46.673L149.509 46.7134C155.436 43.2807 162.974 45.755 165.634 52.0807L180.775 88.1082Z" fill="url(#paint5_linear)"/>
<path d="M176.374 86.926L170.793 90.1584L150.757 60.8186C148.793 57.9418 149.698 54.0162 152.71 52.2723L152.732 52.3127C155.743 50.5689 159.549 51.684 161.052 54.8291L176.374 86.926Z" fill="url(#paint6_linear)"/>
<path opacity="0.05" d="M161.055 54.8127C159.555 51.6886 155.748 50.5702 152.735 52.3157L152.703 52.2591C149.688 54.0046 148.783 57.9254 150.747 60.8199L151.54 62.003C150.705 59.388 151.738 56.4013 154.25 54.9468C156.761 53.4923 159.858 54.0886 161.696 56.1201L161.055 54.8127Z" fill="black"/>
<path d="M220.222 111.095C220.222 128.947 205.796 140.186 188 140.186C170.203 140.186 155.777 128.947 155.777 111.095C155.777 93.2426 170.203 78.7715 188 78.7715C205.796 78.7715 220.222 93.2426 220.222 111.095Z" fill="url(#paint7_linear)"/>
<path d="M200.889 117.561C204.448 117.561 207.333 114.666 207.333 111.096C207.333 107.526 204.448 104.631 200.889 104.631C197.33 104.631 194.444 107.526 194.444 111.096C194.444 114.666 197.33 117.561 200.889 117.561Z" fill="white"/>
<path d="M175.111 117.561C178.671 117.561 181.556 114.666 181.556 111.096C181.556 107.526 178.671 104.631 175.111 104.631C171.552 104.631 168.667 107.526 168.667 111.096C168.667 114.666 171.552 117.561 175.111 117.561Z" fill="white"/>
<path opacity="0.05" d="M218.283 54.8127C219.783 51.6886 223.59 50.5702 226.603 52.3157L226.635 52.2591C229.649 54.0046 230.555 57.9254 228.591 60.8199L227.798 62.003C228.633 59.388 227.6 56.4013 225.088 54.9468C222.576 53.4923 219.48 54.0886 217.642 56.1201L218.283 54.8127Z" fill="black"/>
<path d="M200.889 114.33C202.669 114.33 204.111 112.883 204.111 111.098C204.111 109.312 202.669 107.865 200.889 107.865C199.11 107.865 197.667 109.312 197.667 111.098C197.667 112.883 199.11 114.33 200.889 114.33Z" fill="url(#paint8_linear)"/>
<path d="M175.112 114.33C176.891 114.33 178.334 112.883 178.334 111.098C178.334 109.312 176.891 107.865 175.112 107.865C173.332 107.865 171.89 109.312 171.89 111.098C171.89 112.883 173.332 114.33 175.112 114.33Z" fill="url(#paint9_linear)"/>
<path d="M188 127.257C190.67 127.257 192.834 125.087 192.834 122.409C192.834 119.731 190.67 117.561 188 117.561C185.331 117.561 183.167 119.731 183.167 122.409C183.167 125.087 185.331 127.257 188 127.257Z" fill="url(#paint10_linear)"/>
<path d="M229.889 204.836C229.889 195.91 222.676 188.674 213.778 188.674C204.88 188.674 197.667 195.91 197.667 204.836H229.889Z" fill="url(#paint11_linear)"/>
<path d="M217.227 130.555C217.033 130.975 216.808 131.363 216.582 131.751C213.553 137.084 208.784 141.157 202.952 143.678C198.473 145.618 193.382 146.652 188.001 146.652C182.62 146.652 177.529 145.618 173.05 143.678C167.218 141.157 162.449 137.084 159.42 131.751C160 130.588 160.709 129.424 161.45 128.357C165.22 133.238 170.633 136.761 176.981 138.668C180.429 139.67 184.134 140.188 188.001 140.188C191.868 140.188 195.573 139.67 199.021 138.668C205.369 136.761 210.782 133.238 214.552 128.357C214.681 128.163 214.842 127.969 214.971 127.775L217.227 130.555Z" fill="url(#paint12_linear)"/>
<path opacity="0.05" d="M200.888 175.745V178.977C200.888 186.12 195.12 191.906 187.999 191.906C184.455 191.906 181.233 190.452 178.88 188.124C176.56 185.765 175.11 182.533 175.11 178.977V175.745C175.11 179.3 176.56 182.533 178.88 184.892C181.233 187.219 184.455 188.674 187.999 188.674C195.12 188.674 200.888 182.888 200.888 175.745Z" fill="black"/>
<path opacity="0.5" d="M200.888 166.046V175.742C200.888 182.886 195.12 188.672 187.999 188.672C184.455 188.672 181.233 187.217 178.88 184.89C176.56 182.53 175.11 179.298 175.11 175.742V166.046C175.11 158.902 180.878 153.116 187.999 153.116C195.12 153.116 200.888 158.902 200.888 166.046Z" fill="white"/>
<path d="M229.888 204.836H223.444C223.444 197.014 217.901 190.517 210.587 188.998C211.618 188.771 212.681 188.674 213.777 188.674C222.67 188.674 229.888 195.915 229.888 204.836Z" fill="url(#paint13_linear)"/>
<path d="M178.333 204.836H171.889C171.889 197.014 166.347 190.517 159.032 188.998C160.063 188.771 161.127 188.674 162.222 188.674C171.116 188.674 178.333 195.915 178.333 204.836Z" fill="url(#paint14_linear)"/>
</g>
<path d="M281.667 153H257V71.7691C257 64.9999 262.55 59.4614 269.333 59.4614C276.117 59.4614 281.667 64.9999 281.667 71.7691V153Z" fill="url(#paint15_linear)"/>
<path d="M296.467 25C304.607 25 311.267 31.6462 311.267 39.7692V153H281.667V39.7692C281.667 31.6462 288.327 25 296.467 25Z" fill="url(#paint16_linear)"/>
<path d="M316.199 91.4614C324.339 91.4614 330.999 98.1076 330.999 106.231V153H301.399V106.231C301.399 98.1076 308.059 91.4614 316.199 91.4614Z" fill="url(#paint17_linear)"/>
<path d="M311.266 91.4614V92.323C306.332 94.2922 301.399 99.8307 301.399 106.231V153H296.466V106.231C296.466 98.1076 303.866 91.4614 311.266 91.4614Z" fill="url(#paint18_linear)"/>
<path d="M49.6667 258.27H0V94.5396C0 80.8954 11.175 69.7319 24.8333 69.7319C38.4917 69.7319 49.6667 80.8954 49.6667 94.5396V258.27Z" fill="url(#paint19_linear)"/>
<path d="M75.1984 0C91.5884 0 117 23 87.5 35V51.2695L104.998 62.5V258H45.3984V29.7692C45.3984 13.3962 58.8084 0 75.1984 0Z" fill="url(#paint20_linear)"/>
<path d="M119.2 134.232C135.59 134.232 149 147.628 149 164.001V258.27H89.4004V164.001C89.4004 147.628 102.81 134.232 119.2 134.232Z" fill="url(#paint21_linear)"/>
<path d="M109.267 134.232V135.968C99.3335 139.938 89.4001 151.101 89.4001 164.001V258.27H79.4668V164.001C79.4668 147.628 94.3668 134.232 109.267 134.232Z" fill="url(#paint22_linear)"/>
<defs>
<linearGradient id="paint0_linear" x1="129.597" y1="159.581" x2="248.016" y2="159.581" gradientUnits="userSpaceOnUse">
<stop stop-color="#BBE2FF"/>
<stop offset="0.5013" stop-color="#ADDDFF"/>
<stop offset="1" stop-color="#A4DAFF"/>
</linearGradient>
<linearGradient id="paint1_linear" x1="230.483" y1="45.6603" x2="203.579" y2="91.7917" gradientUnits="userSpaceOnUse">
<stop stop-color="#E1F3FF"/>
<stop offset="0.2432" stop-color="#D8EFFF"/>
<stop offset="0.6383" stop-color="#C0E5FF"/>
<stop offset="1" stop-color="#A4DAFF"/>
</linearGradient>
<linearGradient id="paint2_linear" x1="204.25" y1="88.1296" x2="226.704" y2="52.8396" gradientUnits="userSpaceOnUse">
<stop stop-color="#3061E5" stop-opacity="0"/>
<stop offset="1" stop-color="#005FE0" stop-opacity="0.15"/>
</linearGradient>
<linearGradient id="paint3_linear" x1="197.667" y1="196.754" x2="229.889" y2="196.754" gradientUnits="userSpaceOnUse">
<stop stop-color="#E1F3FF"/>
<stop offset="0.0953" stop-color="#DCF1FF"/>
<stop offset="0.6555" stop-color="#C4E6FF"/>
<stop offset="1" stop-color="#BBE2FF"/>
</linearGradient>
<linearGradient id="paint4_linear" x1="146.11" y1="196.754" x2="178.332" y2="196.754" gradientUnits="userSpaceOnUse">
<stop stop-color="#E1F3FF"/>
<stop offset="0.1244" stop-color="#D4EDFF"/>
<stop offset="0.3309" stop-color="#C6E7FF"/>
<stop offset="0.5822" stop-color="#BEE3FF"/>
<stop offset="1" stop-color="#BBE2FF"/>
</linearGradient>
<linearGradient id="paint5_linear" x1="148.859" y1="45.6603" x2="175.764" y2="91.7917" gradientUnits="userSpaceOnUse">
<stop stop-color="#E1F3FF"/>
<stop offset="0.2432" stop-color="#D8EFFF"/>
<stop offset="0.6383" stop-color="#C0E5FF"/>
<stop offset="1" stop-color="#A4DAFF"/>
</linearGradient>
<linearGradient id="paint6_linear" x1="175.09" y1="88.1296" x2="152.636" y2="52.8396" gradientUnits="userSpaceOnUse">
<stop stop-color="#3061E5" stop-opacity="0"/>
<stop offset="1" stop-color="#005FE0" stop-opacity="0.15"/>
</linearGradient>
<linearGradient id="paint7_linear" x1="155.777" y1="109.478" x2="220.222" y2="109.478" gradientUnits="userSpaceOnUse">
<stop stop-color="#E1F3FF"/>
<stop offset="0.0953" stop-color="#DCF1FF"/>
<stop offset="0.6555" stop-color="#C4E6FF"/>
<stop offset="1" stop-color="#BBE2FF"/>
</linearGradient>
<linearGradient id="paint8_linear" x1="200.889" y1="107.73" x2="200.889" y2="114.61" gradientUnits="userSpaceOnUse">
<stop stop-color="#4C4B4B"/>
<stop offset="1" stop-color="#3A3838"/>
</linearGradient>
<linearGradient id="paint9_linear" x1="175.112" y1="107.73" x2="175.112" y2="114.61" gradientUnits="userSpaceOnUse">
<stop stop-color="#4C4B4B"/>
<stop offset="1" stop-color="#3A3838"/>
</linearGradient>
<linearGradient id="paint10_linear" x1="183.167" y1="122.408" x2="192.833" y2="122.408" gradientUnits="userSpaceOnUse">
<stop stop-color="#9AC6E8"/>
<stop offset="0.1952" stop-color="#9AC3E8"/>
<stop offset="1" stop-color="#9ABAE8"/>
</linearGradient>
<linearGradient id="paint11_linear" x1="197.667" y1="196.754" x2="229.889" y2="196.754" gradientUnits="userSpaceOnUse">
<stop stop-color="#E1F3FF"/>
<stop offset="0.1244" stop-color="#D4EDFF"/>
<stop offset="0.3309" stop-color="#C6E7FF"/>
<stop offset="0.5822" stop-color="#BEE3FF"/>
<stop offset="1" stop-color="#BBE2FF"/>
</linearGradient>
<linearGradient id="paint12_linear" x1="159.42" y1="137.213" x2="217.227" y2="137.213" gradientUnits="userSpaceOnUse">
<stop stop-color="#3061E5" stop-opacity="0"/>
<stop offset="1" stop-color="#005FE0" stop-opacity="0.1"/>
</linearGradient>
<linearGradient id="paint13_linear" x1="220.237" y1="188.067" x2="220.237" y2="205.381" gradientUnits="userSpaceOnUse">
<stop stop-color="#3061E5" stop-opacity="0"/>
<stop offset="0.29" stop-color="#2761E4" stop-opacity="0.0377"/>
<stop offset="0.7616" stop-color="#0F60E2" stop-opacity="0.099"/>
<stop offset="1" stop-color="#005FE0" stop-opacity="0.13"/>
</linearGradient>
<linearGradient id="paint14_linear" x1="168.683" y1="188.067" x2="168.683" y2="205.381" gradientUnits="userSpaceOnUse">
<stop stop-color="#3061E5" stop-opacity="0"/>
<stop offset="0.29" stop-color="#2761E4" stop-opacity="0.0377"/>
<stop offset="0.7616" stop-color="#0F60E2" stop-opacity="0.099"/>
<stop offset="1" stop-color="#005FE0" stop-opacity="0.13"/>
</linearGradient>
<linearGradient id="paint15_linear" x1="269.333" y1="59.7683" x2="269.333" y2="153.307" gradientUnits="userSpaceOnUse">
<stop stop-color="#00E35E"/>
<stop offset="1" stop-color="#00B248"/>
</linearGradient>
<linearGradient id="paint16_linear" x1="296.467" y1="24.4663" x2="296.467" y2="153.159" gradientUnits="userSpaceOnUse">
<stop stop-color="#00E35E"/>
<stop offset="1" stop-color="#00A332"/>
</linearGradient>
<linearGradient id="paint17_linear" x1="316.199" y1="91.1529" x2="316.199" y2="153.93" gradientUnits="userSpaceOnUse">
<stop stop-color="#00E35E"/>
<stop offset="1" stop-color="#00B248"/>
</linearGradient>
<linearGradient id="paint18_linear" x1="303.866" y1="91.4602" x2="303.866" y2="153" gradientUnits="userSpaceOnUse">
<stop stop-color="#304F26" stop-opacity="0"/>
<stop offset="0.2844" stop-color="#2C4D23" stop-opacity="0.0569"/>
<stop offset="0.579" stop-color="#1F4719" stop-opacity="0.1158"/>
<stop offset="0.8773" stop-color="#0B3E09" stop-opacity="0.1755"/>
<stop offset="1" stop-color="#003900" stop-opacity="0.2"/>
</linearGradient>
<linearGradient id="paint19_linear" x1="24.8333" y1="70.3504" x2="24.8333" y2="258.889" gradientUnits="userSpaceOnUse">
<stop stop-color="#00E35E"/>
<stop offset="1" stop-color="#00B248"/>
</linearGradient>
<linearGradient id="paint20_linear" x1="79.466" y1="-0.798317" x2="79.466" y2="258.598" gradientUnits="userSpaceOnUse">
<stop stop-color="#00E35E"/>
<stop offset="1" stop-color="#00A332"/>
</linearGradient>
<linearGradient id="paint21_linear" x1="119.2" y1="133.61" x2="119.2" y2="260.145" gradientUnits="userSpaceOnUse">
<stop stop-color="#00E35E"/>
<stop offset="1" stop-color="#00B248"/>
</linearGradient>
<linearGradient id="paint22_linear" x1="94.3668" y1="134.229" x2="94.3668" y2="258.27" gradientUnits="userSpaceOnUse">
<stop stop-color="#304F26" stop-opacity="0"/>
<stop offset="0.2844" stop-color="#2C4D23" stop-opacity="0.0569"/>
<stop offset="0.579" stop-color="#1F4719" stop-opacity="0.1158"/>
<stop offset="0.8773" stop-color="#0B3E09" stop-opacity="0.1755"/>
<stop offset="1" stop-color="#003900" stop-opacity="0.2"/>
</linearGradient>
<clipPath id="clip0">
<rect width="116" height="160" fill="white" transform="translate(130 45)"/>
</clipPath>
</defs>
</svg>
