<svg width="537" height="554" viewBox="0 0 537 554" fill="none" xmlns="http://www.w3.org/2000/svg">
<circle cx="281.5" cy="298.5" r="255.5" fill="url(#paint0_linear)"/>
<path d="M187 81C187 74.925 183.963 69.6094 179.28 66.4453C176.242 64.4203 175.23 60.3703 176.748 57.0797C179.153 52.0172 179.153 45.8156 176.116 40.6266C173.078 35.3109 167.762 32.2734 162.194 31.8938C158.523 31.6406 155.613 28.6031 155.359 25.0594C154.98 19.4906 151.816 14.175 146.627 11.1375C141.438 8.1 135.236 8.1 130.173 10.5047C126.883 12.0234 122.833 11.0109 120.808 7.97344C117.391 3.0375 112.075 0 106 0C99.925 0 94.6094 3.0375 91.4453 7.72031C89.4203 10.7578 85.3703 11.7703 82.0797 10.2516C77.0172 7.84688 70.8156 7.84688 65.6266 10.8844C60.4375 13.9219 57.2734 19.2375 56.8938 24.8062C56.6406 28.4766 53.6031 31.3875 50.0594 31.6406C44.4906 32.0203 39.175 35.1844 36.1375 40.3734C33.1 45.5625 33.1 51.7641 35.5047 56.8266C37.0234 60.1172 36.0109 64.1672 32.9734 66.1922C28.0375 69.6094 25 74.925 25 81C25 87.075 28.0375 92.3906 32.7203 95.5547C35.7578 97.5797 36.7703 101.63 35.2516 104.92C32.8469 109.983 32.8469 116.184 35.8844 121.373C38.9219 126.562 44.2375 129.727 49.8062 130.106C53.4766 130.359 56.3875 133.397 56.6406 136.941C57.0203 142.509 60.1844 147.825 65.3734 150.863C70.6891 153.9 76.7641 153.9 81.8266 151.495C85.1172 149.977 89.1672 150.989 91.1922 154.027C94.3562 158.709 99.6719 161.747 105.747 161.747C111.822 161.747 117.138 158.709 120.302 154.027C122.327 150.989 126.377 149.977 129.667 151.495C134.73 153.9 140.931 153.9 146.12 150.863C151.436 147.825 154.473 142.509 154.853 136.941C155.106 133.27 158.144 130.359 161.688 130.106C167.256 129.727 172.572 126.562 175.609 121.373C178.647 116.184 178.647 109.983 176.242 104.92C174.723 101.63 175.736 97.5797 178.773 95.5547C183.962 92.3906 187 87.075 187 81Z" fill="url(#paint1_linear)"/>
<path d="M106 139.219C138.153 139.219 164.219 113.153 164.219 81C164.219 48.8467 138.153 22.7812 106 22.7812C73.8467 22.7812 47.7812 48.8467 47.7812 81C47.7812 113.153 73.8467 139.219 106 139.219Z" fill="url(#paint2_linear)"/>
<path d="M128.781 91.125C134.373 91.125 138.906 86.5919 138.906 81C138.906 75.4081 134.373 70.875 128.781 70.875C123.189 70.875 118.656 75.4081 118.656 81C118.656 86.5919 123.189 91.125 128.781 91.125Z" fill="white"/>
<path d="M83.2188 91.125C88.8106 91.125 93.3438 86.5919 93.3438 81C93.3438 75.4081 88.8106 70.875 83.2188 70.875C77.6269 70.875 73.0938 75.4081 73.0938 81C73.0938 86.5919 77.6269 91.125 83.2188 91.125Z" fill="white"/>
<path d="M133.844 80.7469V81C133.844 83.7844 131.566 86.0625 128.781 86.0625C125.997 86.0625 123.719 83.7844 123.719 81C123.719 78.2156 125.997 75.9375 128.781 75.9375H129.034C128.908 75.9375 128.781 76.6969 128.781 77.2031C128.781 79.3547 130.427 81 132.578 81C133.084 81 133.844 80.8734 133.844 80.7469Z" fill="url(#paint3_linear)"/>
<path d="M88.2812 80.7469V81C88.2812 83.7844 86.0031 86.0625 83.2188 86.0625C80.4344 86.0625 78.1562 83.7844 78.1562 81C78.1562 78.2156 80.4344 75.9375 83.2188 75.9375H83.4719C83.3453 75.9375 83.2188 76.6969 83.2188 77.2031C83.2188 79.3547 84.8641 81 87.0156 81C87.5219 81 88.2812 80.8734 88.2812 80.7469Z" fill="url(#paint4_linear)"/>
<path d="M90.8125 62.0156C90.8125 59.8641 89.1672 58.2188 87.0156 58.2188H74.3594C72.2078 58.2188 70.5625 59.8641 70.5625 62.0156C70.5625 64.1672 72.2078 65.8125 74.3594 65.8125H87.0156C89.1672 65.8125 90.8125 64.1672 90.8125 62.0156Z" fill="url(#paint5_linear)"/>
<path d="M138.906 62.0156C138.906 59.8641 137.261 58.2188 135.109 58.2188H122.453C120.302 58.2188 118.656 59.8641 118.656 62.0156C118.656 64.1672 120.302 65.8125 122.453 65.8125H135.109C137.261 65.8125 138.906 64.1672 138.906 62.0156Z" fill="url(#paint6_linear)"/>
<path opacity="0.2" d="M118.656 96.1875C118.656 100.491 116.505 104.288 113.214 106.692C111.062 108.084 108.658 108.844 106 108.844C103.342 108.844 100.937 108.084 98.7859 106.692C95.4953 104.288 93.3438 100.491 93.3438 96.1875H118.656Z" fill="#993E00"/>
<path d="M116.125 91.125H95.875C94.4828 91.125 93.3438 92.2641 93.3438 93.6562V96.1875H118.656V93.6562C118.656 92.2641 117.517 91.125 116.125 91.125Z" fill="white"/>
<path opacity="0.2" d="M113.214 106.692C111.063 108.084 108.658 108.844 106 108.844C103.342 108.844 100.938 108.084 98.7861 106.692C99.7986 104.414 102.583 103.781 106 103.781C109.417 103.781 112.202 104.288 113.214 106.692Z" fill="#993E00"/>
<path opacity="0.2" d="M90.8125 62.0156C90.8125 59.8641 89.1672 58.2188 87.0156 58.2188H74.3594C72.2078 58.2188 70.5625 59.8641 70.5625 62.0156C70.5625 64.1672 72.2078 65.8125 74.3594 65.8125H87.0156C89.1672 65.8125 90.8125 64.1672 90.8125 62.0156Z" fill="#993E00"/>
<path opacity="0.2" d="M138.906 62.0156C138.906 59.8641 137.261 58.2188 135.109 58.2188H122.453C120.302 58.2188 118.656 59.8641 118.656 62.0156C118.656 64.1672 120.302 65.8125 122.453 65.8125H135.109C137.261 65.8125 138.906 64.1672 138.906 62.0156Z" fill="#993E00"/>
<g clip-path="url(#clip0)">
<path d="M344.951 304.804H313.857V275.546C313.857 266.811 306.887 259.73 298.289 259.73C289.691 259.73 282.722 266.811 282.722 275.546V304.014V319.829C282.722 328.564 289.649 336.435 298.247 336.435H344.951C353.549 336.435 360.518 329.355 360.518 320.62C360.518 311.885 353.549 304.804 344.951 304.804Z" fill="url(#paint7_linear)"/>
<path opacity="0.1" d="M344.952 304.804H313.857V275.546C313.857 266.811 306.887 259.73 298.289 259.73C289.691 259.73 282.722 266.811 282.722 275.546V304.014V319.829C282.722 328.564 289.651 336.435 298.249 336.435H344.952C353.55 336.435 360.52 329.355 360.52 320.62C360.52 311.885 353.55 304.804 344.952 304.804Z" fill="#020202"/>
<path d="M304.518 399.695H301.404C299.684 399.695 298.249 397.488 298.249 395.742V374.391H298.291V224.935C298.291 216.912 296.549 209.305 293.446 202.465C298.236 199.03 301.401 193.388 301.401 186.978C301.401 176.498 293.034 168 282.717 168C276.398 168 270.821 171.198 267.442 176.075C261.384 173.244 254.715 171.544 247.689 171.233C247.493 171.223 247.295 171.214 247.099 171.206C246.849 171.198 246.603 171.177 246.352 171.173C246.013 171.166 245.678 171.184 245.34 171.185C245.002 171.185 244.668 171.166 244.328 171.173C244.078 171.177 243.83 171.198 243.581 171.206C243.383 171.214 243.187 171.222 242.991 171.233C235.964 171.544 229.294 173.244 223.239 176.075C219.856 171.198 214.279 168 207.96 168C197.644 168 189.276 176.498 189.276 186.978C189.276 193.388 192.441 199.031 197.231 202.465C194.128 209.303 192.386 216.912 192.386 224.935V374.391H192.428V395.742C192.428 397.488 190.993 399.695 189.273 399.695H186.159C175.843 399.695 167.478 408.193 167.478 418.674C167.478 422.167 170.266 425 173.705 425H220.673C223.966 425 226.678 421.497 226.678 418.152V376.763C226.678 375.015 228.03 374.391 229.749 374.391H260.928C262.647 374.391 264 375.015 264 376.763V418.152C264 421.497 266.712 425 270.004 425H316.972C320.411 425 323.199 422.167 323.199 418.674C323.199 408.193 314.835 399.695 304.518 399.695Z" fill="url(#paint8_linear)"/>
<path opacity="0.3" d="M226.64 224.936C230.079 224.936 232.867 222.104 232.867 218.61C232.867 215.116 230.079 212.284 226.64 212.284C223.201 212.284 220.413 215.116 220.413 218.61C220.413 222.104 223.201 224.936 226.64 224.936Z" fill="black"/>
<path opacity="0.3" d="M236.02 203.582C236.02 205.33 234.627 206.745 232.907 206.745H220.452C218.732 206.745 217.339 205.33 217.339 203.582C217.339 201.834 218.732 200.419 220.452 200.419H232.907C234.627 200.419 236.02 201.834 236.02 203.582Z" fill="black"/>
<path opacity="0.3" d="M264.081 224.936C267.52 224.936 270.308 222.104 270.308 218.61C270.308 215.116 267.52 212.284 264.081 212.284C260.642 212.284 257.854 215.116 257.854 218.61C257.854 222.104 260.642 224.936 264.081 224.936Z" fill="black"/>
<path opacity="0.3" d="M254.703 203.582C254.703 201.834 256.096 200.419 257.816 200.419H270.27C271.991 200.419 273.384 201.834 273.384 203.582C273.384 205.33 271.991 206.745 270.27 206.745H257.816C256.096 206.745 254.703 205.33 254.703 203.582Z" fill="black"/>
<path opacity="0.3" d="M253.774 232.849L245.361 232.863L236.949 232.849C235.555 232.847 234.43 234.163 234.768 235.534C235.951 240.348 240.691 243.915 245.361 243.915C250.032 243.915 254.772 240.348 255.955 235.534C256.293 234.163 255.167 232.847 253.774 232.849Z" fill="black"/>
<path d="M251.544 304.804H211.11V275.546C211.11 266.811 204.14 259.73 195.542 259.73C186.944 259.73 179.975 266.811 179.975 275.546V304.014V319.829C179.975 328.564 186.902 336.435 195.5 336.435H251.544C260.142 336.435 267.112 329.355 267.112 320.62C267.112 311.885 260.142 304.804 251.544 304.804Z" fill="url(#paint9_linear)"/>
<path opacity="0.1" d="M251.546 304.804H211.11V275.546C211.11 266.811 204.14 259.73 195.542 259.73C186.944 259.73 179.975 266.811 179.975 275.546V304.014V319.829C179.975 328.564 186.904 336.435 195.502 336.435H251.546C260.144 336.435 267.114 329.355 267.114 320.62C267.114 311.885 260.144 304.804 251.546 304.804Z" fill="#020202"/>
<path d="M215.275 181.133C210.262 184.771 205.872 189.326 202.291 194.513C200.049 192.805 198.617 190.053 198.617 186.985C198.617 181.734 202.789 177.496 207.958 177.496C210.947 177.496 213.593 178.919 215.275 181.133Z" fill="url(#paint10_linear)"/>
<path d="M282.214 177.496C287.382 177.496 291.554 181.734 291.554 186.985C291.554 190.053 290.122 192.805 287.88 194.513C284.3 189.326 279.91 184.771 274.897 181.133C276.578 178.919 279.225 177.496 282.214 177.496Z" fill="url(#paint11_linear)"/>
</g>
<g clip-path="url(#clip1)">
<path d="M423.333 382H393V282.366C393 274.063 399.825 267.27 408.167 267.27C416.508 267.27 423.333 274.063 423.333 282.366V382Z" fill="url(#paint12_linear)"/>
<path d="M441.533 225C451.543 225 459.733 233.152 459.733 243.115V382H423.333V243.115C423.333 233.152 431.523 225 441.533 225Z" fill="url(#paint13_linear)"/>
<path d="M465.8 306.52C475.81 306.52 484 314.671 484 324.635V382H447.6V324.635C447.6 314.671 455.79 306.52 465.8 306.52Z" fill="url(#paint14_linear)"/>
<path d="M459.733 306.52V307.576C453.667 309.992 447.6 316.785 447.6 324.635V382H441.533V324.635C441.533 314.671 450.633 306.52 459.733 306.52Z" fill="url(#paint15_linear)"/>
</g>
<g clip-path="url(#clip2)">
<path d="M48 485H0V327.616C0 314.5 10.8 303.77 24 303.77C37.2 303.77 48 314.5 48 327.616V485Z" fill="url(#paint16_linear)"/>
<path d="M76.8005 237C92.6405 237 105.6 249.877 105.6 265.615V485H48.0005V265.615C48.0005 249.877 60.9605 237 76.8005 237Z" fill="url(#paint17_linear)"/>
<path d="M115.199 365.77C131.039 365.77 143.999 378.646 143.999 394.385V485H86.3994V394.385C86.3994 378.646 99.3594 365.77 115.199 365.77Z" fill="url(#paint18_linear)"/>
<path d="M105.6 365.77V367.439C95.9998 371.254 86.3998 381.985 86.3998 394.385V485H76.7998V394.385C76.7998 378.646 91.1998 365.77 105.6 365.77Z" fill="url(#paint19_linear)"/>
</g>
<g clip-path="url(#clip3)">
<path d="M340.333 233H323V175.885C323 171.125 326.9 167.231 331.667 167.231C336.433 167.231 340.333 171.125 340.333 175.885V233Z" fill="url(#paint20_linear)"/>
<path d="M350.733 143C356.453 143 361.133 147.673 361.133 153.385V233H340.333V153.385C340.333 147.673 345.013 143 350.733 143Z" fill="url(#paint21_linear)"/>
<path d="M364.6 189.731C370.32 189.731 375 194.404 375 200.116V233H354.2V200.116C354.2 194.404 358.88 189.731 364.6 189.731Z" fill="url(#paint22_linear)"/>
<path d="M361.133 189.731V190.337C357.667 191.721 354.2 195.616 354.2 200.116V233H350.733V200.116C350.733 194.404 355.933 189.731 361.133 189.731Z" fill="url(#paint23_linear)"/>
</g>
<defs>
<linearGradient id="paint0_linear" x1="108.157" y1="98.9753" x2="441.3" y2="536.846" gradientUnits="userSpaceOnUse">
<stop stop-color="#79A1FF"/>
<stop offset="1" stop-color="#B1C8FF" stop-opacity="0.74"/>
</linearGradient>
<linearGradient id="paint1_linear" x1="106" y1="-0.493847" x2="106" y2="161.073" gradientUnits="userSpaceOnUse">
<stop stop-color="#FFAF22"/>
<stop offset="1" stop-color="#FF7934"/>
</linearGradient>
<linearGradient id="paint2_linear" x1="106" y1="22.4262" x2="106" y2="138.553" gradientUnits="userSpaceOnUse">
<stop stop-color="#FFCB24"/>
<stop offset="0.3403" stop-color="#FFC823"/>
<stop offset="0.6128" stop-color="#FFBE1F"/>
<stop offset="0.8611" stop-color="#FFAD1A"/>
<stop offset="1" stop-color="#FFA015"/>
</linearGradient>
<linearGradient id="paint3_linear" x1="128.781" y1="75.7793" x2="128.781" y2="86.2372" gradientUnits="userSpaceOnUse">
<stop stop-color="#4C4B4B"/>
<stop offset="1" stop-color="#3A3838"/>
</linearGradient>
<linearGradient id="paint4_linear" x1="83.2188" y1="75.7793" x2="83.2188" y2="86.2372" gradientUnits="userSpaceOnUse">
<stop stop-color="#4C4B4B"/>
<stop offset="1" stop-color="#3A3838"/>
</linearGradient>
<linearGradient id="paint5_linear" x1="80.6875" y1="58.0605" x2="80.6875" y2="65.8274" gradientUnits="userSpaceOnUse">
<stop stop-color="#FFBB22"/>
<stop offset="1" stop-color="#FF9E1D"/>
</linearGradient>
<linearGradient id="paint6_linear" x1="128.781" y1="58.0605" x2="128.781" y2="65.8274" gradientUnits="userSpaceOnUse">
<stop stop-color="#FFBB22"/>
<stop offset="1" stop-color="#FF9E1D"/>
</linearGradient>
<linearGradient id="paint7_linear" x1="321.62" y1="259.73" x2="321.62" y2="332.721" gradientUnits="userSpaceOnUse">
<stop stop-color="#DE784F"/>
<stop offset="1" stop-color="#D16B4D"/>
</linearGradient>
<linearGradient id="paint8_linear" x1="245.339" y1="426.072" x2="245.339" y2="168" gradientUnits="userSpaceOnUse">
<stop stop-color="#B95F4B"/>
<stop offset="1" stop-color="#DB8A4D"/>
</linearGradient>
<linearGradient id="paint9_linear" x1="223.543" y1="259.73" x2="223.543" y2="332.721" gradientUnits="userSpaceOnUse">
<stop stop-color="#DE784F"/>
<stop offset="1" stop-color="#D16B4D"/>
</linearGradient>
<linearGradient id="paint10_linear" x1="200.483" y1="179.402" x2="210.558" y2="189.319" gradientUnits="userSpaceOnUse">
<stop stop-opacity="0.12"/>
<stop offset="1" stop-color="#302926" stop-opacity="0.02"/>
</linearGradient>
<linearGradient id="paint11_linear" x1="289.688" y1="179.402" x2="279.614" y2="189.319" gradientUnits="userSpaceOnUse">
<stop stop-opacity="0.12"/>
<stop offset="1" stop-color="#302926" stop-opacity="0.02"/>
</linearGradient>
<linearGradient id="paint12_linear" x1="408.167" y1="267.646" x2="408.167" y2="382.377" gradientUnits="userSpaceOnUse">
<stop stop-color="#00E35E"/>
<stop offset="1" stop-color="#00B248"/>
</linearGradient>
<linearGradient id="paint13_linear" x1="441.533" y1="224.345" x2="441.533" y2="382.195" gradientUnits="userSpaceOnUse">
<stop stop-color="#00E35E"/>
<stop offset="1" stop-color="#00A332"/>
</linearGradient>
<linearGradient id="paint14_linear" x1="465.8" y1="306.141" x2="465.8" y2="383.141" gradientUnits="userSpaceOnUse">
<stop stop-color="#00E35E"/>
<stop offset="1" stop-color="#00B248"/>
</linearGradient>
<linearGradient id="paint15_linear" x1="450.633" y1="306.518" x2="450.633" y2="382" gradientUnits="userSpaceOnUse">
<stop stop-color="#304F26" stop-opacity="0"/>
<stop offset="0.2844" stop-color="#2C4D23" stop-opacity="0.0569"/>
<stop offset="0.579" stop-color="#1F4719" stop-opacity="0.1158"/>
<stop offset="0.8773" stop-color="#0B3E09" stop-opacity="0.1755"/>
<stop offset="1" stop-color="#003900" stop-opacity="0.2"/>
</linearGradient>
<linearGradient id="paint16_linear" x1="24" y1="304.364" x2="24" y2="485.595" gradientUnits="userSpaceOnUse">
<stop stop-color="#00E35E"/>
<stop offset="1" stop-color="#00B248"/>
</linearGradient>
<linearGradient id="paint17_linear" x1="76.8005" y1="235.966" x2="76.8005" y2="485.309" gradientUnits="userSpaceOnUse">
<stop stop-color="#00E35E"/>
<stop offset="1" stop-color="#00A332"/>
</linearGradient>
<linearGradient id="paint18_linear" x1="115.199" y1="365.172" x2="115.199" y2="486.802" gradientUnits="userSpaceOnUse">
<stop stop-color="#00E35E"/>
<stop offset="1" stop-color="#00B248"/>
</linearGradient>
<linearGradient id="paint19_linear" x1="91.1998" y1="365.767" x2="91.1998" y2="485" gradientUnits="userSpaceOnUse">
<stop stop-color="#304F26" stop-opacity="0"/>
<stop offset="0.2844" stop-color="#2C4D23" stop-opacity="0.0569"/>
<stop offset="0.579" stop-color="#1F4719" stop-opacity="0.1158"/>
<stop offset="0.8773" stop-color="#0B3E09" stop-opacity="0.1755"/>
<stop offset="1" stop-color="#003900" stop-opacity="0.2"/>
</linearGradient>
<linearGradient id="paint20_linear" x1="331.667" y1="167.447" x2="331.667" y2="233.216" gradientUnits="userSpaceOnUse">
<stop stop-color="#00E35E"/>
<stop offset="1" stop-color="#00B248"/>
</linearGradient>
<linearGradient id="paint21_linear" x1="350.733" y1="142.625" x2="350.733" y2="233.112" gradientUnits="userSpaceOnUse">
<stop stop-color="#00E35E"/>
<stop offset="1" stop-color="#00A332"/>
</linearGradient>
<linearGradient id="paint22_linear" x1="364.6" y1="189.514" x2="364.6" y2="233.654" gradientUnits="userSpaceOnUse">
<stop stop-color="#00E35E"/>
<stop offset="1" stop-color="#00B248"/>
</linearGradient>
<linearGradient id="paint23_linear" x1="355.933" y1="189.73" x2="355.933" y2="233" gradientUnits="userSpaceOnUse">
<stop stop-color="#304F26" stop-opacity="0"/>
<stop offset="0.2844" stop-color="#2C4D23" stop-opacity="0.0569"/>
<stop offset="0.579" stop-color="#1F4719" stop-opacity="0.1158"/>
<stop offset="0.8773" stop-color="#0B3E09" stop-opacity="0.1755"/>
<stop offset="1" stop-color="#003900" stop-opacity="0.2"/>
</linearGradient>
<clipPath id="clip0">
<rect width="194" height="257" fill="white" transform="translate(167 168)"/>
</clipPath>
<clipPath id="clip1">
<rect width="91" height="157" fill="white" transform="translate(393 225)"/>
</clipPath>
<clipPath id="clip2">
<rect width="144" height="248" fill="white" transform="translate(0 237)"/>
</clipPath>
<clipPath id="clip3">
<rect width="52" height="90" fill="white" transform="translate(323 143)"/>
</clipPath>
</defs>
</svg>
