<svg width="299" height="231" viewBox="0 0 299 231" fill="none" xmlns="http://www.w3.org/2000/svg">
<g clip-path="url(#clip0)">
<path d="M74.5687 198.528L55.5687 175.195C55.0853 174.602 54.5079 174.139 53.8872 173.77C50.0165 169.321 44.3418 166.498 38 166.498C31.6572 166.498 25.9836 169.321 22.1139 173.77C21.4933 174.139 20.9159 174.602 20.4324 175.195L1.43244 198.528C-0.783168 201.248 -0.384169 205.257 2.32333 207.484C3.50028 208.451 4.92 208.921 6.33022 208.921C8.16478 208.921 9.98455 208.125 11.2354 206.586L16.8889 199.643V217.407C16.8889 222.092 20.6699 225.891 25.3334 225.891H50.6667C55.3302 225.891 59.1112 222.092 59.1112 217.407V199.644L64.7647 206.587C66.0166 208.126 67.8353 208.922 69.6699 208.922C71.0801 208.922 72.4998 208.452 73.6768 207.485C76.3843 205.257 76.7833 201.249 74.5687 198.528Z" fill="url(#paint0_linear)"/>
<path d="M44.9231 149.29L52.236 153.533L67.6471 133.093C70.3535 129.501 69.3064 124.351 65.423 122.099L65.4083 122.125C61.5249 119.872 56.5859 121.496 54.8432 125.647L44.9231 149.29Z" fill="url(#paint1_linear)"/>
<path d="M47.8059 148.515L51.4624 150.636L64.5892 131.382C65.876 129.494 65.2827 126.918 63.3099 125.773L63.2951 125.8C61.3223 124.655 58.8291 125.387 57.8442 127.451L47.8059 148.515Z" fill="url(#paint2_linear)"/>
<path d="M65.4448 225.893C65.4448 220.035 60.7191 215.287 54.8893 215.287C49.0595 215.287 44.3337 220.035 44.3337 225.893H65.4448Z" fill="url(#paint3_linear)"/>
<path d="M31.6666 225.893C31.6666 220.035 26.9409 215.287 21.1111 215.287C15.2813 215.287 10.5555 220.035 10.5555 225.893H31.6666Z" fill="url(#paint4_linear)"/>
<path d="M33.2664 149.29L25.9535 153.533L10.5424 133.093C7.83595 129.501 8.88306 124.351 12.7665 122.099L12.7812 122.125C16.6646 119.872 21.6036 121.496 23.3463 125.647L33.2664 149.29Z" fill="url(#paint5_linear)"/>
<path d="M30.3827 148.515L26.7262 150.636L13.5993 131.382C12.3126 129.494 12.9058 126.918 14.8787 125.773L14.8934 125.8C16.8663 124.655 19.3595 125.387 20.3443 127.451L30.3827 148.515Z" fill="url(#paint6_linear)"/>
<path opacity="0.05" d="M20.3464 127.441C19.3637 125.39 16.8694 124.657 14.8956 125.802L14.8744 125.765C12.8995 126.91 12.3063 129.483 13.593 131.383L14.1123 132.159C13.5656 130.443 14.2422 128.483 15.8878 127.529C17.5334 126.574 19.5622 126.965 20.7666 128.299L20.3464 127.441Z" fill="black"/>
<path d="M59.1114 164.376C59.1114 176.091 49.6599 183.467 38.0003 183.467C26.3406 183.467 16.8892 176.091 16.8892 164.376C16.8892 152.66 26.3406 143.164 38.0003 143.164C49.6599 143.164 59.1114 152.66 59.1114 164.376Z" fill="url(#paint7_linear)"/>
<path d="M46.4445 168.618C48.7764 168.618 50.6667 166.719 50.6667 164.376C50.6667 162.033 48.7764 160.133 46.4445 160.133C44.1126 160.133 42.2223 162.033 42.2223 164.376C42.2223 166.719 44.1126 168.618 46.4445 168.618Z" fill="white"/>
<path d="M29.556 168.618C31.8878 168.618 33.7782 166.719 33.7782 164.376C33.7782 162.033 31.8878 160.133 29.556 160.133C27.2241 160.133 25.3337 162.033 25.3337 164.376C25.3337 166.719 27.2241 168.618 29.556 168.618Z" fill="white"/>
<path opacity="0.05" d="M57.841 127.441C58.8237 125.39 61.318 124.657 63.2919 125.802L63.313 125.765C65.2879 126.91 65.8812 129.483 64.5944 131.383L64.0751 132.159C64.6219 130.443 63.9453 128.483 62.2997 127.529C60.6541 126.574 58.6253 126.965 57.4209 128.299L57.841 127.441Z" fill="black"/>
<path d="M46.4449 166.499C47.6108 166.499 48.556 165.549 48.556 164.378C48.556 163.206 47.6108 162.256 46.4449 162.256C45.2789 162.256 44.3337 163.206 44.3337 164.378C44.3337 165.549 45.2789 166.499 46.4449 166.499Z" fill="url(#paint8_linear)"/>
<path d="M29.5557 166.499C30.7216 166.499 31.6668 165.549 31.6668 164.378C31.6668 163.206 30.7216 162.256 29.5557 162.256C28.3898 162.256 27.4446 163.206 27.4446 164.378C27.4446 165.549 28.3898 166.499 29.5557 166.499Z" fill="url(#paint9_linear)"/>
<path d="M38.0004 174.982C39.7493 174.982 41.1671 173.558 41.1671 171.8C41.1671 170.043 39.7493 168.619 38.0004 168.619C36.2515 168.619 34.8337 170.043 34.8337 171.8C34.8337 173.558 36.2515 174.982 38.0004 174.982Z" fill="url(#paint10_linear)"/>
<path d="M65.4448 225.893C65.4448 220.035 60.7191 215.287 54.8893 215.287C49.0595 215.287 44.3337 220.035 44.3337 225.893H65.4448Z" fill="url(#paint11_linear)"/>
<path d="M57.1487 177.147C57.0221 177.422 56.8743 177.677 56.7265 177.931C54.7421 181.431 51.6176 184.104 47.7965 185.759C44.8621 187.031 41.5265 187.71 38.0009 187.71C34.4754 187.71 31.1398 187.031 28.2054 185.759C24.3843 184.104 21.2598 181.431 19.2754 177.931C19.6554 177.168 20.1198 176.404 20.6054 175.704C23.0754 178.907 26.6221 181.219 30.7809 182.471C33.0398 183.128 35.4676 183.468 38.0009 183.468C40.5343 183.468 42.9621 183.128 45.2209 182.471C49.3798 181.219 52.9265 178.907 55.3965 175.704C55.4809 175.577 55.5865 175.45 55.6709 175.322L57.1487 177.147Z" fill="url(#paint12_linear)"/>
<path opacity="0.05" d="M46.4443 206.801V208.922C46.4443 213.61 42.6654 217.407 37.9999 217.407C35.6776 217.407 33.5665 216.453 32.0254 214.926C30.5054 213.377 29.5554 211.256 29.5554 208.922V206.801C29.5554 209.135 30.5054 211.256 32.0254 212.804C33.5665 214.332 35.6776 215.286 37.9999 215.286C42.6654 215.286 46.4443 211.489 46.4443 206.801Z" fill="black"/>
<path opacity="0.5" d="M46.4443 200.437V206.801C46.4443 211.489 42.6654 215.286 37.9999 215.286C35.6776 215.286 33.5665 214.331 32.0254 212.804C30.5054 211.256 29.5554 209.134 29.5554 206.801V200.437C29.5554 195.75 33.3343 191.953 37.9999 191.953C42.6654 191.953 46.4443 195.75 46.4443 200.437Z" fill="white"/>
<path d="M65.4441 225.893H61.2219C61.2219 220.759 57.5908 216.496 52.7986 215.499C53.4741 215.35 54.1708 215.287 54.8886 215.287C60.7152 215.287 65.4441 220.038 65.4441 225.893Z" fill="url(#paint13_linear)"/>
<path d="M31.6666 225.893H27.4443C27.4443 220.759 23.8132 216.496 19.021 215.499C19.6966 215.35 20.3932 215.287 21.111 215.287C26.9377 215.287 31.6666 220.038 31.6666 225.893Z" fill="url(#paint14_linear)"/>
</g>
<path d="M140.873 122.494H168.577V96.2964C168.577 88.4755 174.787 82.1357 182.448 82.1357C190.108 82.1357 196.318 88.4755 196.318 96.2964V121.786V135.946C196.318 143.767 190.146 150.815 182.485 150.815H140.873C133.212 150.815 127.002 144.475 127.002 136.654C127.002 128.833 133.212 122.494 140.873 122.494Z" fill="url(#paint15_linear)"/>
<path opacity="0.1" d="M140.871 122.494H168.577V96.2964C168.577 88.4755 174.787 82.1357 182.448 82.1357C190.108 82.1357 196.318 88.4755 196.318 96.2964V121.786V135.946C196.318 143.767 190.144 150.815 182.484 150.815H140.871C133.21 150.815 127 144.475 127 136.654C127 128.833 133.21 122.494 140.871 122.494Z" fill="#020202"/>
<path d="M176.898 207.454H179.672C181.205 207.454 182.484 205.477 182.484 203.914V184.797H182.446V50.9784C182.446 43.7947 183.998 36.9834 186.763 30.859C182.495 27.7833 179.675 22.7321 179.675 16.9928C179.675 7.60853 187.13 0 196.323 0C201.953 0 206.921 2.86329 209.933 7.23044C215.33 4.69568 221.272 3.17341 227.532 2.89444C227.707 2.88595 227.883 2.87745 228.058 2.87037C228.281 2.86329 228.5 2.84488 228.724 2.84063C229.026 2.83497 229.324 2.85054 229.625 2.85196C229.926 2.85196 230.224 2.83497 230.527 2.84063C230.75 2.84488 230.971 2.86329 231.193 2.87037C231.369 2.87745 231.543 2.88453 231.718 2.89444C237.979 3.17341 243.922 4.69568 249.318 7.23044C252.332 2.86329 257.3 0 262.93 0C272.123 0 279.578 7.60853 279.578 16.9928C279.578 22.7321 276.758 27.7847 272.49 30.859C275.255 36.982 276.807 43.7947 276.807 50.9784V184.797H276.769V203.914C276.769 205.477 278.048 207.454 279.581 207.454H282.355C291.547 207.454 299 215.062 299 224.447C299 227.575 296.516 230.111 293.452 230.111H251.603C248.67 230.111 246.253 226.974 246.253 223.979V186.921C246.253 185.356 245.048 184.797 243.517 184.797H215.736C214.205 184.797 213 185.356 213 186.921V223.979C213 226.974 210.583 230.111 207.65 230.111H165.801C162.737 230.111 160.253 227.575 160.253 224.447C160.253 215.062 167.706 207.454 176.898 207.454Z" fill="url(#paint16_linear)"/>
<path opacity="0.3" d="M246.29 50.9779C243.226 50.9779 240.741 48.442 240.741 45.3137C240.741 42.1854 243.226 39.6494 246.29 39.6494C249.354 39.6494 251.838 42.1854 251.838 45.3137C251.838 48.442 249.354 50.9779 246.29 50.9779Z" fill="black"/>
<path opacity="0.3" d="M237.928 31.859C237.928 33.4238 239.169 34.6911 240.702 34.6911H251.799C253.331 34.6911 254.573 33.4238 254.573 31.859C254.573 30.2942 253.331 29.0269 251.799 29.0269H240.702C239.169 29.0269 237.928 30.2942 237.928 31.859Z" fill="black"/>
<path opacity="0.3" d="M212.925 50.9779C209.861 50.9779 207.377 48.442 207.377 45.3137C207.377 42.1854 209.861 39.6494 212.925 39.6494C215.99 39.6494 218.474 42.1854 218.474 45.3137C218.474 48.442 215.99 50.9779 212.925 50.9779Z" fill="black"/>
<path opacity="0.3" d="M221.283 31.859C221.283 30.2942 220.042 29.0269 218.509 29.0269H207.412C205.88 29.0269 204.638 30.2942 204.638 31.859C204.638 33.4238 205.88 34.6911 207.412 34.6911H218.509C220.042 34.6911 221.283 33.4238 221.283 31.859Z" fill="black"/>
<path opacity="0.3" d="M222.112 58.0625L229.608 58.0752L237.104 58.0625C238.345 58.0611 239.348 59.2393 239.047 60.467C237.993 64.7775 233.769 67.9707 229.608 67.9707C225.447 67.9707 221.223 64.7775 220.169 60.467C219.868 59.2393 220.871 58.0611 222.112 58.0625Z" fill="black"/>
<path d="M224.097 122.494H260.124V96.2964C260.124 88.4755 266.334 82.1357 273.995 82.1357C281.656 82.1357 287.866 88.4755 287.866 96.2964V121.786V135.946C287.866 143.767 281.693 150.815 274.032 150.815H224.097C216.437 150.815 210.227 144.475 210.227 136.654C210.227 128.833 216.437 122.494 224.097 122.494Z" fill="url(#paint17_linear)"/>
<path opacity="0.1" d="M224.06 122.423H260.088V96.2261C260.088 88.4052 266.298 82.0654 273.959 82.0654C281.62 82.0654 287.829 88.4052 287.829 96.2261V121.715V135.876C287.829 143.697 281.656 150.745 273.995 150.745H224.06C216.399 150.745 210.189 144.405 210.189 136.584C210.189 128.763 216.399 122.423 224.06 122.423Z" fill="#020202"/>
<path d="M256.413 11.7584C260.879 15.0154 264.791 19.0937 267.981 23.7384C269.978 22.209 271.254 19.745 271.254 16.9979C271.254 12.2965 267.537 8.50146 262.932 8.50146C260.269 8.50146 257.911 9.77593 256.413 11.7584Z" fill="url(#paint18_linear)"/>
<path d="M196.77 8.50146C192.165 8.50146 188.448 12.2965 188.448 16.9979C188.448 19.745 189.724 22.209 191.721 23.7384C194.912 19.0937 198.823 15.0154 203.29 11.7584C201.792 9.77593 199.434 8.50146 196.77 8.50146Z" fill="url(#paint19_linear)"/>
<defs>
<linearGradient id="paint0_linear" x1="-0.263941" y1="196.194" x2="77.3212" y2="196.194" gradientUnits="userSpaceOnUse">
<stop stop-color="#BBE2FF"/>
<stop offset="0.5013" stop-color="#ADDDFF"/>
<stop offset="1" stop-color="#A4DAFF"/>
</linearGradient>
<linearGradient id="paint1_linear" x1="65.8335" y1="121.434" x2="48.163" y2="151.683" gradientUnits="userSpaceOnUse">
<stop stop-color="#E1F3FF"/>
<stop offset="0.2432" stop-color="#D8EFFF"/>
<stop offset="0.6383" stop-color="#C0E5FF"/>
<stop offset="1" stop-color="#A4DAFF"/>
</linearGradient>
<linearGradient id="paint2_linear" x1="48.6467" y1="149.305" x2="63.3924" y2="126.168" gradientUnits="userSpaceOnUse">
<stop stop-color="#3061E5" stop-opacity="0"/>
<stop offset="1" stop-color="#005FE0" stop-opacity="0.15"/>
</linearGradient>
<linearGradient id="paint3_linear" x1="44.3336" y1="220.589" x2="65.4447" y2="220.589" gradientUnits="userSpaceOnUse">
<stop stop-color="#E1F3FF"/>
<stop offset="0.0953" stop-color="#DCF1FF"/>
<stop offset="0.6555" stop-color="#C4E6FF"/>
<stop offset="1" stop-color="#BBE2FF"/>
</linearGradient>
<linearGradient id="paint4_linear" x1="10.5554" y1="220.589" x2="31.6665" y2="220.589" gradientUnits="userSpaceOnUse">
<stop stop-color="#E1F3FF"/>
<stop offset="0.1244" stop-color="#D4EDFF"/>
<stop offset="0.3309" stop-color="#C6E7FF"/>
<stop offset="0.5822" stop-color="#BEE3FF"/>
<stop offset="1" stop-color="#BBE2FF"/>
</linearGradient>
<linearGradient id="paint5_linear" x1="12.3558" y1="121.434" x2="30.0264" y2="151.683" gradientUnits="userSpaceOnUse">
<stop stop-color="#E1F3FF"/>
<stop offset="0.2432" stop-color="#D8EFFF"/>
<stop offset="0.6383" stop-color="#C0E5FF"/>
<stop offset="1" stop-color="#A4DAFF"/>
</linearGradient>
<linearGradient id="paint6_linear" x1="29.5418" y1="149.305" x2="14.7961" y2="126.168" gradientUnits="userSpaceOnUse">
<stop stop-color="#3061E5" stop-opacity="0"/>
<stop offset="1" stop-color="#005FE0" stop-opacity="0.15"/>
</linearGradient>
<linearGradient id="paint7_linear" x1="16.8891" y1="163.315" x2="59.1113" y2="163.315" gradientUnits="userSpaceOnUse">
<stop stop-color="#E1F3FF"/>
<stop offset="0.0953" stop-color="#DCF1FF"/>
<stop offset="0.6555" stop-color="#C4E6FF"/>
<stop offset="1" stop-color="#BBE2FF"/>
</linearGradient>
<linearGradient id="paint8_linear" x1="46.4447" y1="162.167" x2="46.4447" y2="166.683" gradientUnits="userSpaceOnUse">
<stop stop-color="#4C4B4B"/>
<stop offset="1" stop-color="#3A3838"/>
</linearGradient>
<linearGradient id="paint9_linear" x1="29.5556" y1="162.167" x2="29.5556" y2="166.683" gradientUnits="userSpaceOnUse">
<stop stop-color="#4C4B4B"/>
<stop offset="1" stop-color="#3A3838"/>
</linearGradient>
<linearGradient id="paint10_linear" x1="34.8336" y1="171.8" x2="41.167" y2="171.8" gradientUnits="userSpaceOnUse">
<stop stop-color="#9AC6E8"/>
<stop offset="0.1952" stop-color="#9AC3E8"/>
<stop offset="1" stop-color="#9ABAE8"/>
</linearGradient>
<linearGradient id="paint11_linear" x1="44.3336" y1="220.589" x2="65.4447" y2="220.589" gradientUnits="userSpaceOnUse">
<stop stop-color="#E1F3FF"/>
<stop offset="0.1244" stop-color="#D4EDFF"/>
<stop offset="0.3309" stop-color="#C6E7FF"/>
<stop offset="0.5822" stop-color="#BEE3FF"/>
<stop offset="1" stop-color="#BBE2FF"/>
</linearGradient>
<linearGradient id="paint12_linear" x1="19.2753" y1="181.516" x2="57.1487" y2="181.516" gradientUnits="userSpaceOnUse">
<stop stop-color="#3061E5" stop-opacity="0"/>
<stop offset="1" stop-color="#005FE0" stop-opacity="0.1"/>
</linearGradient>
<linearGradient id="paint13_linear" x1="59.1212" y1="214.888" x2="59.1212" y2="226.251" gradientUnits="userSpaceOnUse">
<stop stop-color="#3061E5" stop-opacity="0"/>
<stop offset="0.29" stop-color="#2761E4" stop-opacity="0.0377"/>
<stop offset="0.7616" stop-color="#0F60E2" stop-opacity="0.099"/>
<stop offset="1" stop-color="#005FE0" stop-opacity="0.13"/>
</linearGradient>
<linearGradient id="paint14_linear" x1="25.3437" y1="214.888" x2="25.3437" y2="226.251" gradientUnits="userSpaceOnUse">
<stop stop-color="#3061E5" stop-opacity="0"/>
<stop offset="0.29" stop-color="#2761E4" stop-opacity="0.0377"/>
<stop offset="0.7616" stop-color="#0F60E2" stop-opacity="0.099"/>
<stop offset="1" stop-color="#005FE0" stop-opacity="0.13"/>
</linearGradient>
<linearGradient id="paint15_linear" x1="161.66" y1="82.1357" x2="161.66" y2="147.489" gradientUnits="userSpaceOnUse">
<stop stop-color="#DE784F"/>
<stop offset="1" stop-color="#D16B4D"/>
</linearGradient>
<linearGradient id="paint16_linear" x1="229.626" y1="231.071" x2="229.626" y2="0" gradientUnits="userSpaceOnUse">
<stop stop-color="#B95F4B"/>
<stop offset="1" stop-color="#DB8A4D"/>
</linearGradient>
<linearGradient id="paint17_linear" x1="249.046" y1="82.1357" x2="249.046" y2="147.489" gradientUnits="userSpaceOnUse">
<stop stop-color="#DE784F"/>
<stop offset="1" stop-color="#D16B4D"/>
</linearGradient>
<linearGradient id="paint18_linear" x1="269.592" y1="10.2088" x2="260.572" y2="19.0436" gradientUnits="userSpaceOnUse">
<stop stop-opacity="0.12"/>
<stop offset="1" stop-color="#302926" stop-opacity="0.02"/>
</linearGradient>
<linearGradient id="paint19_linear" x1="190.111" y1="10.2088" x2="199.13" y2="19.0436" gradientUnits="userSpaceOnUse">
<stop stop-opacity="0.12"/>
<stop offset="1" stop-color="#302926" stop-opacity="0.02"/>
</linearGradient>
<clipPath id="clip0">
<rect width="76" height="105" fill="white" transform="translate(0 121)"/>
</clipPath>
</defs>
</svg>
