<svg width="367" height="277" viewBox="0 0 367 277" fill="none" xmlns="http://www.w3.org/2000/svg">
<path d="M281.667 258.999H239V138.423C239 128.374 248.6 120.153 260.333 120.153C272.067 120.153 281.667 128.374 281.667 138.423V258.999Z" fill="url(#paint0_linear)"/>
<path d="M307.266 69C321.346 69 332.866 78.8654 332.866 90.9231V259H281.666V90.9231C281.666 78.8654 293.186 69 307.266 69Z" fill="url(#paint1_linear)"/>
<path d="M341.4 167.653C355.48 167.653 367 177.519 367 189.576V258.999H315.8V189.576C315.8 177.519 327.32 167.653 341.4 167.653Z" fill="url(#paint2_linear)"/>
<path d="M332.867 167.653V168.932C324.333 171.855 315.8 180.076 315.8 189.576V258.999H307.267V189.576C307.267 177.519 320.067 167.653 332.867 167.653Z" fill="url(#paint3_linear)"/>
<g clip-path="url(#clip0)">
<path d="M30.3333 226H0V126.366C0 118.063 6.825 111.27 15.1667 111.27C23.5083 111.27 30.3333 118.063 30.3333 126.366V226Z" fill="url(#paint4_linear)"/>
<path d="M48.534 69C58.544 69 66.734 77.1519 66.734 87.1154V226H30.334V87.1154C30.334 77.1519 38.524 69 48.534 69Z" fill="url(#paint5_linear)"/>
<path d="M72.7996 150.52C82.8096 150.52 90.9996 158.671 90.9996 168.635V226H54.5996V168.635C54.5996 158.671 62.7896 150.52 72.7996 150.52Z" fill="url(#paint6_linear)"/>
<path d="M66.7332 150.52V151.576C60.6665 153.992 54.5999 160.785 54.5999 168.635V226H48.5332V168.635C48.5332 158.671 57.6332 150.52 66.7332 150.52Z" fill="url(#paint7_linear)"/>
</g>
<g clip-path="url(#clip1)">
<path d="M156.333 90.0002H139V32.8848C139 28.1252 142.9 24.231 147.667 24.231C152.433 24.231 156.333 28.1252 156.333 32.8848V90.0002Z" fill="url(#paint8_linear)"/>
<path d="M166.733 0C172.453 0 177.133 4.67308 177.133 10.3846V90H156.333V10.3846C156.333 4.67308 161.013 0 166.733 0Z" fill="url(#paint9_linear)"/>
<path d="M180.6 46.731C186.32 46.731 191 51.404 191 57.1156V90.0002H170.2V57.1156C170.2 51.404 174.88 46.731 180.6 46.731Z" fill="url(#paint10_linear)"/>
<path d="M177.133 46.731V47.3367C173.667 48.7213 170.2 52.6156 170.2 57.1156V90.0002H166.733V57.1156C166.733 51.404 171.933 46.731 177.133 46.731Z" fill="url(#paint11_linear)"/>
</g>
<g clip-path="url(#clip2)">
<path d="M279.815 235.137L250.815 199.582C250.077 198.678 249.196 197.974 248.249 197.411C242.341 190.631 233.679 186.329 224 186.329C214.319 186.329 205.659 190.631 199.753 197.411C198.805 197.974 197.924 198.678 197.186 199.582L168.186 235.137C164.804 239.283 165.413 245.392 169.546 248.784C171.342 250.258 173.509 250.974 175.662 250.974C178.462 250.974 181.239 249.762 183.149 247.417L191.778 236.836V263.905C191.778 271.045 197.549 276.834 204.667 276.834H243.333C250.451 276.834 256.222 271.045 256.222 263.905V236.837L264.851 247.418C266.762 249.763 269.538 250.976 272.338 250.976C274.491 250.976 276.657 250.26 278.454 248.786C282.586 245.392 283.195 239.284 279.815 235.137Z" fill="url(#paint12_linear)"/>
<path d="M234.567 160.108L245.729 166.573L269.251 135.426C273.382 129.952 271.784 122.106 265.857 118.673L265.834 118.713C259.907 115.281 252.369 117.755 249.709 124.081L234.567 160.108Z" fill="url(#paint13_linear)"/>
<path d="M238.967 158.926L244.548 162.158L264.583 132.819C266.547 129.942 265.642 126.016 262.631 124.272L262.608 124.313C259.597 122.569 255.792 123.684 254.288 126.829L238.967 158.926Z" fill="url(#paint14_linear)"/>
<path d="M265.889 276.836C265.889 267.91 258.676 260.674 249.778 260.674C240.88 260.674 233.667 267.91 233.667 276.836H265.889Z" fill="url(#paint15_linear)"/>
<path d="M214.333 276.836C214.333 267.91 207.12 260.674 198.221 260.674C189.323 260.674 182.11 267.91 182.11 276.836H214.333Z" fill="url(#paint16_linear)"/>
<path d="M216.775 160.108L205.614 166.573L182.091 135.426C177.96 129.952 179.559 122.106 185.486 118.673L185.509 118.713C191.436 115.281 198.974 117.755 201.634 124.081L216.775 160.108Z" fill="url(#paint17_linear)"/>
<path d="M212.374 158.926L206.793 162.158L186.757 132.819C184.793 129.942 185.698 126.016 188.71 124.272L188.732 124.313C191.743 122.569 195.549 123.684 197.052 126.829L212.374 158.926Z" fill="url(#paint18_linear)"/>
<path opacity="0.05" d="M197.055 126.813C195.555 123.689 191.748 122.57 188.735 124.316L188.703 124.259C185.688 126.005 184.783 129.925 186.747 132.82L187.54 134.003C186.705 131.388 187.738 128.401 190.25 126.947C192.761 125.492 195.858 126.089 197.696 128.12L197.055 126.813Z" fill="black"/>
<path d="M256.222 183.095C256.222 200.947 241.796 212.186 224 212.186C206.203 212.186 191.777 200.947 191.777 183.095C191.777 165.243 206.203 150.771 224 150.771C241.796 150.771 256.222 165.243 256.222 183.095Z" fill="url(#paint19_linear)"/>
<path d="M236.889 189.561C240.448 189.561 243.333 186.666 243.333 183.096C243.333 179.526 240.448 176.631 236.889 176.631C233.33 176.631 230.444 179.526 230.444 183.096C230.444 186.666 233.33 189.561 236.889 189.561Z" fill="white"/>
<path d="M211.111 189.561C214.671 189.561 217.556 186.666 217.556 183.096C217.556 179.526 214.671 176.631 211.111 176.631C207.552 176.631 204.667 179.526 204.667 183.096C204.667 186.666 207.552 189.561 211.111 189.561Z" fill="white"/>
<path opacity="0.05" d="M254.283 126.813C255.783 123.689 259.59 122.57 262.603 124.316L262.635 124.259C265.649 126.005 266.555 129.925 264.591 132.82L263.798 134.003C264.633 131.388 263.6 128.401 261.088 126.947C258.576 125.492 255.48 126.089 253.642 128.12L254.283 126.813Z" fill="black"/>
<path d="M236.889 186.33C238.669 186.33 240.111 184.883 240.111 183.098C240.111 181.312 238.669 179.865 236.889 179.865C235.11 179.865 233.667 181.312 233.667 183.098C233.667 184.883 235.11 186.33 236.889 186.33Z" fill="url(#paint20_linear)"/>
<path d="M211.112 186.33C212.891 186.33 214.334 184.883 214.334 183.098C214.334 181.312 212.891 179.865 211.112 179.865C209.332 179.865 207.89 181.312 207.89 183.098C207.89 184.883 209.332 186.33 211.112 186.33Z" fill="url(#paint21_linear)"/>
<path d="M224 199.257C226.67 199.257 228.834 197.087 228.834 194.409C228.834 191.731 226.67 189.561 224 189.561C221.331 189.561 219.167 191.731 219.167 194.409C219.167 197.087 221.331 199.257 224 199.257Z" fill="url(#paint22_linear)"/>
<path d="M265.889 276.836C265.889 267.91 258.676 260.674 249.778 260.674C240.88 260.674 233.667 267.91 233.667 276.836H265.889Z" fill="url(#paint23_linear)"/>
<path d="M253.227 202.555C253.033 202.975 252.808 203.363 252.582 203.751C249.553 209.084 244.784 213.157 238.952 215.678C234.473 217.618 229.382 218.652 224.001 218.652C218.62 218.652 213.529 217.618 209.05 215.678C203.218 213.157 198.449 209.084 195.42 203.751C196 202.588 196.709 201.424 197.45 200.357C201.22 205.238 206.633 208.761 212.981 210.668C216.429 211.67 220.134 212.188 224.001 212.188C227.868 212.188 231.573 211.67 235.021 210.668C241.369 208.761 246.782 205.238 250.552 200.357C250.681 200.163 250.842 199.969 250.971 199.775L253.227 202.555Z" fill="url(#paint24_linear)"/>
<path opacity="0.05" d="M236.888 247.745V250.977C236.888 258.12 231.12 263.906 223.999 263.906C220.455 263.906 217.233 262.452 214.88 260.124C212.56 257.765 211.11 254.533 211.11 250.977V247.745C211.11 251.3 212.56 254.533 214.88 256.892C217.233 259.219 220.455 260.674 223.999 260.674C231.12 260.674 236.888 254.888 236.888 247.745Z" fill="black"/>
<path opacity="0.5" d="M236.888 238.046V247.742C236.888 254.886 231.12 260.672 223.999 260.672C220.455 260.672 217.233 259.217 214.88 256.89C212.56 254.53 211.11 251.298 211.11 247.742V238.046C211.11 230.902 216.878 225.116 223.999 225.116C231.12 225.116 236.888 230.902 236.888 238.046Z" fill="white"/>
<path d="M265.888 276.836H259.444C259.444 269.014 253.901 262.517 246.587 260.998C247.618 260.771 248.681 260.674 249.777 260.674C258.67 260.674 265.888 267.915 265.888 276.836Z" fill="url(#paint25_linear)"/>
<path d="M214.333 276.836H207.889C207.889 269.014 202.347 262.517 195.032 260.998C196.063 260.771 197.127 260.674 198.222 260.674C207.116 260.674 214.333 267.915 214.333 276.836Z" fill="url(#paint26_linear)"/>
</g>
<g clip-path="url(#clip3)">
<path d="M129.813 209.236L114.063 189.902C113.663 189.411 113.184 189.028 112.67 188.722C109.461 185.036 104.757 182.696 99.4999 182.696C94.2421 182.696 89.5389 185.036 86.3312 188.722C85.8167 189.028 85.3381 189.411 84.9373 189.902L69.1873 209.236C67.3507 211.49 67.6814 214.812 69.9258 216.656C70.9014 217.458 72.0783 217.847 73.2473 217.847C74.7681 217.847 76.2766 217.188 77.3134 215.913L81.9999 210.159V224.878C81.9999 228.761 85.1342 231.908 88.9999 231.908H110C113.866 231.908 117 228.761 117 224.878V210.16L121.686 215.914C122.724 217.189 124.232 217.848 125.753 217.848C126.922 217.848 128.098 217.459 129.074 216.657C131.318 214.812 131.649 211.491 129.813 209.236Z" fill="url(#paint27_linear)"/>
<path d="M105.239 168.44L111.301 171.955L124.076 155.019C126.32 152.042 125.452 147.776 122.233 145.909L122.22 145.931C119.001 144.065 114.907 145.41 113.463 148.85L105.239 168.44Z" fill="url(#paint28_linear)"/>
<path d="M107.629 167.796L110.66 169.554L121.541 153.6C122.608 152.036 122.116 149.902 120.481 148.953L120.469 148.975C118.833 148.027 116.767 148.633 115.95 150.344L107.629 167.796Z" fill="url(#paint29_linear)"/>
<path d="M122.25 231.91C122.25 227.056 118.333 223.122 113.5 223.122C108.667 223.122 104.75 227.056 104.75 231.91H122.25Z" fill="url(#paint30_linear)"/>
<path d="M94.249 231.91C94.249 227.056 90.3316 223.122 85.499 223.122C80.6664 223.122 76.749 227.056 76.749 231.91H94.249Z" fill="url(#paint31_linear)"/>
<path d="M95.5757 168.44L89.5137 171.955L76.7388 155.019C74.4953 152.042 75.3633 147.776 78.5824 145.909L78.5946 145.931C81.8137 144.065 85.9079 145.41 87.3525 148.85L95.5757 168.44Z" fill="url(#paint32_linear)"/>
<path d="M93.1849 167.796L90.1539 169.554L79.2724 153.6C78.2058 152.036 78.6976 149.902 80.3329 148.953L80.3452 148.975C81.9806 148.027 84.0473 148.633 84.8637 150.344L93.1849 167.796Z" fill="url(#paint33_linear)"/>
<path opacity="0.05" d="M84.8657 150.336C84.0511 148.637 81.9835 148.029 80.3472 148.978L80.3297 148.947C78.6926 149.896 78.2009 152.028 79.2675 153.602L79.698 154.245C79.2447 152.823 79.8056 151.199 81.1697 150.408C82.5339 149.618 84.2156 149.942 85.214 151.046L84.8657 150.336Z" fill="black"/>
<path d="M117 180.938C117 190.645 109.165 196.756 99.5 196.756C89.8348 196.756 82 190.645 82 180.938C82 171.231 89.8348 163.362 99.5 163.362C109.165 163.362 117 171.231 117 180.938Z" fill="url(#paint34_linear)"/>
<path d="M106.5 184.454C108.433 184.454 110 182.88 110 180.939C110 178.998 108.433 177.424 106.5 177.424C104.567 177.424 103 178.998 103 180.939C103 182.88 104.567 184.454 106.5 184.454Z" fill="white"/>
<path d="M92.5 184.454C94.433 184.454 96 182.88 96 180.939C96 178.998 94.433 177.424 92.5 177.424C90.567 177.424 89 178.998 89 180.939C89 182.88 90.567 184.454 92.5 184.454Z" fill="white"/>
<path opacity="0.05" d="M115.947 150.336C116.762 148.637 118.829 148.029 120.465 148.978L120.483 148.947C122.12 149.896 122.612 152.028 121.545 153.602L121.115 154.245C121.568 152.823 121.007 151.199 119.643 150.408C118.279 149.618 116.597 149.942 115.599 151.046L115.947 150.336Z" fill="black"/>
<path d="M106.5 182.697C107.466 182.697 108.25 181.91 108.25 180.94C108.25 179.969 107.466 179.182 106.5 179.182C105.534 179.182 104.75 179.969 104.75 180.94C104.75 181.91 105.534 182.697 106.5 182.697Z" fill="url(#paint35_linear)"/>
<path d="M92.501 182.697C93.4675 182.697 94.251 181.91 94.251 180.94C94.251 179.969 93.4675 179.182 92.501 179.182C91.5345 179.182 90.751 179.969 90.751 180.94C90.751 181.91 91.5345 182.697 92.501 182.697Z" fill="url(#paint36_linear)"/>
<path d="M99.5 189.727C100.95 189.727 102.125 188.546 102.125 187.09C102.125 185.634 100.95 184.454 99.5 184.454C98.0503 184.454 96.875 185.634 96.875 187.09C96.875 188.546 98.0503 189.727 99.5 189.727Z" fill="url(#paint37_linear)"/>
<path d="M122.25 231.91C122.25 227.056 118.333 223.122 113.5 223.122C108.667 223.122 104.75 227.056 104.75 231.91H122.25Z" fill="url(#paint38_linear)"/>
<path d="M115.374 191.52C115.269 191.748 115.146 191.959 115.024 192.17C113.379 195.07 110.789 197.285 107.621 198.656C105.189 199.71 102.424 200.273 99.501 200.273C96.5785 200.273 93.8135 199.71 91.381 198.656C88.2135 197.285 85.6235 195.07 83.9785 192.17C84.2935 191.537 84.6785 190.905 85.081 190.325C87.1285 192.979 90.0685 194.894 93.516 195.931C95.3885 196.476 97.401 196.757 99.501 196.757C101.601 196.757 103.614 196.476 105.486 195.931C108.934 194.894 111.874 192.979 113.921 190.325C113.991 190.219 114.079 190.114 114.149 190.008L115.374 191.52Z" fill="url(#paint39_linear)"/>
<path opacity="0.05" d="M106.499 216.092V217.849C106.499 221.734 103.367 224.88 99.499 224.88C97.574 224.88 95.824 224.089 94.5465 222.823C93.2865 221.54 92.499 219.783 92.499 217.849V216.092C92.499 218.025 93.2865 219.783 94.5465 221.066C95.824 222.331 97.574 223.122 99.499 223.122C103.367 223.122 106.499 219.976 106.499 216.092Z" fill="black"/>
<path opacity="0.5" d="M106.499 210.818V216.091C106.499 219.975 103.367 223.121 99.499 223.121C97.574 223.121 95.824 222.331 94.5465 221.065C93.2865 219.782 92.499 218.024 92.499 216.091V210.818C92.499 206.934 95.6315 203.788 99.499 203.788C103.367 203.788 106.499 206.934 106.499 210.818Z" fill="white"/>
<path d="M122.249 231.91H118.749C118.749 227.657 115.739 224.124 111.767 223.298C112.327 223.175 112.904 223.122 113.499 223.122C118.329 223.122 122.249 227.059 122.249 231.91Z" fill="url(#paint40_linear)"/>
<path d="M94.2501 231.91H90.7501C90.7501 227.657 87.7401 224.124 83.7676 223.298C84.3276 223.175 84.9051 223.122 85.5001 223.122C90.3301 223.122 94.2501 227.059 94.2501 231.91Z" fill="url(#paint41_linear)"/>
</g>
<g clip-path="url(#clip4)">
<path d="M179.077 174.471L166.827 159.582C166.515 159.203 166.143 158.908 165.743 158.673C163.247 155.834 159.589 154.032 155.5 154.032C151.41 154.032 147.753 155.834 145.258 158.673C144.857 158.908 144.485 159.203 144.173 159.582L131.923 174.471C130.495 176.207 130.752 178.765 132.498 180.185C133.257 180.802 134.172 181.102 135.081 181.102C136.264 181.102 137.437 180.595 138.244 179.613L141.889 175.182V186.517C141.889 189.507 144.327 191.931 147.333 191.931H163.667C166.673 191.931 169.111 189.507 169.111 186.517V175.183L172.756 179.613C173.563 180.595 174.736 181.103 175.919 181.103C176.828 181.103 177.743 180.803 178.502 180.186C180.248 178.765 180.505 176.207 179.077 174.471Z" fill="url(#paint42_linear)"/>
<path d="M159.963 143.054L164.678 145.761L174.614 132.718C176.359 130.426 175.684 127.14 173.18 125.703L173.17 125.72C170.667 124.282 167.482 125.318 166.359 127.967L159.963 143.054Z" fill="url(#paint43_linear)"/>
<path d="M161.822 142.556L164.18 143.909L172.643 131.623C173.473 130.419 173.09 128.775 171.818 128.044L171.809 128.061C170.537 127.331 168.929 127.798 168.294 129.115L161.822 142.556Z" fill="url(#paint44_linear)"/>
<path d="M173.194 191.931C173.194 188.193 170.147 185.163 166.389 185.163C162.63 185.163 159.583 188.193 159.583 191.931H173.194Z" fill="url(#paint45_linear)"/>
<path d="M151.416 191.931C151.416 188.193 148.369 185.163 144.61 185.163C140.852 185.163 137.805 188.193 137.805 191.931H151.416Z" fill="url(#paint46_linear)"/>
<path d="M152.448 143.054L147.733 145.761L137.797 132.718C136.052 130.426 136.727 127.14 139.231 125.703L139.24 125.72C141.744 124.282 144.928 125.318 146.052 127.967L152.448 143.054Z" fill="url(#paint47_linear)"/>
<path d="M150.589 142.556L148.231 143.909L139.768 131.623C138.938 130.419 139.321 128.775 140.593 128.044L140.602 128.061C141.874 127.331 143.482 127.798 144.117 129.115L150.589 142.556Z" fill="url(#paint48_linear)"/>
<path opacity="0.05" d="M144.117 129.11C143.484 127.802 141.875 127.334 140.603 128.065L140.589 128.041C139.316 128.772 138.933 130.414 139.763 131.626L140.098 132.121C139.745 131.026 140.181 129.776 141.242 129.167C142.303 128.557 143.611 128.807 144.388 129.658L144.117 129.11Z" fill="black"/>
<path d="M169.111 152.678C169.111 160.154 163.017 164.86 155.5 164.86C147.982 164.86 141.889 160.154 141.889 152.678C141.889 145.203 147.982 139.143 155.5 139.143C163.017 139.143 169.111 145.203 169.111 152.678Z" fill="url(#paint49_linear)"/>
<path d="M160.944 155.386C162.447 155.386 163.666 154.174 163.666 152.679C163.666 151.184 162.447 149.972 160.944 149.972C159.44 149.972 158.222 151.184 158.222 152.679C158.222 154.174 159.44 155.386 160.944 155.386Z" fill="white"/>
<path d="M150.055 155.386C151.559 155.386 152.777 154.174 152.777 152.679C152.777 151.184 151.559 149.972 150.055 149.972C148.552 149.972 147.333 151.184 147.333 152.679C147.333 154.174 148.552 155.386 150.055 155.386Z" fill="white"/>
<path opacity="0.05" d="M168.292 129.11C168.926 127.802 170.534 127.334 171.807 128.065L171.82 128.041C173.094 128.772 173.476 130.414 172.647 131.626L172.312 132.121C172.664 131.026 172.228 129.776 171.167 129.167C170.106 128.557 168.798 128.807 168.021 129.658L168.292 129.11Z" fill="black"/>
<path d="M160.944 154.032C161.696 154.032 162.305 153.426 162.305 152.679C162.305 151.931 161.696 151.325 160.944 151.325C160.192 151.325 159.583 151.931 159.583 152.679C159.583 153.426 160.192 154.032 160.944 154.032Z" fill="url(#paint50_linear)"/>
<path d="M150.056 154.032C150.808 154.032 151.418 153.426 151.418 152.679C151.418 151.931 150.808 151.325 150.056 151.325C149.305 151.325 148.695 151.931 148.695 152.679C148.695 153.426 149.305 154.032 150.056 154.032Z" fill="url(#paint51_linear)"/>
<path d="M155.5 159.446C156.627 159.446 157.541 158.537 157.541 157.416C157.541 156.294 156.627 155.385 155.5 155.385C154.372 155.385 153.458 156.294 153.458 157.416C153.458 158.537 154.372 159.446 155.5 159.446Z" fill="url(#paint52_linear)"/>
<path d="M173.194 191.931C173.194 188.193 170.147 185.163 166.389 185.163C162.63 185.163 159.583 188.193 159.583 191.931H173.194Z" fill="url(#paint53_linear)"/>
<path d="M167.846 160.826C167.764 161.002 167.669 161.164 167.574 161.326C166.294 163.56 164.28 165.265 161.816 166.321C159.924 167.133 157.774 167.566 155.501 167.566C153.228 167.566 151.077 167.133 149.185 166.321C146.722 165.265 144.707 163.56 143.428 161.326C143.673 160.839 143.972 160.352 144.285 159.905C145.878 161.949 148.164 163.424 150.846 164.223C152.302 164.643 153.867 164.859 155.501 164.859C157.134 164.859 158.699 164.643 160.156 164.223C162.837 163.424 165.124 161.949 166.716 159.905C166.771 159.824 166.839 159.743 166.893 159.662L167.846 160.826Z" fill="url(#paint54_linear)"/>
<path opacity="0.05" d="M160.944 179.75V181.103C160.944 184.094 158.507 186.517 155.499 186.517C154.002 186.517 152.641 185.908 151.647 184.934C150.667 183.945 150.055 182.592 150.055 181.103V179.75C150.055 181.238 150.667 182.592 151.647 183.58C152.641 184.555 154.002 185.164 155.499 185.164C158.507 185.164 160.944 182.741 160.944 179.75Z" fill="black"/>
<path opacity="0.5" d="M160.944 175.69V179.751C160.944 182.742 158.507 185.165 155.499 185.165C154.002 185.165 152.641 184.556 151.647 183.581C150.667 182.593 150.055 181.24 150.055 179.751V175.69C150.055 172.699 152.491 170.276 155.499 170.276C158.507 170.276 160.944 172.699 160.944 175.69Z" fill="white"/>
<path d="M173.193 191.931H170.471C170.471 188.655 168.13 185.935 165.04 185.298C165.476 185.204 165.925 185.163 166.388 185.163C170.144 185.163 173.193 188.195 173.193 191.931Z" fill="url(#paint55_linear)"/>
<path d="M151.417 191.931H148.695C148.695 188.655 146.353 185.935 143.264 185.298C143.699 185.204 144.148 185.163 144.611 185.163C148.368 185.163 151.417 188.195 151.417 191.931Z" fill="url(#paint56_linear)"/>
</g>
<defs>
<linearGradient id="paint0_linear" x1="260.333" y1="120.609" x2="260.333" y2="259.455" gradientUnits="userSpaceOnUse">
<stop stop-color="#00E35E"/>
<stop offset="1" stop-color="#00B248"/>
</linearGradient>
<linearGradient id="paint1_linear" x1="307.266" y1="68.2078" x2="307.266" y2="259.236" gradientUnits="userSpaceOnUse">
<stop stop-color="#00E35E"/>
<stop offset="1" stop-color="#00A332"/>
</linearGradient>
<linearGradient id="paint2_linear" x1="341.4" y1="167.195" x2="341.4" y2="260.38" gradientUnits="userSpaceOnUse">
<stop stop-color="#00E35E"/>
<stop offset="1" stop-color="#00B248"/>
</linearGradient>
<linearGradient id="paint3_linear" x1="320.067" y1="167.651" x2="320.067" y2="258.999" gradientUnits="userSpaceOnUse">
<stop stop-color="#304F26" stop-opacity="0"/>
<stop offset="0.2844" stop-color="#2C4D23" stop-opacity="0.0569"/>
<stop offset="0.579" stop-color="#1F4719" stop-opacity="0.1158"/>
<stop offset="0.8773" stop-color="#0B3E09" stop-opacity="0.1755"/>
<stop offset="1" stop-color="#003900" stop-opacity="0.2"/>
</linearGradient>
<linearGradient id="paint4_linear" x1="15.1667" y1="111.646" x2="15.1667" y2="226.377" gradientUnits="userSpaceOnUse">
<stop stop-color="#00E35E"/>
<stop offset="1" stop-color="#00B248"/>
</linearGradient>
<linearGradient id="paint5_linear" x1="48.534" y1="68.3454" x2="48.534" y2="226.195" gradientUnits="userSpaceOnUse">
<stop stop-color="#00E35E"/>
<stop offset="1" stop-color="#00A332"/>
</linearGradient>
<linearGradient id="paint6_linear" x1="72.7996" y1="150.141" x2="72.7996" y2="227.141" gradientUnits="userSpaceOnUse">
<stop stop-color="#00E35E"/>
<stop offset="1" stop-color="#00B248"/>
</linearGradient>
<linearGradient id="paint7_linear" x1="57.6332" y1="150.518" x2="57.6332" y2="226" gradientUnits="userSpaceOnUse">
<stop stop-color="#304F26" stop-opacity="0"/>
<stop offset="0.2844" stop-color="#2C4D23" stop-opacity="0.0569"/>
<stop offset="0.579" stop-color="#1F4719" stop-opacity="0.1158"/>
<stop offset="0.8773" stop-color="#0B3E09" stop-opacity="0.1755"/>
<stop offset="1" stop-color="#003900" stop-opacity="0.2"/>
</linearGradient>
<linearGradient id="paint8_linear" x1="147.667" y1="24.4467" x2="147.667" y2="90.2159" gradientUnits="userSpaceOnUse">
<stop stop-color="#00E35E"/>
<stop offset="1" stop-color="#00B248"/>
</linearGradient>
<linearGradient id="paint9_linear" x1="166.733" y1="-0.375231" x2="166.733" y2="90.112" gradientUnits="userSpaceOnUse">
<stop stop-color="#00E35E"/>
<stop offset="1" stop-color="#00A332"/>
</linearGradient>
<linearGradient id="paint10_linear" x1="180.6" y1="46.514" x2="180.6" y2="90.654" gradientUnits="userSpaceOnUse">
<stop stop-color="#00E35E"/>
<stop offset="1" stop-color="#00B248"/>
</linearGradient>
<linearGradient id="paint11_linear" x1="171.933" y1="46.7301" x2="171.933" y2="90.0002" gradientUnits="userSpaceOnUse">
<stop stop-color="#304F26" stop-opacity="0"/>
<stop offset="0.2844" stop-color="#2C4D23" stop-opacity="0.0569"/>
<stop offset="0.579" stop-color="#1F4719" stop-opacity="0.1158"/>
<stop offset="0.8773" stop-color="#0B3E09" stop-opacity="0.1755"/>
<stop offset="1" stop-color="#003900" stop-opacity="0.2"/>
</linearGradient>
<linearGradient id="paint12_linear" x1="165.597" y1="231.581" x2="284.016" y2="231.581" gradientUnits="userSpaceOnUse">
<stop stop-color="#BBE2FF"/>
<stop offset="0.5013" stop-color="#ADDDFF"/>
<stop offset="1" stop-color="#A4DAFF"/>
</linearGradient>
<linearGradient id="paint13_linear" x1="266.483" y1="117.66" x2="239.579" y2="163.792" gradientUnits="userSpaceOnUse">
<stop stop-color="#E1F3FF"/>
<stop offset="0.2432" stop-color="#D8EFFF"/>
<stop offset="0.6383" stop-color="#C0E5FF"/>
<stop offset="1" stop-color="#A4DAFF"/>
</linearGradient>
<linearGradient id="paint14_linear" x1="240.25" y1="160.13" x2="262.704" y2="124.84" gradientUnits="userSpaceOnUse">
<stop stop-color="#3061E5" stop-opacity="0"/>
<stop offset="1" stop-color="#005FE0" stop-opacity="0.15"/>
</linearGradient>
<linearGradient id="paint15_linear" x1="233.667" y1="268.754" x2="265.889" y2="268.754" gradientUnits="userSpaceOnUse">
<stop stop-color="#E1F3FF"/>
<stop offset="0.0953" stop-color="#DCF1FF"/>
<stop offset="0.6555" stop-color="#C4E6FF"/>
<stop offset="1" stop-color="#BBE2FF"/>
</linearGradient>
<linearGradient id="paint16_linear" x1="182.11" y1="268.754" x2="214.332" y2="268.754" gradientUnits="userSpaceOnUse">
<stop stop-color="#E1F3FF"/>
<stop offset="0.1244" stop-color="#D4EDFF"/>
<stop offset="0.3309" stop-color="#C6E7FF"/>
<stop offset="0.5822" stop-color="#BEE3FF"/>
<stop offset="1" stop-color="#BBE2FF"/>
</linearGradient>
<linearGradient id="paint17_linear" x1="184.859" y1="117.66" x2="211.764" y2="163.792" gradientUnits="userSpaceOnUse">
<stop stop-color="#E1F3FF"/>
<stop offset="0.2432" stop-color="#D8EFFF"/>
<stop offset="0.6383" stop-color="#C0E5FF"/>
<stop offset="1" stop-color="#A4DAFF"/>
</linearGradient>
<linearGradient id="paint18_linear" x1="211.09" y1="160.13" x2="188.636" y2="124.84" gradientUnits="userSpaceOnUse">
<stop stop-color="#3061E5" stop-opacity="0"/>
<stop offset="1" stop-color="#005FE0" stop-opacity="0.15"/>
</linearGradient>
<linearGradient id="paint19_linear" x1="191.777" y1="181.478" x2="256.222" y2="181.478" gradientUnits="userSpaceOnUse">
<stop stop-color="#E1F3FF"/>
<stop offset="0.0953" stop-color="#DCF1FF"/>
<stop offset="0.6555" stop-color="#C4E6FF"/>
<stop offset="1" stop-color="#BBE2FF"/>
</linearGradient>
<linearGradient id="paint20_linear" x1="236.889" y1="179.73" x2="236.889" y2="186.61" gradientUnits="userSpaceOnUse">
<stop stop-color="#4C4B4B"/>
<stop offset="1" stop-color="#3A3838"/>
</linearGradient>
<linearGradient id="paint21_linear" x1="211.112" y1="179.73" x2="211.112" y2="186.61" gradientUnits="userSpaceOnUse">
<stop stop-color="#4C4B4B"/>
<stop offset="1" stop-color="#3A3838"/>
</linearGradient>
<linearGradient id="paint22_linear" x1="219.167" y1="194.408" x2="228.833" y2="194.408" gradientUnits="userSpaceOnUse">
<stop stop-color="#9AC6E8"/>
<stop offset="0.1952" stop-color="#9AC3E8"/>
<stop offset="1" stop-color="#9ABAE8"/>
</linearGradient>
<linearGradient id="paint23_linear" x1="233.667" y1="268.754" x2="265.889" y2="268.754" gradientUnits="userSpaceOnUse">
<stop stop-color="#E1F3FF"/>
<stop offset="0.1244" stop-color="#D4EDFF"/>
<stop offset="0.3309" stop-color="#C6E7FF"/>
<stop offset="0.5822" stop-color="#BEE3FF"/>
<stop offset="1" stop-color="#BBE2FF"/>
</linearGradient>
<linearGradient id="paint24_linear" x1="195.42" y1="209.213" x2="253.227" y2="209.213" gradientUnits="userSpaceOnUse">
<stop stop-color="#3061E5" stop-opacity="0"/>
<stop offset="1" stop-color="#005FE0" stop-opacity="0.1"/>
</linearGradient>
<linearGradient id="paint25_linear" x1="256.237" y1="260.067" x2="256.237" y2="277.381" gradientUnits="userSpaceOnUse">
<stop stop-color="#3061E5" stop-opacity="0"/>
<stop offset="0.29" stop-color="#2761E4" stop-opacity="0.0377"/>
<stop offset="0.7616" stop-color="#0F60E2" stop-opacity="0.099"/>
<stop offset="1" stop-color="#005FE0" stop-opacity="0.13"/>
</linearGradient>
<linearGradient id="paint26_linear" x1="204.683" y1="260.067" x2="204.683" y2="277.381" gradientUnits="userSpaceOnUse">
<stop stop-color="#3061E5" stop-opacity="0"/>
<stop offset="0.29" stop-color="#2761E4" stop-opacity="0.0377"/>
<stop offset="0.7616" stop-color="#0F60E2" stop-opacity="0.099"/>
<stop offset="1" stop-color="#005FE0" stop-opacity="0.13"/>
</linearGradient>
<linearGradient id="paint27_linear" x1="67.7811" y1="207.302" x2="132.095" y2="207.302" gradientUnits="userSpaceOnUse">
<stop stop-color="#BBE2FF"/>
<stop offset="0.5013" stop-color="#ADDDFF"/>
<stop offset="1" stop-color="#A4DAFF"/>
</linearGradient>
<linearGradient id="paint28_linear" x1="122.573" y1="145.359" x2="107.935" y2="170.427" gradientUnits="userSpaceOnUse">
<stop stop-color="#E1F3FF"/>
<stop offset="0.2432" stop-color="#D8EFFF"/>
<stop offset="0.6383" stop-color="#C0E5FF"/>
<stop offset="1" stop-color="#A4DAFF"/>
</linearGradient>
<linearGradient id="paint29_linear" x1="108.326" y1="168.451" x2="120.541" y2="149.275" gradientUnits="userSpaceOnUse">
<stop stop-color="#3061E5" stop-opacity="0"/>
<stop offset="1" stop-color="#005FE0" stop-opacity="0.15"/>
</linearGradient>
<linearGradient id="paint30_linear" x1="104.75" y1="227.516" x2="122.25" y2="227.516" gradientUnits="userSpaceOnUse">
<stop stop-color="#E1F3FF"/>
<stop offset="0.0953" stop-color="#DCF1FF"/>
<stop offset="0.6555" stop-color="#C4E6FF"/>
<stop offset="1" stop-color="#BBE2FF"/>
</linearGradient>
<linearGradient id="paint31_linear" x1="76.7489" y1="227.516" x2="94.2489" y2="227.516" gradientUnits="userSpaceOnUse">
<stop stop-color="#E1F3FF"/>
<stop offset="0.1244" stop-color="#D4EDFF"/>
<stop offset="0.3309" stop-color="#C6E7FF"/>
<stop offset="0.5822" stop-color="#BEE3FF"/>
<stop offset="1" stop-color="#BBE2FF"/>
</linearGradient>
<linearGradient id="paint32_linear" x1="78.242" y1="145.359" x2="92.8801" y2="170.427" gradientUnits="userSpaceOnUse">
<stop stop-color="#E1F3FF"/>
<stop offset="0.2432" stop-color="#D8EFFF"/>
<stop offset="0.6383" stop-color="#C0E5FF"/>
<stop offset="1" stop-color="#A4DAFF"/>
</linearGradient>
<linearGradient id="paint33_linear" x1="92.4879" y1="168.451" x2="80.2724" y2="149.275" gradientUnits="userSpaceOnUse">
<stop stop-color="#3061E5" stop-opacity="0"/>
<stop offset="1" stop-color="#005FE0" stop-opacity="0.15"/>
</linearGradient>
<linearGradient id="paint34_linear" x1="81.9999" y1="180.059" x2="117" y2="180.059" gradientUnits="userSpaceOnUse">
<stop stop-color="#E1F3FF"/>
<stop offset="0.0953" stop-color="#DCF1FF"/>
<stop offset="0.6555" stop-color="#C4E6FF"/>
<stop offset="1" stop-color="#BBE2FF"/>
</linearGradient>
<linearGradient id="paint35_linear" x1="106.5" y1="179.108" x2="106.5" y2="182.85" gradientUnits="userSpaceOnUse">
<stop stop-color="#4C4B4B"/>
<stop offset="1" stop-color="#3A3838"/>
</linearGradient>
<linearGradient id="paint36_linear" x1="92.5009" y1="179.108" x2="92.5009" y2="182.85" gradientUnits="userSpaceOnUse">
<stop stop-color="#4C4B4B"/>
<stop offset="1" stop-color="#3A3838"/>
</linearGradient>
<linearGradient id="paint37_linear" x1="96.8749" y1="187.09" x2="102.125" y2="187.09" gradientUnits="userSpaceOnUse">
<stop stop-color="#9AC6E8"/>
<stop offset="0.1952" stop-color="#9AC3E8"/>
<stop offset="1" stop-color="#9ABAE8"/>
</linearGradient>
<linearGradient id="paint38_linear" x1="104.75" y1="227.516" x2="122.25" y2="227.516" gradientUnits="userSpaceOnUse">
<stop stop-color="#E1F3FF"/>
<stop offset="0.1244" stop-color="#D4EDFF"/>
<stop offset="0.3309" stop-color="#C6E7FF"/>
<stop offset="0.5822" stop-color="#BEE3FF"/>
<stop offset="1" stop-color="#BBE2FF"/>
</linearGradient>
<linearGradient id="paint39_linear" x1="83.9784" y1="195.14" x2="115.374" y2="195.14" gradientUnits="userSpaceOnUse">
<stop stop-color="#3061E5" stop-opacity="0"/>
<stop offset="1" stop-color="#005FE0" stop-opacity="0.1"/>
</linearGradient>
<linearGradient id="paint40_linear" x1="117.008" y1="222.792" x2="117.008" y2="232.206" gradientUnits="userSpaceOnUse">
<stop stop-color="#3061E5" stop-opacity="0"/>
<stop offset="0.29" stop-color="#2761E4" stop-opacity="0.0377"/>
<stop offset="0.7616" stop-color="#0F60E2" stop-opacity="0.099"/>
<stop offset="1" stop-color="#005FE0" stop-opacity="0.13"/>
</linearGradient>
<linearGradient id="paint41_linear" x1="89.0087" y1="222.792" x2="89.0087" y2="232.206" gradientUnits="userSpaceOnUse">
<stop stop-color="#3061E5" stop-opacity="0"/>
<stop offset="0.29" stop-color="#2761E4" stop-opacity="0.0377"/>
<stop offset="0.7616" stop-color="#0F60E2" stop-opacity="0.099"/>
<stop offset="1" stop-color="#005FE0" stop-opacity="0.13"/>
</linearGradient>
<linearGradient id="paint42_linear" x1="130.83" y1="172.981" x2="180.852" y2="172.981" gradientUnits="userSpaceOnUse">
<stop stop-color="#BBE2FF"/>
<stop offset="0.5013" stop-color="#ADDDFF"/>
<stop offset="1" stop-color="#A4DAFF"/>
</linearGradient>
<linearGradient id="paint43_linear" x1="173.445" y1="125.279" x2="162.227" y2="144.681" gradientUnits="userSpaceOnUse">
<stop stop-color="#E1F3FF"/>
<stop offset="0.2432" stop-color="#D8EFFF"/>
<stop offset="0.6383" stop-color="#C0E5FF"/>
<stop offset="1" stop-color="#A4DAFF"/>
</linearGradient>
<linearGradient id="paint44_linear" x1="162.364" y1="143.06" x2="171.732" y2="128.208" gradientUnits="userSpaceOnUse">
<stop stop-color="#3061E5" stop-opacity="0"/>
<stop offset="1" stop-color="#005FE0" stop-opacity="0.15"/>
</linearGradient>
<linearGradient id="paint45_linear" x1="159.583" y1="188.547" x2="173.194" y2="188.547" gradientUnits="userSpaceOnUse">
<stop stop-color="#E1F3FF"/>
<stop offset="0.0953" stop-color="#DCF1FF"/>
<stop offset="0.6555" stop-color="#C4E6FF"/>
<stop offset="1" stop-color="#BBE2FF"/>
</linearGradient>
<linearGradient id="paint46_linear" x1="137.805" y1="188.547" x2="151.416" y2="188.547" gradientUnits="userSpaceOnUse">
<stop stop-color="#E1F3FF"/>
<stop offset="0.1244" stop-color="#D4EDFF"/>
<stop offset="0.3309" stop-color="#C6E7FF"/>
<stop offset="0.5822" stop-color="#BEE3FF"/>
<stop offset="1" stop-color="#BBE2FF"/>
</linearGradient>
<linearGradient id="paint47_linear" x1="138.966" y1="125.279" x2="150.184" y2="144.681" gradientUnits="userSpaceOnUse">
<stop stop-color="#E1F3FF"/>
<stop offset="0.2432" stop-color="#D8EFFF"/>
<stop offset="0.6383" stop-color="#C0E5FF"/>
<stop offset="1" stop-color="#A4DAFF"/>
</linearGradient>
<linearGradient id="paint48_linear" x1="150.047" y1="143.06" x2="140.679" y2="128.208" gradientUnits="userSpaceOnUse">
<stop stop-color="#3061E5" stop-opacity="0"/>
<stop offset="1" stop-color="#005FE0" stop-opacity="0.15"/>
</linearGradient>
<linearGradient id="paint49_linear" x1="141.889" y1="152.001" x2="169.111" y2="152.001" gradientUnits="userSpaceOnUse">
<stop stop-color="#E1F3FF"/>
<stop offset="0.0953" stop-color="#DCF1FF"/>
<stop offset="0.6555" stop-color="#C4E6FF"/>
<stop offset="1" stop-color="#BBE2FF"/>
</linearGradient>
<linearGradient id="paint50_linear" x1="160.944" y1="151.268" x2="160.944" y2="154.15" gradientUnits="userSpaceOnUse">
<stop stop-color="#4C4B4B"/>
<stop offset="1" stop-color="#3A3838"/>
</linearGradient>
<linearGradient id="paint51_linear" x1="150.056" y1="151.268" x2="150.056" y2="154.15" gradientUnits="userSpaceOnUse">
<stop stop-color="#4C4B4B"/>
<stop offset="1" stop-color="#3A3838"/>
</linearGradient>
<linearGradient id="paint52_linear" x1="153.458" y1="157.415" x2="157.541" y2="157.415" gradientUnits="userSpaceOnUse">
<stop stop-color="#9AC6E8"/>
<stop offset="0.1952" stop-color="#9AC3E8"/>
<stop offset="1" stop-color="#9ABAE8"/>
</linearGradient>
<linearGradient id="paint53_linear" x1="159.583" y1="188.547" x2="173.194" y2="188.547" gradientUnits="userSpaceOnUse">
<stop stop-color="#E1F3FF"/>
<stop offset="0.1244" stop-color="#D4EDFF"/>
<stop offset="0.3309" stop-color="#C6E7FF"/>
<stop offset="0.5822" stop-color="#BEE3FF"/>
<stop offset="1" stop-color="#BBE2FF"/>
</linearGradient>
<linearGradient id="paint54_linear" x1="143.428" y1="163.614" x2="167.846" y2="163.614" gradientUnits="userSpaceOnUse">
<stop stop-color="#3061E5" stop-opacity="0"/>
<stop offset="1" stop-color="#005FE0" stop-opacity="0.1"/>
</linearGradient>
<linearGradient id="paint55_linear" x1="169.116" y1="184.909" x2="169.116" y2="192.159" gradientUnits="userSpaceOnUse">
<stop stop-color="#3061E5" stop-opacity="0"/>
<stop offset="0.29" stop-color="#2761E4" stop-opacity="0.0377"/>
<stop offset="0.7616" stop-color="#0F60E2" stop-opacity="0.099"/>
<stop offset="1" stop-color="#005FE0" stop-opacity="0.13"/>
</linearGradient>
<linearGradient id="paint56_linear" x1="147.34" y1="184.909" x2="147.34" y2="192.159" gradientUnits="userSpaceOnUse">
<stop stop-color="#3061E5" stop-opacity="0"/>
<stop offset="0.29" stop-color="#2761E4" stop-opacity="0.0377"/>
<stop offset="0.7616" stop-color="#0F60E2" stop-opacity="0.099"/>
<stop offset="1" stop-color="#005FE0" stop-opacity="0.13"/>
</linearGradient>
<clipPath id="clip0">
<rect width="91" height="157" fill="white" transform="translate(0 69)"/>
</clipPath>
<clipPath id="clip1">
<rect width="52" height="90" fill="white" transform="translate(139)"/>
</clipPath>
<clipPath id="clip2">
<rect width="116" height="160" fill="white" transform="translate(166 117)"/>
</clipPath>
<clipPath id="clip3">
<rect width="63" height="87" fill="white" transform="translate(68 145)"/>
</clipPath>
<clipPath id="clip4">
<rect width="49" height="67" fill="white" transform="translate(131 125)"/>
</clipPath>
</defs>
</svg>
