<?xml version="1.0" encoding="UTF-8"?><svg version="1.1" id="online_x5F_shopping" xmlns="http://www.w3.org/2000/svg" xmlns:xlink="http://www.w3.org/1999/xlink" x="0px" y="0px" viewBox="0 0 93.3 99.5" style="enable-background:new 0 0 93.3 99.5;" xml:space="preserve" width="94px" height="100px">

<g>
	<g>
		
			<linearGradient id="SVGID_1_" gradientUnits="userSpaceOnUse" x1="90.4198" y1="544.3972" x2="66.2531" y2="506.5638" gradientTransform="matrix(1 0 0 -1 0 543.6644)">
			<stop offset="0" style="stop-color:#CDF3FF"/>
			<stop offset="0.1872" style="stop-color:#C4EEFF"/>
			<stop offset="0.4925" style="stop-color:#ACE1FF"/>
			<stop offset="0.8757" style="stop-color:#84CDFF"/>
			<stop offset="1" style="stop-color:#76C5FF"/>
		</linearGradient>
		<path d="M65.9,52.7l-10.4-6L75.6,5.2c2.4-4.9,8.4-6.7,13-4l0,0c4.7,2.7,6.1,8.8,3.1,13.3L65.9,52.7z" style="fill:url(#SVGID_1_);"/>
		
			<linearGradient id="SVGID_2_" gradientUnits="userSpaceOnUse" x1="67.0756" y1="506.6427" x2="87.2422" y2="539.6428" gradientTransform="matrix(1 0 0 -1 0 543.6644)">
			<stop offset="0" style="stop-color:#3061E5;stop-opacity:0"/>
			<stop offset="0.29" style="stop-color:#2761E4;stop-opacity:5.800000e-02"/>
			<stop offset="0.7616" style="stop-color:#0F60E2;stop-opacity:0.1523"/>
			<stop offset="1" style="stop-color:#005FE0;stop-opacity:0.2"/>
		</linearGradient>
		<path d="M64.4,47.3l-3.5-2l18-38.1c1.4-2.9,5-4,7.8-2.4l0,0c2.8,1.6,3.6,5.3,1.8,7.9L64.4,47.3z" style="fill:url(#SVGID_2_);"/>
		<path d="M88.7,12.3c-0.1,0.1-0.1,0.3-0.2,0.4L88,13.2c1-2.5,0-5.4-2.4-6.8s-5.4-0.8-7,1.3l0.3-0.6
			c1.4-2.9,5-4,7.8-2.4C89.3,6.2,90.2,9.6,88.7,12.3z" style="opacity:5.000000e-02;enable-background:new    ;"/>
		
			<linearGradient id="SVGID_3_" gradientUnits="userSpaceOnUse" x1="4.2238" y1="543.7078" x2="24.8904" y2="505.7078" gradientTransform="matrix(1 0 0 -1 0 543.6644)">
			<stop offset="0" style="stop-color:#CDF3FF"/>
			<stop offset="0.1872" style="stop-color:#C4EEFF"/>
			<stop offset="0.4925" style="stop-color:#ACE1FF"/>
			<stop offset="0.8757" style="stop-color:#84CDFF"/>
			<stop offset="1" style="stop-color:#76C5FF"/>
		</linearGradient>
		<path d="M27.5,52.7l10.4-6L17.7,5.2c-2.4-4.9-8.4-6.7-13-4l0,0C0,4-1.4,10.1,1.6,14.5L27.5,52.7z" style="fill:url(#SVGID_3_);"/>
		
			<linearGradient id="SVGID_4_" gradientUnits="userSpaceOnUse" x1="26.0717" y1="505.2376" x2="6.4051" y2="539.4044" gradientTransform="matrix(1 0 0 -1 0 543.6644)">
			<stop offset="0" style="stop-color:#3061E5;stop-opacity:0"/>
			<stop offset="0.29" style="stop-color:#2761E4;stop-opacity:5.800000e-02"/>
			<stop offset="0.7616" style="stop-color:#0F60E2;stop-opacity:0.1523"/>
			<stop offset="1" style="stop-color:#005FE0;stop-opacity:0.2"/>
		</linearGradient>
		<path d="M28.9,47.3l3.5-2l-18-38.1c-1.4-2.9-5-4-7.8-2.4l0,0C3.9,6.3,3,10,4.9,12.6L28.9,47.3z" style="fill:url(#SVGID_4_);"/>
		<path d="M4.6,12.3c0.1,0.1,0.1,0.3,0.2,0.4l0.4,0.6c-1-2.5,0-5.4,2.4-6.8s5.4-0.8,7,1.3l-0.3-0.6
			c-1.4-2.9-5-4-7.8-2.4C4,6.2,3.1,9.6,4.6,12.3z" style="opacity:5.000000e-02;enable-background:new    ;"/>
		
			<linearGradient id="SVGID_5_" gradientUnits="userSpaceOnUse" x1="46.659" y1="461.9155" x2="46.659" y2="514.9495" gradientTransform="matrix(1 0 0 -1 0 543.6644)">
			<stop offset="0" style="stop-color:#CCEDFF"/>
			<stop offset="0.1289" style="stop-color:#C5EAFF"/>
			<stop offset="0.6683" style="stop-color:#ADDEFF"/>
			<stop offset="1" style="stop-color:#A4DAFF"/>
		</linearGradient>
		<path d="M46.7,29.5L46.7,29.5c-19.9,0-36,16.1-36,36v16h72v-16C82.7,45.6,66.5,29.5,46.7,29.5z" style="fill:url(#SVGID_5_);"/>
		<circle cx="60.7" cy="63.5" r="6" style="fill:#FFFFFF;"/>
		<circle cx="32.7" cy="63.5" r="6" style="fill:#FFFFFF;"/>
		
			<linearGradient id="SVGID_6_" gradientUnits="userSpaceOnUse" x1="60.659" y1="486.6655" x2="60.659" y2="482.0388" gradientTransform="matrix(1 0 0 -1 0 543.6644)">
			<stop offset="0" style="stop-color:#259CE5"/>
			<stop offset="1.800000e-02" style="stop-color:#259BE4"/>
			<stop offset="0.6261" style="stop-color:#2183D3"/>
			<stop offset="1" style="stop-color:#1F7ACC"/>
		</linearGradient>
		<path d="M68.7,59.5c0,1.1-0.9,2-2,2h-12c-1.1,0-2-0.9-2-2l0,0c0-1.1,0.9-2,2-2h12C67.8,57.5,68.7,58.4,68.7,59.5
			L68.7,59.5z" style="fill:url(#SVGID_6_);"/>
		
			<linearGradient id="SVGID_7_" gradientUnits="userSpaceOnUse" x1="32.659" y1="486.6655" x2="32.659" y2="482.0388" gradientTransform="matrix(1 0 0 -1 0 543.6644)">
			<stop offset="0" style="stop-color:#259CE5"/>
			<stop offset="1.800000e-02" style="stop-color:#259BE4"/>
			<stop offset="0.6261" style="stop-color:#2183D3"/>
			<stop offset="1" style="stop-color:#1F7ACC"/>
		</linearGradient>
		<path d="M40.7,59.5c0,1.1-0.9,2-2,2h-12c-1.1,0-2-0.9-2-2l0,0c0-1.1,0.9-2,2-2h12C39.8,57.5,40.7,58.4,40.7,59.5
			L40.7,59.5z" style="fill:url(#SVGID_7_);"/>
		
			<linearGradient id="SVGID_8_" gradientUnits="userSpaceOnUse" x1="60.659" y1="482.353" x2="60.659" y2="478.2677" gradientTransform="matrix(1 0 0 -1 0 543.6644)">
			<stop offset="0" style="stop-color:#4C4B4B"/>
			<stop offset="1" style="stop-color:#3A3838"/>
		</linearGradient>
		<path d="M58.7,61.5v2c0,1.1,0.9,2,2,2s2-0.9,2-2v-2H58.7z" style="fill:url(#SVGID_8_);"/>
		
			<linearGradient id="SVGID_9_" gradientUnits="userSpaceOnUse" x1="32.659" y1="482.353" x2="32.659" y2="478.2677" gradientTransform="matrix(1 0 0 -1 0 543.6644)">
			<stop offset="0" style="stop-color:#4C4B4B"/>
			<stop offset="1" style="stop-color:#3A3838"/>
		</linearGradient>
		<path d="M30.7,61.5v2c0,1.1,0.9,2,2,2s2-0.9,2-2v-2H30.7z" style="fill:url(#SVGID_9_);"/>
		<path d="M74.7,99.5h12c2.2,0,4-1.8,4-4v-6c0-2.2-1.8-4-4-4h-12c-2.2,0-4,1.8-4,4v6C70.7,97.7,72.5,99.5,74.7,99.5z" style="opacity:7.000000e-02;enable-background:new    ;"/>
		<path d="M6.7,99.5h12c2.2,0,4-1.8,4-4v-6c0-2.2-1.8-4-4-4h-12c-2.2,0-4,1.8-4,4v6C2.7,97.7,4.5,99.5,6.7,99.5z" style="opacity:7.000000e-02;enable-background:new    ;"/>
		
			<linearGradient id="SVGID_10_" gradientUnits="userSpaceOnUse" x1="12.659" y1="447.4155" x2="12.659" y2="468.4534" gradientTransform="matrix(1 0 0 -1 0 543.6644)">
			<stop offset="0" style="stop-color:#CCEDFF"/>
			<stop offset="0.1289" style="stop-color:#C5EAFF"/>
			<stop offset="0.6683" style="stop-color:#ADDEFF"/>
			<stop offset="1" style="stop-color:#A4DAFF"/>
		</linearGradient>
		<path d="M16.7,95.5h-8c-3.3,0-6-2.7-6-6v-4c0-5.5,4.5-10,10-10l0,0c5.5,0,10,4.5,10,10v4
			C22.7,92.8,20,95.5,16.7,95.5z" style="fill:url(#SVGID_10_);"/>
		
			<linearGradient id="SVGID_11_" gradientUnits="userSpaceOnUse" x1="80.659" y1="447.4155" x2="80.659" y2="468.4534" gradientTransform="matrix(1 0 0 -1 0 543.6644)">
			<stop offset="0" style="stop-color:#CCEDFF"/>
			<stop offset="0.1289" style="stop-color:#C5EAFF"/>
			<stop offset="0.6683" style="stop-color:#ADDEFF"/>
			<stop offset="1" style="stop-color:#A4DAFF"/>
		</linearGradient>
		<path d="M84.7,95.5h-8c-3.3,0-6-2.7-6-6v-4c0-5.5,4.5-10,10-10l0,0c5.5,0,10,4.5,10,10v4
			C90.7,92.8,88,95.5,84.7,95.5z" style="fill:url(#SVGID_11_);"/>
		
			<linearGradient id="SVGID_12_" gradientUnits="userSpaceOnUse" x1="32.4612" y1="496.4996" x2="32.4612" y2="509.1542" gradientTransform="matrix(1 0 0 -1 0 543.6644)">
			<stop offset="0" style="stop-color:#FFFFED;stop-opacity:0"/>
			<stop offset="1" style="stop-color:#FFFFFF;stop-opacity:0.4"/>
		</linearGradient>
		<path d="M26.3,45.5c-0.5,0-1.1-0.2-1.5-0.6C24,44,24.1,42.8,24.9,42c3.7-3.5,8.3-6,13.2-7.4c1.1-0.3,2.2,0.3,2.5,1.4
			s-0.3,2.2-1.4,2.5c-4.3,1.2-8.3,3.4-11.6,6.5C27.2,45.3,26.8,45.5,26.3,45.5z" style="fill:url(#SVGID_12_);"/>
	</g>
	
		<linearGradient id="SVGID_13_" gradientUnits="userSpaceOnUse" x1="46.658" y1="475.5413" x2="46.658" y2="466.7017" gradientTransform="matrix(1 0 0 -1 0 543.6644)">
		<stop offset="0" style="stop-color:#259CE5"/>
		<stop offset="1.800000e-02" style="stop-color:#259BE4"/>
		<stop offset="0.6261" style="stop-color:#2183D3"/>
		<stop offset="1" style="stop-color:#1F7ACC"/>
	</linearGradient>
	<circle cx="46.7" cy="72.5" r="4" style="fill:url(#SVGID_13_);"/>
</g>
</svg>