<svg width="757" height="381" viewBox="0 0 757 381" fill="none" xmlns="http://www.w3.org/2000/svg">
<path d="M262.5 159C289.5 141.5 352.1 98.1 386.5 64.5C420.9 30.9 420.5 62.8333 416 83C423 119 451.6 193.2 510 202C568.4 210.8 587.333 114 589.5 64.5C589.833 49 594 21.7 608 36.5C625.5 55 611 53.5 619.5 77C628 100.5 645.5 155 713.5 178.5" stroke="url(#paint0_linear)" stroke-width="20" stroke-dasharray="4 4"/>
<circle cx="384.5" cy="65.5" r="41.5" fill="white"/>
<circle cx="517.5" cy="206.5" r="45.5" fill="white"/>
<circle cx="604.5" cy="57.5" r="41.5" fill="white"/>
<circle cx="712.5" cy="172.5" r="41.5" fill="white"/>
<path d="M518.5 254C544.181 254 565 233.181 565 207.5C565 181.819 544.181 161 518.5 161C492.819 161 472 181.819 472 207.5C472 233.181 492.819 254 518.5 254Z" fill="url(#paint1_linear)"/>
<path d="M384.5 107C407.42 107 426 88.4198 426 65.4997C426 42.5802 407.42 24 384.5 24C361.58 24 343 42.5802 343 65.4997C343 88.4198 361.58 107 384.5 107Z" fill="url(#paint2_linear)"/>
<path d="M444 50C444 45.8029 440.196 42 435.503 42C431.394 42 427.966 44.7238 427.177 48.3612C426.116 47.0397 424.432 46.2034 422.534 46.2034C419.947 46.2034 417.755 47.9015 417 50H444Z" fill="url(#paint3_linear)"/>
<path d="M441 72C441 67.8029 444.804 64 449.497 64C453.606 64 457.033 66.7238 457.823 70.3612C458.884 69.0397 460.568 68.2034 462.466 68.2034C465.053 68.2034 467.245 69.9015 468 72H441Z" fill="url(#paint4_linear)"/>
<path d="M407.5 77V77.014L392 114H407.5H423L407.5 77Z" fill="url(#paint5_linear)"/>
<path d="M442 100H434V114H442V100Z" fill="url(#paint6_linear)"/>
<path d="M435.546 108C435.407 108 435.266 107.959 435.16 107.876C434.947 107.709 434.947 107.44 435.16 107.274L435.774 106.776C435.876 106.697 435.907 106.592 435.907 106.48V103.426C435.907 103.19 436.152 103 436.454 103C436.755 103 437 103.19 437 103.426V106.48C437 106.819 436.855 107.138 436.547 107.377L435.92 107.876C435.814 107.959 435.686 108 435.546 108Z" fill="#CE5029"/>
<path d="M438 114V111.121C438 110.755 438.151 110.411 438.391 110.152L440.271 108.134C440.436 107.955 440.709 107.955 440.875 108.134C441.04 108.313 441.042 108.602 440.877 108.781L438.989 110.798C438.909 110.885 438.847 110.999 438.847 111.121V114H438Z" fill="#CE5029"/>
<path d="M438.5 105C438.224 105 438 104.821 438 104.6V103.4C438 103.179 438.224 103 438.5 103C438.776 103 439 103.179 439 103.4V104.6C439 104.821 438.776 105 438.5 105Z" fill="#CE5029"/>
<path d="M436.434 111C436.323 111 436.212 110.956 436.127 110.867C435.958 110.689 435.958 110.402 436.127 110.224L438.026 108.216C438.105 108.133 438.132 108.016 438.132 107.898V106.454C438.132 106.203 438.326 106 438.566 106C438.806 106 439 106.203 439 106.454V107.898C439 108.256 438.881 108.606 438.64 108.859L436.731 110.867C436.647 110.956 436.545 111 436.434 111Z" fill="#CE5029"/>
<path d="M440 114V112.39C440 112.175 440.223 112 440.5 112C440.776 112 441 112.175 441 112.39V114H440Z" fill="#CE5029"/>
<path d="M440.5 107C440.223 107 440 106.801 440 106.556V103.445C440 103.199 440.223 103 440.5 103C440.776 103 441 103.199 441 103.445V106.556C441 106.801 440.776 107 440.5 107Z" fill="#CE5029"/>
<path d="M436 114V112.39C436 112.175 436.224 112 436.5 112C436.777 112 437 112.175 437 112.39V114H436Z" fill="#CE5029"/>
<path d="M442 102H434V106H442V102Z" fill="url(#paint7_linear)"/>
<path d="M465.051 94.2728C451.607 88.5862 441.374 62.0878 441.374 62.0878C437.554 55.1403 434.499 62.0878 434.499 62.0878C434.499 62.0878 424.33 88.4204 410.948 94.2185C409.695 94.7618 409.678 96.5338 410.935 97.068C429.64 105.021 447.68 104.92 465.084 97.1087C466.322 96.5536 466.3 94.8008 465.051 94.2728Z" fill="url(#paint8_linear)"/>
<path d="M460.203 75.6609C448.92 70.8794 440.332 48.5963 440.332 48.5963C437.126 42.7546 434.562 48.5963 434.562 48.5963C434.562 48.5963 426.027 70.74 414.796 75.6154C413.744 76.0722 413.729 77.5623 414.784 78.0116C430.483 84.6992 445.625 84.615 460.231 78.0458C461.27 77.5788 461.252 76.1051 460.203 75.6609Z" fill="url(#paint9_linear)"/>
<path d="M453.441 56.8429C445.518 53.4828 439.488 37.8246 439.488 37.8246C437.238 33.7192 435.437 37.8246 435.437 37.8246C435.437 37.8246 429.444 53.385 421.559 56.8113C420.82 57.1321 420.81 58.1791 421.551 58.4948C432.574 63.194 443.205 63.1348 453.461 58.5189C454.189 58.1906 454.176 57.1551 453.441 56.8429Z" fill="url(#paint10_linear)"/>
<path d="M445 113.507C445 111.57 446.567 110 448.5 110C450.433 110 452 111.57 452 113.507V114H445V113.507Z" fill="url(#paint11_linear)"/>
<path d="M448 113.157V114H442V108C442.462 108 442.624 108.02 442.923 108.06C445.799 108.441 448 110.579 448 113.157Z" fill="url(#paint12_linear)"/>
<path d="M431 113.507C431 111.57 429.433 110 427.5 110C425.567 110 424 111.57 424 113.507V114H431V113.507Z" fill="url(#paint13_linear)"/>
<path d="M434 108V114H428V113.157C428 110.579 430.201 108.441 433.077 108.06C433.377 108.02 433.538 108 434 108Z" fill="url(#paint14_linear)"/>
<path d="M438.49 100C432.252 100 425.955 99.2048 419.64 97.6144C419.17 97.4956 418.899 97.0674 419.035 96.6581C419.171 96.2483 419.663 96.0118 420.133 96.1306C432.56 99.2612 444.915 99.2286 456.853 96.0342C457.322 95.9091 457.817 96.1379 457.961 96.5457C458.105 96.953 457.841 97.3852 457.374 97.5102C451.172 99.1702 444.861 100 438.49 100Z" fill="url(#paint15_linear)"/>
<path d="M437.841 80C433.815 80 429.763 79.6152 425.707 78.8441C425.222 78.7521 424.914 78.3379 425.021 77.9188C425.128 77.4998 425.609 77.2334 426.094 77.3269C434.448 78.9141 442.786 78.8123 450.877 77.0244C451.359 76.9182 451.848 77.1688 451.972 77.5845C452.095 78.0001 451.804 78.4231 451.323 78.5293C446.889 79.5095 442.382 80 437.841 80Z" fill="url(#paint16_linear)"/>
<path d="M437.745 59C435.069 59 432.376 58.7058 429.681 58.1173C429.214 58.015 428.918 57.5529 429.02 57.0847C429.122 56.6166 429.583 56.3207 430.048 56.4213C435.735 57.6634 441.407 57.5321 446.908 56.0308C447.37 55.9045 447.844 56.178 447.97 56.6406C448.095 57.1033 447.823 57.5802 447.362 57.7055C444.201 58.5685 440.985 59 437.745 59Z" fill="url(#paint17_linear)"/>
<path d="M408 77L392.725 114H346L346.57 112.586L346.957 111.663L361.275 77H408Z" fill="url(#paint18_linear)"/>
<path d="M364.217 42C361.129 42 358.528 44.1492 357.707 47.0879C356.832 46.548 355.812 46.2645 354.721 46.2645C351.941 46.2645 349.612 48.1764 349 51H370.756C370.915 50.5296 371 49.7406 371 49.0881C371 45.1896 367.963 42 364.217 42Z" fill="url(#paint19_linear)"/>
<path d="M349 114H347.846L346.701 112.72L342.103 107.673C341.946 107.501 341.971 107.24 342.16 107.097V107.094C342.347 106.951 342.627 106.973 342.783 107.144L347.081 111.874L349 114Z" fill="url(#paint20_linear)"/>
<path d="M362 77H361V72.4492C361 72.2011 361.247 72 361.523 72H361.511C361.787 72 362 72.2011 362 72.4492V77Z" fill="url(#paint21_linear)"/>
<path d="M342.229 109C342.194 109 342.157 108.992 342.123 108.975C342.011 108.918 341.967 108.784 342.026 108.674L360.734 74.0908C360.774 74.0179 360.852 74 360.937 74H362.77C362.897 74 363 74.0993 363 74.2221C363 74.3454 362.897 74.4447 362.77 74.4447H361.076L342.432 108.909C342.391 108.984 342.312 109 342.229 109Z" fill="#FF601A"/>
<path d="M363.296 83L361 88H383V83H363.296Z" fill="url(#paint22_linear)"/>
<path d="M368.548 112H350.452C350.203 112 350 111.776 350 111.5C350 111.224 350.203 111 350.452 111H368.548C368.797 111 369 111.224 369 111.5C369 111.776 368.797 112 368.548 112Z" fill="#E8830A"/>
<path d="M362.542 109H352.458C352.205 109 352 108.776 352 108.5C352 108.224 352.205 108 352.458 108H362.542C362.795 108 363 108.224 363 108.5C363 108.776 362.795 109 362.542 109Z" fill="#E8830A"/>
<path d="M370.5 112H366.5C366.224 112 366 111.776 366 111.5C366 111.224 366.224 111 366.5 111H370.5C370.776 111 371 111.224 371 111.5C371 111.776 370.776 112 370.5 112Z" fill="#E8830A"/>
<path d="M362.5 109H361.5C361.224 109 361 108.776 361 108.5C361 108.224 361.224 108 361.5 108H362.5C362.776 108 363 108.224 363 108.5C363 108.776 362.776 109 362.5 109Z" fill="#E8830A"/>
<path d="M356.625 106H354.375C354.168 106 354 105.776 354 105.5C354 105.224 354.168 105 354.375 105H356.625C356.832 105 357 105.224 357 105.5C357 105.776 356.833 106 356.625 106Z" fill="#E8830A"/>
<path opacity="0.15" d="M399.325 97L398 101.246V104L400 97.7914L399.325 97Z" fill="black"/>
<path d="M385.999 46.5786C384.634 51.4346 380.092 55 374.713 55C374.506 55 374.295 54.9955 374.083 54.9822C373.979 54.9777 373.875 54.9732 373.772 54.9599C373.569 54.9509 373.366 54.9292 373.164 54.9024C372.33 54.7965 371.524 54.6019 370.758 54.3321C370.42 54.2122 370.086 54.0795 369.767 53.934C369.659 53.885 369.555 53.8364 369.451 53.7835C367.406 52.766 365.699 51.1782 364.555 49.2363C363.888 48.1001 363.41 46.844 363.176 45.5081C363.135 45.2734 363.099 45.0392 363.072 44.8001C362.811 42.4473 363.27 40.2133 364.271 38.2937C365.203 36.4807 366.618 34.9458 368.348 33.8488C370.181 32.6767 372.366 32 374.713 32C376.705 32 378.583 32.491 380.228 33.3534C380.232 33.3534 380.232 33.3623 380.223 33.3623C380.201 33.3623 380.178 33.3579 380.156 33.3579C375.898 32.9863 371.97 35.9098 371.24 40.0455C370.326 45.2115 374.353 49.6924 379.443 49.6924C382.097 49.6924 384.463 48.4714 385.99 46.5741C385.994 46.5652 386.003 46.5697 385.999 46.5786Z" fill="url(#paint23_linear)"/>
<path d="M383 49.069C381.523 50.2738 379.628 51 377.567 51C372.334 51 368.194 46.3428 369.134 40.9728C369.592 38.3474 371.278 36.1956 373.515 35C371.987 36.2414 370.88 38.0072 370.523 40.053C369.583 45.4231 373.724 50.0809 378.957 50.0809C380.42 50.0809 381.796 49.7175 383 49.069Z" fill="url(#paint24_linear)"/>
<path d="M369 35.7654C369 37.5537 367.463 39 365.562 39C364.997 39 364.466 38.8754 364 38.6441C365.017 36.7498 366.559 35.1462 368.445 34C368.799 34.5083 369 35.1136 369 35.7654Z" fill="url(#paint25_linear)"/>
<path d="M374 54.692C374 54.797 373.984 54.9015 373.954 55C373.721 54.9932 373.489 54.9761 373.256 54.9556C372.301 54.8746 371.376 54.7257 370.498 54.5193C370.11 54.428 369.728 54.3265 369.361 54.2148C369.237 54.1777 369.118 54.1401 369 54.0996C369.366 53.4568 370.312 53 371.417 53C372.843 53 374 53.7579 374 54.692Z" fill="url(#paint26_linear)"/>
<path d="M382 83V83.9092H364.068L362.276 88H361L363.192 83H382Z" fill="url(#paint27_linear)"/>
<path d="M468 114H342V116H468V114Z" fill="url(#paint28_linear)"/>
<path d="M371.102 65.0751L371.449 66.1952C371.501 66.3651 371.635 66.4983 371.805 66.5511L372.925 66.8982C373.025 66.929 373.025 67.071 372.925 67.1018L371.805 67.4489C371.635 67.5012 371.502 67.6343 371.449 67.8048L371.102 68.9249C371.071 69.025 370.929 69.025 370.898 68.9249L370.551 67.8048C370.499 67.6349 370.366 67.5017 370.195 67.4489L369.075 67.1018C368.975 67.071 368.975 66.929 369.075 66.8982L370.195 66.5511C370.365 66.4988 370.499 66.3657 370.551 66.1952L370.898 65.0751C370.929 64.975 371.071 64.975 371.102 65.0751Z" fill="url(#paint29_linear)"/>
<path d="M413.102 42.0755L413.449 43.1954C413.501 43.3654 413.634 43.4985 413.804 43.5513L414.925 43.8984C415.025 43.9292 415.025 44.0706 414.925 44.102L413.804 44.4491C413.635 44.5013 413.501 44.6344 413.449 44.8044L413.102 45.9249C413.071 46.025 412.929 46.025 412.898 45.9249L412.551 44.8044C412.498 44.6344 412.365 44.5013 412.195 44.4491L411.075 44.102C410.975 44.0706 410.975 43.9292 411.075 43.8984L412.195 43.5513C412.365 43.4985 412.498 43.3654 412.551 43.1954L412.898 42.0755C412.929 41.9748 413.071 41.9748 413.102 42.0755Z" fill="url(#paint30_linear)"/>
<path d="M390.102 37.0751L390.449 38.1957C390.501 38.3657 390.635 38.4983 390.805 38.5511L391.925 38.8982C392.025 38.929 392.025 39.071 391.925 39.1018L390.805 39.4489C390.635 39.5017 390.501 39.6349 390.449 39.8048L390.102 40.9249C390.071 41.025 389.929 41.025 389.898 40.9249L389.551 39.8048C389.499 39.6349 389.365 39.5017 389.195 39.4489L388.075 39.1018C387.975 39.071 387.975 38.929 388.075 38.8982L389.195 38.5511C389.365 38.4988 389.498 38.3657 389.551 38.1957L389.898 37.0751C389.929 36.975 390.071 36.975 390.102 37.0751Z" fill="url(#paint31_linear)"/>
<path d="M343.239 110C343.178 110 343.117 109.977 343.07 109.93C342.977 109.837 342.977 109.686 343.07 109.592L344.592 108.07C344.686 107.977 344.836 107.977 344.93 108.07C345.023 108.164 345.023 108.314 344.93 108.408L343.407 109.93C343.361 109.977 343.3 110 343.239 110Z" fill="#FF601A"/>
<path d="M343.212 111C343.158 111 343.104 110.979 343.062 110.937C342.979 110.855 342.979 110.721 343.062 110.638L344.638 109.062C344.721 108.979 344.855 108.979 344.938 109.062C345.021 109.145 345.021 109.279 344.938 109.362L343.362 110.937C343.321 110.979 343.266 111 343.212 111Z" fill="#FF601A"/>
<path d="M354.628 61.0751L355.061 62.1952C355.126 62.3651 355.293 62.4983 355.506 62.5511L356.906 62.8982C357.031 62.929 357.031 63.071 356.906 63.1018L355.506 63.4489C355.293 63.5012 355.127 63.6343 355.061 63.8048L354.628 64.9249C354.588 65.025 354.411 65.025 354.373 64.9249L353.939 63.8048C353.873 63.6349 353.707 63.5017 353.494 63.4489L352.094 63.1018C351.969 63.071 351.969 62.929 352.094 62.8982L353.494 62.5511C353.707 62.4988 353.873 62.3657 353.939 62.1952L354.373 61.0751C354.411 60.975 354.588 60.975 354.628 61.0751Z" fill="url(#paint32_linear)"/>
<path d="M361.898 78H361.651H359.575V78.4448H361.469L348 110.817L348.42 111L361.957 78.4448H376V78H361.898Z" fill="#E28807"/>
<path d="M424.102 35.0751L424.449 36.1952C424.501 36.3652 424.634 36.4983 424.804 36.5511L425.925 36.8982C426.025 36.929 426.025 37.071 425.925 37.1018L424.804 37.4489C424.635 37.5012 424.501 37.6343 424.449 37.8048L424.102 38.9249C424.071 39.025 423.929 39.025 423.898 38.9249L423.551 37.8048C423.498 37.6348 423.366 37.5017 423.195 37.4489L422.075 37.1018C421.975 37.071 421.975 36.929 422.075 36.8982L423.195 36.5511C423.366 36.4988 423.498 36.3657 423.551 36.1952L423.898 35.0751C423.929 34.975 424.071 34.975 424.102 35.0751Z" fill="url(#paint33_linear)"/>
<path d="M366 49C367.104 49 368 48.105 368 47C368 45.8951 367.104 45 366 45C364.895 45 364 45.8951 364 47C364 48.105 364.895 49 366 49Z" fill="url(#paint34_linear)"/>
<path d="M465.115 97.2086C464.525 97.4845 463.94 97.7468 463.35 98C463.221 97.6066 462.941 97.2536 462.506 97.0637C456.923 94.6073 451.904 88.2923 448 81.8781C449.244 81.6335 450.484 81.3393 451.724 81C455.447 86.7499 460.031 92.1281 465.08 94.3496C466.29 94.8833 466.311 96.6475 465.115 97.2086Z" fill="url(#paint35_linear)"/>
<path d="M460.212 78.1192C459.503 78.4274 458.799 78.7182 458.085 79C457.953 78.7627 457.733 78.5616 457.436 78.4409C451.154 75.8706 445.685 68.1848 442 61.7022C443.308 61.541 444.611 61.3043 445.905 61C449.535 66.9912 454.528 73.4428 460.18 75.7584C461.259 76.1969 461.277 77.6587 460.212 78.1192Z" fill="url(#paint36_linear)"/>
<path d="M453.46 58.8829C452.566 59.2907 451.673 59.6617 450.775 60C450.752 59.9813 450.725 59.9725 450.698 59.9585C442.757 56.5471 436.71 40.6351 436.71 40.6351C436.096 39.504 435.519 38.9846 435 38.8321C435.257 38.2111 435.392 37.8541 435.392 37.8541C435.392 37.8541 437.197 33.6824 439.453 37.8541C439.453 37.8541 445.495 53.7661 453.437 57.1775C454.177 57.4971 454.191 58.5493 453.46 58.8829Z" fill="url(#paint37_linear)"/>
<path d="M443 108.06V114H442V108C442.5 108 442.5 108.02 443 108.06Z" fill="url(#paint38_linear)"/>
<path d="M360 49C359.457 48.297 358.777 47.6923 358 47.2255C358.234 46.4282 358.594 45.6809 359.057 45C359.794 46.4171 360.011 47.8184 360 49Z" fill="url(#paint39_linear)"/>
<path d="M492.333 198.529C492.216 198.529 492.102 198.539 491.986 198.547C493.041 197.131 493.667 195.368 493.667 193.456C493.667 188.786 489.936 185 485.333 185C481.715 185 478.637 187.341 477.485 190.611C476.338 189.443 474.753 188.721 473 188.721C469.502 188.721 466.667 191.598 466.667 195.147C466.667 195.875 466.791 196.572 467.012 197.225C466.789 197.196 466.564 197.176 466.333 197.176C463.388 197.176 461 199.6 461 202.588C461 205.577 463.388 208 466.333 208H492.333C494.911 208 497 205.88 497 203.265C497 200.649 494.911 198.529 492.333 198.529Z" fill="url(#paint40_linear)"/>
<path d="M438.348 148.479C438.011 148.479 437.738 148.209 437.738 147.875C437.738 145.654 436.313 143.693 434.192 142.993C433.872 142.887 433.699 142.545 433.805 142.228C433.912 141.91 434.257 141.74 434.577 141.844C437.197 142.709 438.958 145.132 438.958 147.875C438.958 148.209 438.684 148.479 438.348 148.479Z" fill="url(#paint41_linear)"/>
<path d="M427.069 148.782L427.032 148.739C426.883 147.415 426.276 146.223 425.377 145.33C425.694 144.453 426.167 143.648 426.767 142.955C427.566 146.322 427.069 148.782 427.069 148.782Z" fill="url(#paint42_linear)"/>
<path d="M418.546 152.54C417.811 151.844 416.857 151.372 415.796 151.242C415.598 150.676 415.491 150.068 415.485 149.439C417.132 149.787 418.104 151.511 418.546 152.54Z" fill="url(#paint43_linear)"/>
<path d="M570.611 188.176C570.426 188.176 570.244 188.191 570.062 188.204C571.731 185.988 572.722 183.228 572.722 180.235C572.722 172.926 566.815 167 559.528 167C553.799 167 548.925 170.663 547.101 175.782C545.286 173.954 542.775 172.824 540 172.824C534.462 172.824 529.972 177.327 529.972 182.882C529.972 184.022 530.17 185.113 530.518 186.135C530.166 186.09 529.809 186.059 529.444 186.059C524.781 186.059 521 189.851 521 194.529C521 199.207 524.781 203 529.444 203H570.611C574.692 203 578 199.682 578 195.588C578 191.495 574.692 188.176 570.611 188.176Z" fill="url(#paint44_linear)"/>
<path d="M509.678 136.538C509.147 136.538 508.717 136.112 508.717 135.586C508.717 132.091 506.47 129.002 503.125 127.9C502.62 127.734 502.348 127.195 502.515 126.695C502.683 126.196 503.227 125.927 503.731 126.092C507.863 127.453 510.64 131.268 510.64 135.586C510.64 136.112 510.209 136.538 509.678 136.538Z" fill="url(#paint45_linear)"/>
<path d="M491.892 137.015L491.834 136.948C491.599 134.862 490.642 132.985 489.224 131.58C489.724 130.199 490.469 128.932 491.416 127.841C492.675 133.142 491.892 137.015 491.892 137.015Z" fill="url(#paint46_linear)"/>
<path d="M478.452 142.932C477.294 141.836 475.789 141.093 474.116 140.888C473.804 139.998 473.636 139.04 473.626 138.049C476.222 138.597 477.755 141.312 478.452 142.932Z" fill="url(#paint47_linear)"/>
<path d="M264.11 234.856C309.798 234.856 346.836 199.876 346.836 156.725C346.836 113.575 309.798 78.5951 264.11 78.5951C218.421 78.5951 181.384 113.575 181.384 156.725C181.384 199.876 218.421 234.856 264.11 234.856Z" fill="url(#paint48_radial)"/>
<path d="M535.296 227.47C535.153 227.47 535.013 227.482 534.872 227.492C536.161 225.768 536.926 223.622 536.926 221.294C536.926 215.609 532.366 211 526.741 211C522.319 211 518.556 213.849 517.148 217.83C515.747 216.409 513.809 215.53 511.667 215.53C507.392 215.53 503.926 219.032 503.926 223.353C503.926 224.24 504.079 225.088 504.348 225.883C504.075 225.848 503.8 225.823 503.518 225.823C499.918 225.823 497 228.773 497 232.412C497 236.05 499.918 239 503.518 239H535.296C538.447 239 541 236.419 541 233.235C541 230.051 538.447 227.47 535.296 227.47Z" fill="url(#paint49_linear)"/>
<path d="M477.288 173.853C476.878 173.853 476.546 173.525 476.546 173.119C476.546 170.426 474.81 168.048 472.226 167.199C471.837 167.071 471.627 166.656 471.756 166.271C471.885 165.886 472.306 165.679 472.695 165.806C475.886 166.854 478.031 169.794 478.031 173.119C478.031 173.525 477.698 173.853 477.288 173.853Z" fill="url(#paint50_linear)"/>
<path d="M463.55 174.22L463.506 174.169C463.324 172.562 462.585 171.116 461.49 170.034C461.876 168.97 462.451 167.994 463.183 167.154C464.156 171.238 463.55 174.22 463.55 174.22Z" fill="url(#paint51_linear)"/>
<path d="M453.17 178.777C452.276 177.934 451.114 177.361 449.821 177.203C449.58 176.518 449.45 175.78 449.443 175.017C451.448 175.439 452.632 177.53 453.17 178.777Z" fill="url(#paint52_linear)"/>
<path d="M264.329 198.964C288.382 198.964 307.88 179.465 307.88 155.412C307.88 131.359 288.382 111.861 264.329 111.861C240.276 111.861 220.777 131.359 220.777 155.412C220.777 179.465 240.276 198.964 264.329 198.964Z" fill="url(#paint53_linear)"/>
<path d="M288.476 193.274H275.052V154.941C275.052 151.747 278.073 149.133 281.764 149.133C285.455 149.133 288.476 151.747 288.476 154.941V193.274Z" fill="url(#paint54_linear)"/>
<path d="M296.529 132.87C300.959 132.87 304.583 136.007 304.583 139.84V193.274H288.476V139.84C288.476 136.007 292.1 132.87 296.529 132.87Z" fill="url(#paint55_linear)"/>
<path d="M307.267 164.234C311.697 164.234 315.321 167.37 315.321 171.203V193.274H299.213V171.203C299.213 167.37 302.838 164.234 307.267 164.234Z" fill="url(#paint56_linear)"/>
<path d="M304.583 164.234V164.64C301.898 165.57 299.214 168.183 299.214 171.203V193.274H296.529V171.203C296.529 167.37 300.556 164.234 304.583 164.234Z" fill="url(#paint57_linear)"/>
<path d="M236.972 198.526H228.656V170.749C228.656 168.434 230.527 166.54 232.814 166.54C235.101 166.54 236.972 168.434 236.972 170.749V198.526Z" fill="url(#paint58_linear)"/>
<path d="M241.962 154.756C244.706 154.756 246.952 157.028 246.952 159.806V198.526H236.972V159.806C236.972 157.028 239.218 154.756 241.962 154.756Z" fill="url(#paint59_linear)"/>
<path d="M248.615 177.483C251.359 177.483 253.605 179.755 253.605 182.533V198.526H243.625V182.533C243.625 179.755 245.871 177.483 248.615 177.483Z" fill="url(#paint60_linear)"/>
<path d="M246.951 177.483V177.777C245.288 178.45 243.625 180.344 243.625 182.533V198.526H241.961V182.533C241.961 179.755 244.456 177.483 246.951 177.483Z" fill="url(#paint61_linear)"/>
<path d="M257.106 146.877H252.292V131.044C252.292 129.725 253.375 128.645 254.699 128.645C256.023 128.645 257.106 129.725 257.106 131.044V146.877Z" fill="url(#paint62_linear)"/>
<path d="M259.995 121.928C261.584 121.928 262.884 123.223 262.884 124.807V146.877H257.106V124.807C257.106 123.223 258.406 121.928 259.995 121.928Z" fill="url(#paint63_linear)"/>
<path d="M263.848 134.882C265.436 134.882 266.736 136.178 266.736 137.761V146.877H260.959V137.761C260.959 136.178 262.259 134.882 263.848 134.882Z" fill="url(#paint64_linear)"/>
<path d="M262.885 134.882V135.05C261.922 135.434 260.959 136.514 260.959 137.761V146.877H259.996V137.761C259.996 136.178 261.44 134.882 262.885 134.882Z" fill="url(#paint65_linear)"/>
<path d="M234.127 135.934C240.05 135.934 244.851 131.133 244.851 125.211C244.851 119.288 240.05 114.487 234.127 114.487C228.205 114.487 223.403 119.288 223.403 125.211C223.403 131.133 228.205 135.934 234.127 135.934Z" fill="url(#paint66_linear)"/>
<path d="M288.84 116.238L289.675 118.808H292.379L290.192 120.397L291.027 122.968L288.84 121.379L286.653 122.968L287.489 120.397L285.302 118.808H288.005L288.84 116.238Z" fill="#FFF5C0"/>
<path d="M240.036 140.312L240.921 142.882H243.783L241.467 144.471L242.352 147.042L240.036 145.453L237.721 147.042L238.605 144.471L236.289 142.882H239.151L240.036 140.312Z" fill="#FFF5C0"/>
<path d="M252.292 156.069L252.881 157.884H254.789L253.246 159.005L253.836 160.82L252.292 159.698L250.748 160.82L251.338 159.005L249.794 157.884H251.702L252.292 156.069Z" fill="#FFF5C0"/>
<path d="M278.773 132.87L279.608 135.441H282.311L280.124 137.03L280.96 139.601L278.773 138.012L276.586 139.601L277.421 137.03L275.234 135.441H277.938L278.773 132.87Z" fill="#FFF5C0"/>
<path d="M272.426 120.177L273.016 121.992H274.924L273.38 123.113L273.97 124.928L272.426 123.807L270.882 124.928L271.472 123.113L269.929 121.992H271.837L272.426 120.177Z" fill="#FFF5C0"/>
<path d="M254.918 114.487L255.409 115.999H256.999L255.713 116.934L256.204 118.446L254.918 117.511L253.632 118.446L254.123 116.934L252.837 115.999H254.426L254.918 114.487Z" fill="#FFF5C0"/>
<path d="M625.025 21.2433C604.479 9.69413 578.461 16.9874 566.912 37.5334C555.362 58.0793 562.656 84.0975 583.202 95.6467C603.748 107.196 629.766 99.9025 641.315 79.3566C652.864 58.8107 645.571 32.7925 625.025 21.2433Z" fill="url(#paint67_linear)"/>
<path d="M574.13 35.0278L598.012 76.3909H550.249L574.13 35.0278Z" fill="url(#paint68_linear)"/>
<path d="M584.635 48.1589L603.967 81.6434H565.303L584.635 48.1589Z" fill="url(#paint69_linear)"/>
<path d="M622.716 35.0278L636.362 58.6638H609.069L622.716 35.0278Z" fill="url(#paint70_linear)"/>
<path d="M640.88 29.7753L651.305 47.8307H630.456L640.88 29.7753Z" fill="url(#paint71_linear)"/>
<path d="M711.637 214.352C735.207 214.352 754.314 195.246 754.314 171.676C754.314 148.107 735.207 129 711.637 129C688.068 129 668.961 148.107 668.961 171.676C668.961 195.246 688.068 214.352 711.637 214.352Z" fill="url(#paint72_linear)"/>
<path d="M669.399 199.908L669.453 201.22L669.399 199.908ZM712.294 199.908L713.327 200.716L713.384 200.644L713.432 200.564L712.294 199.908ZM727.176 186.559L727.255 187.87L727.176 186.559ZM755.136 191.497C755.806 191.768 756.572 191.443 756.843 190.77C757.115 190.098 756.791 189.333 756.117 189.061L755.136 191.497ZM652.906 209.714C655.113 207.023 661.568 201.549 669.453 201.22L669.344 198.596C660.422 198.968 653.336 205.049 650.875 208.048L652.906 209.714ZM669.453 201.22C671.87 201.119 673.289 201.585 674.319 202.236C675.424 202.934 676.173 203.878 677.288 205.112C678.37 206.307 679.685 207.619 681.764 208.604C683.83 209.585 686.552 210.194 690.409 210.194V207.568C686.824 207.568 684.513 207.002 682.889 206.231C681.274 205.465 680.232 204.452 679.234 203.349C678.273 202.285 677.216 200.959 675.722 200.015C674.153 199.025 672.18 198.478 669.344 198.596L669.453 201.22ZM690.409 210.194C702.747 210.194 710.762 204.003 713.327 200.716L711.261 199.1C709.155 201.796 701.881 207.568 690.409 207.568V210.194ZM713.432 200.564C714.631 198.485 716.798 195.327 719.376 192.664C722.015 189.938 724.808 188.013 727.255 187.87L727.097 185.248C723.591 185.454 720.186 188.053 717.489 190.838C714.732 193.686 712.438 197.028 711.156 199.253L713.432 200.564ZM727.255 187.87C731.054 187.646 734.639 187.22 739.016 187.513C743.353 187.804 748.47 188.809 755.136 191.497L756.117 189.061C749.214 186.278 743.826 185.204 739.191 184.893C734.595 184.585 730.739 185.034 727.097 185.248L727.255 187.87Z" fill="url(#paint73_linear)"/>
<path d="M692.685 157.027L692.737 158.339L692.685 157.027ZM723.994 157.027L725.031 157.835L725.088 157.762L725.132 157.683L723.994 157.027ZM734.858 147.28L734.936 148.591L734.858 147.28ZM755.137 151.214C755.806 151.486 756.572 151.161 756.844 150.488C757.115 149.816 756.791 149.05 756.117 148.779L755.137 151.214ZM680.919 164.412C682.495 162.488 687.122 158.573 692.737 158.339L692.628 155.715C685.975 155.992 680.718 160.514 678.888 162.746L680.919 164.412ZM692.737 158.339C694.444 158.268 695.407 158.597 696.086 159.026C696.839 159.503 697.346 160.141 698.182 161.064C698.983 161.95 699.977 162.948 701.557 163.696C703.124 164.441 705.168 164.892 708.022 164.892V162.266C705.44 162.266 703.807 161.858 702.682 161.324C701.566 160.794 700.844 160.094 700.126 159.302C699.447 158.548 698.633 157.528 697.491 156.806C696.27 156.037 694.755 155.626 692.628 155.715L692.737 158.339ZM708.022 164.892C717.144 164.892 723.097 160.315 725.031 157.835L722.961 156.22C721.486 158.107 716.277 162.266 708.022 162.266V164.892ZM725.132 157.683C725.999 156.185 727.566 153.903 729.421 151.984C731.339 150.002 733.295 148.688 734.936 148.591L734.783 145.969C732.078 146.129 729.509 148.117 727.535 150.158C725.495 152.263 723.806 154.727 722.856 156.371L725.132 157.683ZM734.936 148.591C737.733 148.426 740.311 148.119 743.476 148.331C746.606 148.54 750.304 149.265 755.137 151.214L756.117 148.779C751.048 146.733 747.078 145.94 743.651 145.71C740.268 145.484 737.414 145.814 734.783 145.969L734.936 148.591Z" fill="url(#paint74_linear)"/>
<path d="M668.523 185.702L668.578 187.014L668.523 185.702ZM711.418 185.702L712.451 186.51L712.508 186.438L712.556 186.358L711.418 185.702ZM726.3 172.353L726.379 173.664L726.3 172.353ZM754.261 177.291C754.931 177.562 755.697 177.237 755.968 176.565C756.239 175.892 755.915 175.127 755.241 174.856L754.261 177.291ZM652.03 195.508C654.238 192.817 660.692 187.343 668.578 187.014L668.469 184.39C659.546 184.762 652.461 190.843 650 193.842L652.03 195.508ZM668.578 187.014C670.994 186.914 672.414 187.379 673.444 188.03C674.549 188.728 675.297 189.672 676.413 190.906C677.495 192.102 678.809 193.414 680.888 194.398C682.954 195.379 685.677 195.989 689.533 195.989V193.362C685.948 193.362 683.637 192.795 682.013 192.025C680.398 191.259 679.356 190.246 678.361 189.144C677.397 188.079 676.34 186.753 674.846 185.81C673.278 184.819 671.305 184.272 668.469 184.39L668.578 187.014ZM689.533 195.989C701.872 195.989 709.886 189.797 712.451 186.51L710.385 184.894C708.28 187.589 701.005 193.362 689.533 193.362V195.989ZM712.556 186.358C713.756 184.279 715.922 181.121 718.5 178.458C721.14 175.732 723.932 173.807 726.379 173.664L726.221 171.042C722.715 171.249 719.31 173.847 716.614 176.632C713.856 179.48 711.563 182.822 710.28 185.047L712.556 186.358ZM726.379 173.664C730.178 173.44 733.763 173.014 738.14 173.308C742.478 173.599 747.595 174.604 754.261 177.291L755.241 174.856C748.339 172.072 742.951 170.998 738.315 170.687C733.719 170.379 729.863 170.828 726.221 171.042L726.379 173.664Z" fill="url(#paint75_linear)"/>
<path d="M692.247 146.522L692.299 147.834L692.247 146.522ZM723.556 146.522L724.593 147.33L724.65 147.258L724.694 147.178L723.556 146.522ZM734.42 136.775L734.499 138.086L734.42 136.775ZM754.699 140.709C755.368 140.981 756.134 140.656 756.406 139.983C756.677 139.311 756.353 138.545 755.679 138.274L754.699 140.709ZM680.481 153.907C682.057 151.983 686.684 148.068 692.299 147.834L692.19 145.21C685.537 145.487 680.28 150.009 678.451 152.241L680.481 153.907ZM692.299 147.834C694.006 147.763 694.969 148.092 695.648 148.521C696.401 148.998 696.908 149.636 697.745 150.559C698.546 151.445 699.539 152.443 701.119 153.192C702.686 153.936 704.73 154.387 707.584 154.387V151.761C705.002 151.761 703.369 151.353 702.244 150.819C701.128 150.289 700.406 149.589 699.688 148.797C699.009 148.043 698.195 147.023 697.053 146.301C695.832 145.532 694.317 145.122 692.19 145.21L692.299 147.834ZM707.584 154.387C716.706 154.387 722.659 149.81 724.593 147.33L722.523 145.715C721.048 147.602 715.839 151.761 707.584 151.761V154.387ZM724.694 147.178C725.561 145.68 727.128 143.398 728.984 141.479C730.901 139.497 732.857 138.183 734.499 138.086L734.345 135.464C731.64 135.624 729.071 137.612 727.097 139.653C725.057 141.758 723.368 144.222 722.418 145.867L724.694 147.178ZM734.499 138.086C737.296 137.921 739.874 137.614 743.038 137.826C746.168 138.036 749.866 138.76 754.699 140.709L755.679 138.274C750.611 136.228 746.641 135.435 743.213 135.205C739.83 134.979 736.976 135.31 734.345 135.464L734.499 138.086Z" fill="url(#paint76_linear)"/>
<path d="M179.967 258.252H148.437V228.542C148.437 219.672 141.369 212.482 132.65 212.482C123.931 212.482 116.863 219.672 116.863 228.542V257.449V273.508C116.863 282.379 123.888 290.371 132.607 290.371H179.967C188.686 290.371 195.755 283.182 195.755 274.311C195.755 265.441 188.686 258.252 179.967 258.252Z" fill="url(#paint77_linear)"/>
<path opacity="0.1" d="M179.97 258.252H148.437V228.542C148.437 219.672 141.369 212.482 132.65 212.482C123.931 212.482 116.863 219.672 116.863 228.542V257.449V273.508C116.863 282.379 123.89 290.371 132.609 290.371H179.97C188.689 290.371 195.756 283.182 195.756 274.311C195.756 265.441 188.689 258.252 179.97 258.252Z" fill="#020202"/>
<path d="M138.967 354.607H135.81C134.065 354.607 132.61 352.366 132.61 350.593V328.912H132.653V177.15C132.653 169.003 130.886 161.278 127.74 154.333C132.597 150.845 135.806 145.117 135.806 138.608C135.806 127.966 127.321 119.336 116.86 119.336C110.452 119.336 104.797 122.583 101.37 127.536C95.227 124.661 88.464 122.935 81.3394 122.619C81.1404 122.61 80.94 122.599 80.7411 122.591C80.487 122.583 80.2375 122.563 79.9834 122.558C79.6392 122.551 79.2998 122.57 78.9572 122.571C78.6146 122.571 78.2752 122.551 77.9311 122.558C77.6769 122.563 77.4259 122.583 77.1734 122.591C76.9727 122.599 76.7739 122.607 76.575 122.619C69.4489 122.935 62.6858 124.661 56.5448 127.536C53.1144 122.583 47.4596 119.336 41.0517 119.336C30.5899 119.336 22.1045 127.966 22.1045 138.608C22.1045 145.117 25.314 150.846 30.1716 154.333C27.0253 161.277 25.2587 169.003 25.2587 177.15V328.912H25.3014V350.593C25.3014 352.366 23.8458 354.607 22.1014 354.607H18.944C8.4822 354.607 0 363.237 0 373.879C0 377.427 2.8274 380.303 6.31468 380.303H53.9432C57.2821 380.303 60.0322 376.745 60.0322 373.349V331.321C60.0322 329.547 61.4039 328.912 63.1468 328.912H94.7644C96.5072 328.912 97.8791 329.547 97.8791 331.321V373.349C97.8791 376.745 100.629 380.303 103.968 380.303H151.597C155.083 380.303 157.911 377.427 157.911 373.879C157.911 363.237 149.429 354.607 138.967 354.607Z" fill="url(#paint78_linear)"/>
<path opacity="0.3" d="M59.9943 177.152C63.4819 177.152 66.309 174.276 66.309 170.728C66.309 167.18 63.4819 164.304 59.9943 164.304C56.5068 164.304 53.6797 167.18 53.6797 170.728C53.6797 174.276 56.5068 177.152 59.9943 177.152Z" fill="black"/>
<path opacity="0.3" d="M69.5065 155.467C69.5065 157.242 68.0936 158.679 66.3491 158.679H53.7198C51.9753 158.679 50.5625 157.242 50.5625 155.467C50.5625 153.693 51.9753 152.256 53.7198 152.256H66.3491C68.0936 152.256 69.5065 153.693 69.5065 155.467Z" fill="black"/>
<path opacity="0.3" d="M97.9618 177.152C101.449 177.152 104.277 174.276 104.277 170.728C104.277 167.18 101.449 164.304 97.9618 164.304C94.4744 164.304 91.6472 167.18 91.6472 170.728C91.6472 174.276 94.4744 177.152 97.9618 177.152Z" fill="black"/>
<path opacity="0.3" d="M88.4514 155.467C88.4514 153.693 89.8642 152.256 91.6087 152.256H104.238C105.982 152.256 107.395 153.693 107.395 155.467C107.395 157.242 105.982 158.679 104.238 158.679H91.6087C89.8642 158.679 88.4514 157.242 88.4514 155.467Z" fill="black"/>
<path opacity="0.3" d="M87.5099 185.186L78.9787 185.2L70.4476 185.186C69.0347 185.184 67.8934 186.52 68.2359 187.913C69.4356 192.802 74.2428 196.423 78.9787 196.423C83.7148 196.423 88.5218 192.802 89.7215 187.913C90.0641 186.52 88.9229 185.184 87.5099 185.186Z" fill="black"/>
<path d="M85.2482 258.252H44.2453V228.542C44.2453 219.672 37.1776 212.482 28.4585 212.482C19.7396 212.482 12.6719 219.672 12.6719 228.542V257.449V273.508C12.6719 282.379 19.697 290.371 28.416 290.371H85.2482C93.9671 290.371 101.035 283.182 101.035 274.311C101.035 265.441 93.9671 258.252 85.2482 258.252Z" fill="url(#paint79_linear)"/>
<path opacity="0.1" d="M85.2496 258.252H44.2453V228.542C44.2453 219.672 37.1776 212.482 28.4585 212.482C19.7396 212.482 12.6719 219.672 12.6719 228.542V257.449V273.508C12.6719 282.379 19.6985 290.371 28.4176 290.371H85.2496C93.9687 290.371 101.036 283.182 101.036 274.311C101.036 265.441 93.9687 258.252 85.2496 258.252Z" fill="#020202"/>
<path d="M48.468 132.672C43.3847 136.366 38.9329 140.991 35.3018 146.259C33.0286 144.524 31.5762 141.73 31.5762 138.614C31.5762 133.282 35.807 128.979 41.0482 128.979C44.0793 128.979 46.7631 130.424 48.468 132.672Z" fill="url(#paint80_linear)"/>
<path d="M116.349 128.979C121.59 128.979 125.821 133.282 125.821 138.614C125.821 141.73 124.369 144.524 122.095 146.259C118.464 140.991 114.013 136.366 108.929 132.672C110.634 130.424 113.318 128.979 116.349 128.979Z" fill="url(#paint81_linear)"/>
<defs>
<linearGradient id="paint0_linear" x1="488" y1="32.2405" x2="488" y2="202.562" gradientUnits="userSpaceOnUse">
<stop stop-color="#004CFF"/>
<stop offset="1" stop-color="#8DAFFF" stop-opacity="0.74"/>
</linearGradient>
<linearGradient id="paint1_linear" x1="483.446" y1="168.869" x2="543.062" y2="254" gradientUnits="userSpaceOnUse">
<stop offset="0.316378" stop-color="#FFFAC8"/>
<stop offset="1" stop-color="#FFF9C7" stop-opacity="0"/>
</linearGradient>
<linearGradient id="paint2_linear" x1="343.635" y1="24.6349" x2="428.701" y2="109.701" gradientUnits="userSpaceOnUse">
<stop stop-color="#6A0CE5"/>
<stop offset="1" stop-color="#CE1388" stop-opacity="0"/>
</linearGradient>
<linearGradient id="paint3_linear" x1="430.5" y1="41.5789" x2="430.5" y2="50.2105" gradientUnits="userSpaceOnUse">
<stop stop-color="white"/>
<stop offset="1" stop-color="#EBEBEB"/>
</linearGradient>
<linearGradient id="paint4_linear" x1="454.5" y1="62.6315" x2="454.5" y2="72.8147" gradientUnits="userSpaceOnUse">
<stop stop-color="white"/>
<stop offset="1" stop-color="#EBEBEB"/>
</linearGradient>
<linearGradient id="paint5_linear" x1="407.5" y1="76.4054" x2="407.5" y2="113.761" gradientUnits="userSpaceOnUse">
<stop stop-color="#E8AB00"/>
<stop offset="0.1999" stop-color="#EAA502"/>
<stop offset="0.4615" stop-color="#EF9507"/>
<stop offset="0.756" stop-color="#F77A10"/>
<stop offset="1" stop-color="#FF5E19"/>
</linearGradient>
<linearGradient id="paint6_linear" x1="438" y1="99.9436" x2="438" y2="114.113" gradientUnits="userSpaceOnUse">
<stop stop-color="#D35137"/>
<stop offset="0.3092" stop-color="#D8623B"/>
<stop offset="0.6604" stop-color="#DC6F3D"/>
<stop offset="1" stop-color="#DD733E"/>
</linearGradient>
<linearGradient id="paint7_linear" x1="438" y1="101.984" x2="438" y2="106.033" gradientUnits="userSpaceOnUse">
<stop stop-color="#56773B" stop-opacity="0.5"/>
<stop offset="0.0814" stop-color="#506B38" stop-opacity="0.4593"/>
<stop offset="0.3157" stop-color="#424E30" stop-opacity="0.3421"/>
<stop offset="0.549" stop-color="#383A2A" stop-opacity="0.2255"/>
<stop offset="0.7785" stop-color="#322D27" stop-opacity="0.1108"/>
<stop offset="1" stop-color="#302926" stop-opacity="0"/>
</linearGradient>
<linearGradient id="paint8_linear" x1="438" y1="81.898" x2="438" y2="103.153" gradientUnits="userSpaceOnUse">
<stop stop-color="#00893B"/>
<stop offset="0.3194" stop-color="#00964D"/>
<stop offset="0.6654" stop-color="#009E5A"/>
<stop offset="1" stop-color="#00A15E"/>
</linearGradient>
<linearGradient id="paint9_linear" x1="437.5" y1="59.0855" x2="437.5" y2="82.4025" gradientUnits="userSpaceOnUse">
<stop stop-color="#008C46"/>
<stop offset="0.1168" stop-color="#009552"/>
<stop offset="0.3252" stop-color="#00A060"/>
<stop offset="0.5786" stop-color="#00A668"/>
<stop offset="1" stop-color="#00A86B"/>
</linearGradient>
<linearGradient id="paint10_linear" x1="437.5" y1="35.4299" x2="437.5" y2="62.3442" gradientUnits="userSpaceOnUse">
<stop stop-color="#00D384"/>
<stop offset="1" stop-color="#00B579"/>
</linearGradient>
<linearGradient id="paint11_linear" x1="448.5" y1="110.037" x2="448.5" y2="114.056" gradientUnits="userSpaceOnUse">
<stop stop-color="#00C154"/>
<stop offset="1" stop-color="#009E47"/>
</linearGradient>
<linearGradient id="paint12_linear" x1="445" y1="107.733" x2="445" y2="114.084" gradientUnits="userSpaceOnUse">
<stop stop-color="#00C964"/>
<stop offset="1" stop-color="#00B248"/>
</linearGradient>
<linearGradient id="paint13_linear" x1="427.5" y1="109.722" x2="427.5" y2="114.148" gradientUnits="userSpaceOnUse">
<stop stop-color="#00C154"/>
<stop offset="1" stop-color="#009E47"/>
</linearGradient>
<linearGradient id="paint14_linear" x1="428" y1="111" x2="434" y2="111" gradientUnits="userSpaceOnUse">
<stop stop-color="#00C964"/>
<stop offset="1" stop-color="#00B248"/>
</linearGradient>
<linearGradient id="paint15_linear" x1="418.999" y1="97.9998" x2="458" y2="97.9998" gradientUnits="userSpaceOnUse">
<stop stop-color="#008C3F" stop-opacity="0"/>
<stop offset="1" stop-color="#008C3F"/>
</linearGradient>
<linearGradient id="paint16_linear" x1="425" y1="78.5" x2="452" y2="78.5" gradientUnits="userSpaceOnUse">
<stop stop-color="#00995E" stop-opacity="0.5"/>
<stop offset="1" stop-color="#00995E"/>
</linearGradient>
<linearGradient id="paint17_linear" x1="429" y1="57.4998" x2="448" y2="57.4998" gradientUnits="userSpaceOnUse">
<stop stop-color="#00AD66" stop-opacity="0"/>
<stop offset="1" stop-color="#00AD66"/>
</linearGradient>
<linearGradient id="paint18_linear" x1="377" y1="77" x2="377" y2="114" gradientUnits="userSpaceOnUse">
<stop stop-color="#FFE552"/>
<stop offset="1" stop-color="#FF9627"/>
</linearGradient>
<linearGradient id="paint19_linear" x1="360" y1="41.526" x2="360" y2="51.3583" gradientUnits="userSpaceOnUse">
<stop stop-color="white"/>
<stop offset="1" stop-color="#EBEBEB"/>
</linearGradient>
<linearGradient id="paint20_linear" x1="349.08" y1="114.007" x2="342.832" y2="107.16" gradientUnits="userSpaceOnUse">
<stop stop-color="#352C25"/>
<stop offset="1" stop-color="#47413C"/>
</linearGradient>
<linearGradient id="paint21_linear" x1="361.5" y1="76.7536" x2="361.5" y2="71.9383" gradientUnits="userSpaceOnUse">
<stop stop-color="#352C25"/>
<stop offset="1" stop-color="#47413C"/>
</linearGradient>
<linearGradient id="paint22_linear" x1="361" y1="85.4997" x2="383" y2="85.4997" gradientUnits="userSpaceOnUse">
<stop stop-color="#E8B500"/>
<stop offset="1" stop-color="#FF7619"/>
</linearGradient>
<linearGradient id="paint23_linear" x1="374.5" y1="30.7836" x2="374.5" y2="55.7064" gradientUnits="userSpaceOnUse">
<stop stop-color="#FFFFED"/>
<stop offset="0.41" stop-color="#F6F6E9"/>
<stop offset="1" stop-color="#E1E1E1"/>
</linearGradient>
<linearGradient id="paint24_linear" x1="376" y1="52.4558" x2="376" y2="33.9367" gradientUnits="userSpaceOnUse">
<stop stop-opacity="0.1"/>
<stop offset="1" stop-color="#6086C4" stop-opacity="0"/>
</linearGradient>
<linearGradient id="paint25_linear" x1="364" y1="36.4999" x2="369" y2="36.4999" gradientUnits="userSpaceOnUse">
<stop stop-opacity="0.08"/>
<stop offset="1" stop-color="#6086C4" stop-opacity="0"/>
</linearGradient>
<linearGradient id="paint26_linear" x1="373.326" y1="53.2308" x2="371.922" y2="55.3739" gradientUnits="userSpaceOnUse">
<stop stop-opacity="0.08"/>
<stop offset="1" stop-color="#6086C4" stop-opacity="0"/>
</linearGradient>
<linearGradient id="paint27_linear" x1="361" y1="85.4997" x2="382" y2="85.4997" gradientUnits="userSpaceOnUse">
<stop stop-color="#BF6419"/>
<stop offset="1" stop-color="#E9B800" stop-opacity="0"/>
</linearGradient>
<linearGradient id="paint28_linear" x1="342" y1="115" x2="468" y2="115" gradientUnits="userSpaceOnUse">
<stop stop-color="#EDEDED"/>
<stop offset="1" stop-color="#DDDDDD"/>
</linearGradient>
<linearGradient id="paint29_linear" x1="371" y1="64.9997" x2="371" y2="68.8523" gradientUnits="userSpaceOnUse">
<stop stop-color="#FFFFC0"/>
<stop offset="1" stop-color="#FFF1AC"/>
</linearGradient>
<linearGradient id="paint30_linear" x1="413" y1="41.7906" x2="413" y2="46.0289" gradientUnits="userSpaceOnUse">
<stop stop-color="#FFFFC0"/>
<stop offset="1" stop-color="#FFF1AC"/>
</linearGradient>
<linearGradient id="paint31_linear" x1="390" y1="37.1092" x2="390" y2="40.8831" gradientUnits="userSpaceOnUse">
<stop stop-color="#FFFFC0"/>
<stop offset="1" stop-color="#FFF1AC"/>
</linearGradient>
<linearGradient id="paint32_linear" x1="354.5" y1="60.9997" x2="354.5" y2="64.8523" gradientUnits="userSpaceOnUse">
<stop stop-color="#FFFFC0"/>
<stop offset="1" stop-color="#FFF1AC"/>
</linearGradient>
<linearGradient id="paint33_linear" x1="424" y1="34.7901" x2="424" y2="39.0289" gradientUnits="userSpaceOnUse">
<stop stop-color="#FFFFC0"/>
<stop offset="1" stop-color="#FFF1AC"/>
</linearGradient>
<linearGradient id="paint34_linear" x1="367.681" y1="45.3189" x2="365.12" y2="47.8793" gradientUnits="userSpaceOnUse">
<stop stop-opacity="0.08"/>
<stop offset="1" stop-color="#6086C4" stop-opacity="0"/>
</linearGradient>
<linearGradient id="paint35_linear" x1="448.649" y1="81.4824" x2="465.207" y2="96.3814" gradientUnits="userSpaceOnUse">
<stop stop-color="#56773B" stop-opacity="0.2"/>
<stop offset="0.0279" stop-color="#537039" stop-opacity="0.1944"/>
<stop offset="0.1595" stop-color="#465632" stop-opacity="0.1681"/>
<stop offset="0.3048" stop-color="#3C422D" stop-opacity="0.139"/>
<stop offset="0.4692" stop-color="#353429" stop-opacity="0.1062"/>
<stop offset="0.6685" stop-color="#312C27" stop-opacity="0.0663"/>
<stop offset="1" stop-color="#302926" stop-opacity="0"/>
</linearGradient>
<linearGradient id="paint36_linear" x1="443.574" y1="61.1364" x2="457.977" y2="78.2965" gradientUnits="userSpaceOnUse">
<stop stop-color="#56773B" stop-opacity="0.2"/>
<stop offset="0.0279" stop-color="#537039" stop-opacity="0.1944"/>
<stop offset="0.1595" stop-color="#465632" stop-opacity="0.1681"/>
<stop offset="0.3048" stop-color="#3C422D" stop-opacity="0.139"/>
<stop offset="0.4692" stop-color="#353429" stop-opacity="0.1062"/>
<stop offset="0.6685" stop-color="#312C27" stop-opacity="0.0663"/>
<stop offset="1" stop-color="#302926" stop-opacity="0"/>
</linearGradient>
<linearGradient id="paint37_linear" x1="444.5" y1="35.9997" x2="444.5" y2="60" gradientUnits="userSpaceOnUse">
<stop stop-color="#56773B" stop-opacity="0.1"/>
<stop offset="0.0279" stop-color="#537039" stop-opacity="0.0972"/>
<stop offset="0.1595" stop-color="#465632" stop-opacity="0.0841"/>
<stop offset="0.3048" stop-color="#3C422D" stop-opacity="0.0695"/>
<stop offset="0.4692" stop-color="#353429" stop-opacity="0.0531"/>
<stop offset="0.6685" stop-color="#312C27" stop-opacity="0.0331"/>
<stop offset="1" stop-color="#302926" stop-opacity="0"/>
</linearGradient>
<linearGradient id="paint38_linear" x1="442.5" y1="107.775" x2="442.5" y2="114.054" gradientUnits="userSpaceOnUse">
<stop stop-color="#56773B" stop-opacity="0.3"/>
<stop offset="0.0279" stop-color="#537039" stop-opacity="0.2916"/>
<stop offset="0.1595" stop-color="#465632" stop-opacity="0.2522"/>
<stop offset="0.3048" stop-color="#3C422D" stop-opacity="0.2086"/>
<stop offset="0.4692" stop-color="#353429" stop-opacity="0.1592"/>
<stop offset="0.6685" stop-color="#312C27" stop-opacity="0.0994"/>
<stop offset="1" stop-color="#302926" stop-opacity="0"/>
</linearGradient>
<linearGradient id="paint39_linear" x1="358" y1="46.9997" x2="360" y2="46.9997" gradientUnits="userSpaceOnUse">
<stop stop-opacity="0.15"/>
<stop offset="1" stop-color="#6086C4" stop-opacity="0"/>
</linearGradient>
<linearGradient id="paint40_linear" x1="461" y1="196.5" x2="497" y2="196.5" gradientUnits="userSpaceOnUse">
<stop stop-color="#55C2FF"/>
<stop offset="0.193" stop-color="#59C4FF"/>
<stop offset="0.3929" stop-color="#66CBFF"/>
<stop offset="0.5961" stop-color="#7AD6FF"/>
<stop offset="0.8002" stop-color="#97E6FF"/>
<stop offset="1" stop-color="#BBFAFF"/>
</linearGradient>
<linearGradient id="paint41_linear" x1="436.366" y1="141.748" x2="436.366" y2="148.726" gradientUnits="userSpaceOnUse">
<stop stop-color="#FFFFED" stop-opacity="0"/>
<stop offset="0.4031" stop-color="#FFFFF6" stop-opacity="0.1612"/>
<stop offset="1" stop-color="white" stop-opacity="0.4"/>
</linearGradient>
<linearGradient id="paint42_linear" x1="425.377" y1="145.869" x2="427.222" y2="145.869" gradientUnits="userSpaceOnUse">
<stop stop-opacity="0.17"/>
<stop offset="1" stop-color="#6086C4" stop-opacity="0"/>
</linearGradient>
<linearGradient id="paint43_linear" x1="417.016" y1="152.615" x2="417.016" y2="149.019" gradientUnits="userSpaceOnUse">
<stop stop-opacity="0.1"/>
<stop offset="1" stop-color="#6086C4" stop-opacity="0"/>
</linearGradient>
<linearGradient id="paint44_linear" x1="521" y1="185" x2="578" y2="185" gradientUnits="userSpaceOnUse">
<stop stop-color="#55C2FF"/>
<stop offset="0.193" stop-color="#59C4FF"/>
<stop offset="0.3929" stop-color="#66CBFF"/>
<stop offset="0.5961" stop-color="#7AD6FF"/>
<stop offset="0.8002" stop-color="#97E6FF"/>
<stop offset="1" stop-color="#BBFAFF"/>
</linearGradient>
<linearGradient id="paint45_linear" x1="506.553" y1="125.94" x2="506.553" y2="136.928" gradientUnits="userSpaceOnUse">
<stop stop-color="#FFFFED" stop-opacity="0"/>
<stop offset="0.4031" stop-color="#FFFFF6" stop-opacity="0.1612"/>
<stop offset="1" stop-color="white" stop-opacity="0.4"/>
</linearGradient>
<linearGradient id="paint46_linear" x1="489.224" y1="132.428" x2="492.133" y2="132.428" gradientUnits="userSpaceOnUse">
<stop stop-opacity="0.17"/>
<stop offset="1" stop-color="#6086C4" stop-opacity="0"/>
</linearGradient>
<linearGradient id="paint47_linear" x1="476.039" y1="143.049" x2="476.039" y2="137.388" gradientUnits="userSpaceOnUse">
<stop stop-opacity="0.1"/>
<stop offset="1" stop-color="#6086C4" stop-opacity="0"/>
</linearGradient>
<radialGradient id="paint48_radial" cx="0" cy="0" r="1" gradientUnits="userSpaceOnUse" gradientTransform="translate(264.11 156.725) rotate(90) scale(78.1303 82.7262)">
<stop offset="0.56118" stop-color="#FFFCDE"/>
<stop offset="0.915361" stop-color="#FFF8B7" stop-opacity="0.4"/>
<stop offset="1" stop-color="#FFF8B7" stop-opacity="0"/>
</radialGradient>
<linearGradient id="paint49_linear" x1="497" y1="225" x2="541" y2="225" gradientUnits="userSpaceOnUse">
<stop stop-color="#55C2FF"/>
<stop offset="0.193" stop-color="#59C4FF"/>
<stop offset="0.3929" stop-color="#66CBFF"/>
<stop offset="0.5961" stop-color="#7AD6FF"/>
<stop offset="0.8002" stop-color="#97E6FF"/>
<stop offset="1" stop-color="#BBFAFF"/>
</linearGradient>
<linearGradient id="paint50_linear" x1="474.874" y1="165.69" x2="474.874" y2="174.153" gradientUnits="userSpaceOnUse">
<stop stop-color="#FFFFED" stop-opacity="0"/>
<stop offset="0.4031" stop-color="#FFFFF6" stop-opacity="0.1612"/>
<stop offset="1" stop-color="white" stop-opacity="0.4"/>
</linearGradient>
<linearGradient id="paint51_linear" x1="461.49" y1="170.687" x2="463.736" y2="170.687" gradientUnits="userSpaceOnUse">
<stop stop-opacity="0.17"/>
<stop offset="1" stop-color="#6086C4" stop-opacity="0"/>
</linearGradient>
<linearGradient id="paint52_linear" x1="451.307" y1="178.868" x2="451.307" y2="174.508" gradientUnits="userSpaceOnUse">
<stop stop-opacity="0.1"/>
<stop offset="1" stop-color="#6086C4" stop-opacity="0"/>
</linearGradient>
<linearGradient id="paint53_linear" x1="234.781" y1="121.402" x2="291.568" y2="196.04" gradientUnits="userSpaceOnUse">
<stop offset="0.180956" stop-color="#0F45C3"/>
<stop offset="0.712228" stop-color="#4F83FF"/>
<stop offset="1" stop-color="#4F83FF" stop-opacity="0.31"/>
</linearGradient>
<linearGradient id="paint54_linear" x1="281.764" y1="149.278" x2="281.764" y2="193.419" gradientUnits="userSpaceOnUse">
<stop stop-color="#00E35E"/>
<stop offset="1" stop-color="#00B248"/>
</linearGradient>
<linearGradient id="paint55_linear" x1="296.529" y1="132.619" x2="296.529" y2="193.349" gradientUnits="userSpaceOnUse">
<stop stop-color="#00E35E"/>
<stop offset="1" stop-color="#00A332"/>
</linearGradient>
<linearGradient id="paint56_linear" x1="307.267" y1="164.088" x2="307.267" y2="193.713" gradientUnits="userSpaceOnUse">
<stop stop-color="#00E35E"/>
<stop offset="1" stop-color="#00B248"/>
</linearGradient>
<linearGradient id="paint57_linear" x1="300.556" y1="164.233" x2="300.556" y2="193.274" gradientUnits="userSpaceOnUse">
<stop stop-color="#304F26" stop-opacity="0"/>
<stop offset="0.2844" stop-color="#2C4D23" stop-opacity="0.0569"/>
<stop offset="0.579" stop-color="#1F4719" stop-opacity="0.1158"/>
<stop offset="0.8773" stop-color="#0B3E09" stop-opacity="0.1755"/>
<stop offset="1" stop-color="#003900" stop-opacity="0.2"/>
</linearGradient>
<linearGradient id="paint58_linear" x1="232.814" y1="166.645" x2="232.814" y2="198.631" gradientUnits="userSpaceOnUse">
<stop stop-color="#00E35E"/>
<stop offset="1" stop-color="#00B248"/>
</linearGradient>
<linearGradient id="paint59_linear" x1="241.962" y1="154.573" x2="241.962" y2="198.581" gradientUnits="userSpaceOnUse">
<stop stop-color="#00E35E"/>
<stop offset="1" stop-color="#00A332"/>
</linearGradient>
<linearGradient id="paint60_linear" x1="248.615" y1="177.377" x2="248.615" y2="198.844" gradientUnits="userSpaceOnUse">
<stop stop-color="#00E35E"/>
<stop offset="1" stop-color="#00B248"/>
</linearGradient>
<linearGradient id="paint61_linear" x1="244.456" y1="177.482" x2="244.456" y2="198.526" gradientUnits="userSpaceOnUse">
<stop stop-color="#304F26" stop-opacity="0"/>
<stop offset="0.2844" stop-color="#2C4D23" stop-opacity="0.0569"/>
<stop offset="0.579" stop-color="#1F4719" stop-opacity="0.1158"/>
<stop offset="0.8773" stop-color="#0B3E09" stop-opacity="0.1755"/>
<stop offset="1" stop-color="#003900" stop-opacity="0.2"/>
</linearGradient>
<linearGradient id="paint62_linear" x1="254.699" y1="128.705" x2="254.699" y2="146.937" gradientUnits="userSpaceOnUse">
<stop stop-color="#00E35E"/>
<stop offset="1" stop-color="#00B248"/>
</linearGradient>
<linearGradient id="paint63_linear" x1="259.995" y1="121.824" x2="259.995" y2="146.908" gradientUnits="userSpaceOnUse">
<stop stop-color="#00E35E"/>
<stop offset="1" stop-color="#00A332"/>
</linearGradient>
<linearGradient id="paint64_linear" x1="263.848" y1="134.822" x2="263.848" y2="147.058" gradientUnits="userSpaceOnUse">
<stop stop-color="#00E35E"/>
<stop offset="1" stop-color="#00B248"/>
</linearGradient>
<linearGradient id="paint65_linear" x1="261.44" y1="134.882" x2="261.44" y2="146.877" gradientUnits="userSpaceOnUse">
<stop stop-color="#304F26" stop-opacity="0"/>
<stop offset="0.2844" stop-color="#2C4D23" stop-opacity="0.0569"/>
<stop offset="0.579" stop-color="#1F4719" stop-opacity="0.1158"/>
<stop offset="0.8773" stop-color="#0B3E09" stop-opacity="0.1755"/>
<stop offset="1" stop-color="#003900" stop-opacity="0.2"/>
</linearGradient>
<linearGradient id="paint66_linear" x1="225.328" y1="115.862" x2="244.851" y2="134.147" gradientUnits="userSpaceOnUse">
<stop offset="0.52472" stop-color="#FFF5C0"/>
<stop offset="1" stop-color="#FFF1A9" stop-opacity="0.52"/>
</linearGradient>
<linearGradient id="paint67_linear" x1="603.894" y1="78.7978" x2="607.283" y2="11.2701" gradientUnits="userSpaceOnUse">
<stop stop-color="#FF3D00"/>
<stop offset="1" stop-color="#FFB800" stop-opacity="0.43"/>
</linearGradient>
<linearGradient id="paint68_linear" x1="564.501" y1="54.7245" x2="601.706" y2="83.613" gradientUnits="userSpaceOnUse">
<stop stop-color="#502D05"/>
<stop offset="1" stop-color="#A15700" stop-opacity="0.25"/>
</linearGradient>
<linearGradient id="paint69_linear" x1="576.84" y1="64.1041" x2="606.958" y2="87.4898" gradientUnits="userSpaceOnUse">
<stop stop-color="#502D05"/>
<stop offset="1" stop-color="#A15700" stop-opacity="0.25"/>
</linearGradient>
<linearGradient id="paint70_linear" x1="617.213" y1="46.2829" x2="638.473" y2="62.791" gradientUnits="userSpaceOnUse">
<stop stop-color="#502D05"/>
<stop offset="1" stop-color="#A15700" stop-opacity="0.25"/>
</linearGradient>
<linearGradient id="paint71_linear" x1="636.677" y1="38.3732" x2="652.917" y2="50.9831" gradientUnits="userSpaceOnUse">
<stop stop-color="#502D05"/>
<stop offset="1" stop-color="#A15700" stop-opacity="0.25"/>
</linearGradient>
<linearGradient id="paint72_linear" x1="688.877" y1="160.296" x2="746.435" y2="214.352" gradientUnits="userSpaceOnUse">
<stop stop-color="#0F98C3"/>
<stop offset="1" stop-color="#ACFAFF" stop-opacity="0.47"/>
</linearGradient>
<linearGradient id="paint73_linear" x1="703.759" y1="186.101" x2="703.759" y2="208.881" gradientUnits="userSpaceOnUse">
<stop offset="0.410132" stop-color="#5FD9FF"/>
<stop offset="1" stop-color="#CBF3FF"/>
</linearGradient>
<linearGradient id="paint74_linear" x1="717.765" y1="146.946" x2="717.765" y2="163.579" gradientUnits="userSpaceOnUse">
<stop offset="0.410132" stop-color="#5FD9FF"/>
<stop offset="1" stop-color="#CBF3FF"/>
</linearGradient>
<linearGradient id="paint75_linear" x1="702.883" y1="171.895" x2="702.883" y2="194.675" gradientUnits="userSpaceOnUse">
<stop offset="0.410132" stop-color="#5FD9FF"/>
<stop offset="1" stop-color="#CBF3FF"/>
</linearGradient>
<linearGradient id="paint76_linear" x1="717.327" y1="136.441" x2="717.327" y2="153.074" gradientUnits="userSpaceOnUse">
<stop offset="0.410132" stop-color="#5FD9FF"/>
<stop offset="1" stop-color="#CBF3FF"/>
</linearGradient>
<linearGradient id="paint77_linear" x1="156.309" y1="212.482" x2="156.309" y2="286.6" gradientUnits="userSpaceOnUse">
<stop stop-color="#DE784F"/>
<stop offset="1" stop-color="#D16B4D"/>
</linearGradient>
<linearGradient id="paint78_linear" x1="78.9556" y1="381.391" x2="78.9556" y2="119.336" gradientUnits="userSpaceOnUse">
<stop stop-color="#B95F4B"/>
<stop offset="1" stop-color="#DB8A4D"/>
</linearGradient>
<linearGradient id="paint79_linear" x1="56.8534" y1="212.482" x2="56.8534" y2="286.6" gradientUnits="userSpaceOnUse">
<stop stop-color="#DE784F"/>
<stop offset="1" stop-color="#D16B4D"/>
</linearGradient>
<linearGradient id="paint80_linear" x1="33.4688" y1="130.914" x2="43.6983" y2="140.97" gradientUnits="userSpaceOnUse">
<stop stop-opacity="0.12"/>
<stop offset="1" stop-color="#302926" stop-opacity="0.02"/>
</linearGradient>
<linearGradient id="paint81_linear" x1="123.928" y1="130.914" x2="113.699" y2="140.97" gradientUnits="userSpaceOnUse">
<stop stop-opacity="0.12"/>
<stop offset="1" stop-color="#302926" stop-opacity="0.02"/>
</linearGradient>
</defs>
</svg>
